<?xml version="1.0" encoding="UTF-8"?>
<svg version="1.1" xmlns="http://www.w3.org/2000/svg" width="500" height="200">
<path d="M0 0 C0 0.66 0 1.32 0 2 C2.97 2.495 2.97 2.495 6 3 C6.495 4.485 6.495 4.485 7 6 C7.68835938 6.0825 8.37671875 6.165 9.0859375 6.25 C12.72403978 7.18634804 15.53016884 8.95018232 18.625 11 C19.23819092 11.40154297 19.85138184 11.80308594 20.4831543 12.21679688 C29.92890725 18.50660614 38.1195239 25.86272631 46 34 C46.845625 34.804375 47.69125 35.60875 48.5625 36.4375 C50.88562609 38.87976076 53.16154894 41.33278073 55.375 43.875 C56.43847656 45.07769531 56.43847656 45.07769531 57.5234375 46.3046875 C59.53492694 49.97645394 58.86177183 51.95398127 58 56 C57.78337379 57.93191192 57.56680625 59.86383262 57.35375977 61.79614258 C56.65832594 67.92590559 55.74718302 73.77622117 53.78125 79.64453125 C52.92072193 82.23902338 52.24189084 84.85259115 51.5625 87.5 C50.12711632 92.85214873 48.17546676 97.90918692 46 103 C45.34 103 44.68 103 44 103 C44.0825 103.70125 44.165 104.4025 44.25 105.125 C43.91722597 108.95190131 42.19923638 110.8951957 40 114 C39.68675781 114.78375 39.37351562 115.5675 39.05078125 116.375 C37.95218284 119.11945401 36.60822099 121.48279533 35.0625 124 C34.55847656 124.825 34.05445313 125.65 33.53515625 126.5 C33.02855469 127.325 32.52195312 128.15 32 129 C31.50371094 129.886875 31.00742187 130.77375 30.49609375 131.6875 C29 134 29 134 26 136 C24.03156079 136.26245856 22.06172842 136.51903106 20.0859375 136.71875 C17.7921662 136.96615543 17.7921662 136.96615543 14.875 138 C10.18000414 139.46449412 5.29195807 139.43243927 0.4140625 139.71484375 C-2.38283754 139.94845211 -4.80528963 140.3408828 -7.5 141.0625 C-14.61636752 142.85834416 -22.91646307 142.96074512 -30 141 C-39.26034415 139.39097315 -39.26034415 139.39097315 -48.625 139 C-52.0369308 139 -53.12579151 138.57617885 -56 137 C-57.7325 136.814375 -57.7325 136.814375 -59.5 136.625 C-63.46493649 135.91697563 -64.66906508 135.22744835 -67 132 C-67.75 129.25 -67.75 129.25 -68 127 C-68.66 127 -69.32 127 -70 127 C-70.6496875 125.6696875 -70.6496875 125.6696875 -71.3125 124.3125 C-72.89179941 121.10264773 -72.89179941 121.10264773 -74.5 118.5625 C-75.72844978 116.46389829 -76.68864613 114.48179491 -77.625 112.25 C-78.67595434 109.19881062 -78.67595434 109.19881062 -80 108 C-80.04063832 106.33382885 -80.042721 104.66611905 -80 103 C-80.66 103 -81.32 103 -82 103 C-82.33773437 102.04738281 -82.67546875 101.09476562 -83.0234375 100.11328125 C-83.47390696 98.8463359 -83.92443067 97.57940984 -84.375 96.3125 C-85.03628906 94.45044922 -85.03628906 94.45044922 -85.7109375 92.55078125 C-86.47235265 90.45342862 -87.25817163 88.3642179 -88.09765625 86.296875 C-88.92867851 84.1815456 -89.53999074 82.14608958 -90.0625 79.9375 C-90.21847656 79.28652344 -90.37445313 78.63554688 -90.53515625 77.96484375 C-90.68855469 77.31644531 -90.84195313 76.66804688 -91 76 C-91.16371094 75.38511719 -91.32742187 74.77023438 -91.49609375 74.13671875 C-92.38697124 70.35912196 -92.90026004 66.51240067 -93.5 62.6796875 C-93.86517857 60.04000334 -93.86517857 60.04000334 -95 58 C-96.06220578 52.96955374 -95.75625496 49.29101265 -93.1328125 44.8125 C-89.7334383 40.26514041 -86.22716473 35.81167418 -82 32 C-81.34 32 -80.68 32 -80 32 C-79.67 31.01 -79.34 30.02 -79 29 C-77.2578125 27.17578125 -77.2578125 27.17578125 -75.125 25.3125 C-74.42632812 24.68988281 -73.72765625 24.06726563 -73.0078125 23.42578125 C-71 22 -71 22 -68 22 C-67.67 21.01 -67.34 20.02 -67 19 C-66.34 19 -65.68 19 -65 19 C-65 18.34 -65 17.68 -65 17 C-63.55053711 15.91845703 -63.55053711 15.91845703 -61.52734375 14.7578125 C-60.42422852 14.11779297 -60.42422852 14.11779297 -59.29882812 13.46484375 C-58.51958984 13.02269531 -57.74035156 12.58054687 -56.9375 12.125 C-55.80924805 11.47337891 -55.80924805 11.47337891 -54.65820312 10.80859375 C-53.16131192 9.94545129 -51.66189225 9.08667819 -50.15991211 8.23242188 C-48.76252279 7.43508704 -47.36973645 6.62960671 -45.98266602 5.81445312 C-42.63598646 3.85456298 -39.88215935 2.47056477 -36 2 C-36 1.34 -36 0.68 -36 0 C-35.27296875 -0.28488281 -34.5459375 -0.56976563 -33.796875 -0.86328125 C-32.06057816 -1.56895496 -30.33778956 -2.3102741 -28.640625 -3.10546875 C-17.77031237 -8.02552855 -10.46694514 -4.79956368 0 0 Z " fill="#08AE00" transform="translate(268,9)"/>
<path d="M0 0 C0 0.66 0 1.32 0 2 C2.97 2.495 2.97 2.495 6 3 C6.495 4.485 6.495 4.485 7 6 C7.68835938 6.0825 8.37671875 6.165 9.0859375 6.25 C12.72403978 7.18634804 15.53016884 8.95018232 18.625 11 C19.23819092 11.40154297 19.85138184 11.80308594 20.4831543 12.21679688 C29.92890725 18.50660614 38.1195239 25.86272631 46 34 C46.845625 34.804375 47.69125 35.60875 48.5625 36.4375 C50.88562609 38.87976076 53.16154894 41.33278073 55.375 43.875 C56.43847656 45.07769531 56.43847656 45.07769531 57.5234375 46.3046875 C59.53492694 49.97645394 58.86177183 51.95398127 58 56 C57.78337379 57.93191192 57.56680625 59.86383262 57.35375977 61.79614258 C56.65832594 67.92590559 55.74718302 73.77622117 53.78125 79.64453125 C52.92072193 82.23902338 52.24189084 84.85259115 51.5625 87.5 C50.12711632 92.85214873 48.17546676 97.90918692 46 103 C45.34 103 44.68 103 44 103 C44.0825 103.70125 44.165 104.4025 44.25 105.125 C43.91722597 108.95190131 42.19923638 110.8951957 40 114 C39.68675781 114.78375 39.37351562 115.5675 39.05078125 116.375 C37.95218284 119.11945401 36.60822099 121.48279533 35.0625 124 C34.55847656 124.825 34.05445313 125.65 33.53515625 126.5 C33.02855469 127.325 32.52195312 128.15 32 129 C31.50371094 129.886875 31.00742187 130.77375 30.49609375 131.6875 C29 134 29 134 26 136 C24.03156079 136.26245856 22.06172842 136.51903106 20.0859375 136.71875 C17.7921662 136.96615543 17.7921662 136.96615543 14.875 138 C10.18000414 139.46449412 5.29195807 139.43243927 0.4140625 139.71484375 C-2.38283754 139.94845211 -4.80528963 140.3408828 -7.5 141.0625 C-14.61636752 142.85834416 -22.91646307 142.96074512 -30 141 C-39.26034415 139.39097315 -39.26034415 139.39097315 -48.625 139 C-52.0369308 139 -53.12579151 138.57617885 -56 137 C-57.7325 136.814375 -57.7325 136.814375 -59.5 136.625 C-63.46493649 135.91697563 -64.66906508 135.22744835 -67 132 C-67.75 129.25 -67.75 129.25 -68 127 C-68.66 127 -69.32 127 -70 127 C-70.6496875 125.6696875 -70.6496875 125.6696875 -71.3125 124.3125 C-72.89179941 121.10264773 -72.89179941 121.10264773 -74.5 118.5625 C-75.72844978 116.46389829 -76.68864613 114.48179491 -77.625 112.25 C-78.67595434 109.19881062 -78.67595434 109.19881062 -80 108 C-80.04063832 106.33382885 -80.042721 104.66611905 -80 103 C-80.66 103 -81.32 103 -82 103 C-82.33773437 102.04738281 -82.67546875 101.09476562 -83.0234375 100.11328125 C-83.47390696 98.8463359 -83.92443067 97.57940984 -84.375 96.3125 C-85.03628906 94.45044922 -85.03628906 94.45044922 -85.7109375 92.55078125 C-86.47235265 90.45342862 -87.25817163 88.3642179 -88.09765625 86.296875 C-88.92867851 84.1815456 -89.53999074 82.14608958 -90.0625 79.9375 C-90.21847656 79.28652344 -90.37445313 78.63554688 -90.53515625 77.96484375 C-90.68855469 77.31644531 -90.84195313 76.66804688 -91 76 C-91.16371094 75.38511719 -91.32742187 74.77023438 -91.49609375 74.13671875 C-92.38697124 70.35912196 -92.90026004 66.51240067 -93.5 62.6796875 C-93.86517857 60.04000334 -93.86517857 60.04000334 -95 58 C-96.06220578 52.96955374 -95.75625496 49.29101265 -93.1328125 44.8125 C-89.7334383 40.26514041 -86.22716473 35.81167418 -82 32 C-81.34 32 -80.68 32 -80 32 C-79.67 31.01 -79.34 30.02 -79 29 C-77.2578125 27.17578125 -77.2578125 27.17578125 -75.125 25.3125 C-74.42632812 24.68988281 -73.72765625 24.06726563 -73.0078125 23.42578125 C-71 22 -71 22 -68 22 C-67.67 21.01 -67.34 20.02 -67 19 C-66.34 19 -65.68 19 -65 19 C-65 18.34 -65 17.68 -65 17 C-63.55053711 15.91845703 -63.55053711 15.91845703 -61.52734375 14.7578125 C-60.42422852 14.11779297 -60.42422852 14.11779297 -59.29882812 13.46484375 C-58.51958984 13.02269531 -57.74035156 12.58054687 -56.9375 12.125 C-55.80924805 11.47337891 -55.80924805 11.47337891 -54.65820312 10.80859375 C-53.16131192 9.94545129 -51.66189225 9.08667819 -50.15991211 8.23242188 C-48.76252279 7.43508704 -47.36973645 6.62960671 -45.98266602 5.81445312 C-42.63598646 3.85456298 -39.88215935 2.47056477 -36 2 C-36 1.34 -36 0.68 -36 0 C-35.27296875 -0.28488281 -34.5459375 -0.56976563 -33.796875 -0.86328125 C-32.06057816 -1.56895496 -30.33778956 -2.3102741 -28.640625 -3.10546875 C-17.77031237 -8.02552855 -10.46694514 -4.79956368 0 0 Z M-51 22 C-51.77085937 22.27972656 -52.54171875 22.55945312 -53.3359375 22.84765625 C-63.91868718 27.42523859 -70.67236695 39.99693044 -75.3828125 49.91015625 C-78.08986027 57.09424457 -78.37004874 64.15812019 -78.4375 71.75 C-78.4478125 72.72050293 -78.458125 73.69100586 -78.46875 74.69091797 C-78.39123885 80.98762238 -77.3478117 86.1703124 -75 92 C-74.5654248 93.13949097 -74.5654248 93.13949097 -74.12207031 94.30200195 C-67.77215299 110.56169676 -55.32455609 120.3730475 -39.87597656 127.20166016 C-25.18666598 133.45283736 -9.806088 132.04503739 5 127 C19.43938563 120.84550776 31.81756731 109.56795558 38.2265625 95.07421875 C43.82301949 80.06553864 44.67724803 61.81059376 38 47 C30.39859919 31.28889803 17.83640999 21.14046041 1.67578125 15.22265625 C-15.2677087 9.58683016 -36.88222144 9.89904694 -51 22 Z " fill="#08A701" transform="translate(268,9)"/>
<path d="M0 0 C9.62377241 8.88110187 17.08976705 21.11471722 18.20141602 34.40869141 C18.30364334 37.02641422 18.32867794 39.63036398 18.3125 42.25 C18.30831055 43.17514404 18.30412109 44.10028809 18.29980469 45.0534668 C18.18477644 52.03653792 17.44214181 58.40941641 15 65 C14.75636719 65.67289062 14.51273437 66.34578125 14.26171875 67.0390625 C9.10053059 78.92691768 -0.29832931 88.10536622 -11 95 C-11.65226562 95.42796875 -12.30453125 95.8559375 -12.9765625 96.296875 C-26.16099004 103.84742822 -43.75543658 105.1294232 -58.1875 101.4375 C-75.5547758 95.78671402 -87.76148633 85.55464036 -97 70 C-103.58645962 56.59055045 -104.5153462 39.03268288 -100.375 24.6875 C-96.53153845 14.48290872 -90.51928283 6.7927113 -83 -1 C-82.29875 -1.73476563 -81.5975 -2.46953125 -80.875 -3.2265625 C-78.69645144 -5.28710635 -76.78933958 -5.93739445 -74 -7 C-73.154375 -7.61875 -72.30875 -8.2375 -71.4375 -8.875 C-50.21184591 -23.51905592 -18.12783528 -15.85475249 0 0 Z M-64 -10 C-64 -8.68 -64 -7.36 -64 -6 C-62.68 -6 -61.36 -6 -60 -6 C-60 -5.34 -60 -4.68 -60 -4 C-60.99 -4 -61.98 -4 -63 -4 C-62.505 -2.515 -62.505 -2.515 -62 -1 C-62.65226562 -0.62488281 -63.30453125 -0.24976563 -63.9765625 0.13671875 C-74.05161614 6.03612332 -82.82464385 12.72653841 -87 24 C-87.98482022 26.00751815 -88.98152514 28.00934459 -90 30 C-92 30 -94 30 -96 30 C-96 30.99 -96 31.98 -96 33 C-96.66 33 -97.32 33 -98 33 C-98.495 31.515 -98.495 31.515 -99 30 C-99 31.65 -99 33.3 -99 35 C-96.29120665 36.35439668 -93.99066732 36.06501451 -91 36 C-91.33 37.32 -91.66 38.64 -92 40 C-95.96 39.505 -95.96 39.505 -100 39 C-100 39.66 -100 40.32 -100 41 C-99.01 41 -98.02 41 -97 41 C-97 41.66 -97 42.32 -97 43 C-98.32 43 -99.64 43 -101 43 C-101 43.66 -101 44.32 -101 45 C-98.36 44.67 -95.72 44.34 -93 44 C-92.67 45.32 -92.34 46.64 -92 48 C-94.64 48.33 -97.28 48.66 -100 49 C-100 49.66 -100 50.32 -100 51 C-97.03 51.33 -94.06 51.66 -91 52 C-90.79246094 52.73863281 -90.58492187 53.47726563 -90.37109375 54.23828125 C-85.98909995 68.66769181 -78.2644852 79.68443543 -65 87 C-63.01438414 88.02826536 -61.0197899 89.0405998 -59 90 C-59.66 91.98 -60.32 93.96 -61 96 C-61.66 96 -62.32 96 -63 96 C-62.67 93.69 -62.34 91.38 -62 89 C-62.99 89.495 -62.99 89.495 -64 90 C-64.74664647 92.97980236 -64.74664647 92.97980236 -65 96 C-63.93354885 97.29633621 -63.93354885 97.29633621 -61.4375 97.0625 C-60.633125 97.041875 -59.82875 97.02125 -59 97 C-57.5393715 94.35261084 -57 93.10551666 -57 90 C-56.13375 90.33 -55.2675 90.66 -54.375 91 C-44.66160007 93.73312265 -34.34498747 92.35200638 -25 89 C-24.23171875 88.73316406 -23.4634375 88.46632813 -22.671875 88.19140625 C-10.25686653 83.30788019 -1.36338752 73.82367838 3.921875 61.84375 C8.2594187 50.40269271 9.22200261 36.92559958 4.2890625 25.48046875 C2.05941452 21.19008552 -0.36301456 17.05216763 -3 13 C-1.68 11.68 -0.36 10.36 1 9 C0.01 8.34 -0.98 7.68 -2 7 C-1.01 6.67 -0.02 6.34 1 6 C1 6.66 1 7.32 1 8 C1.66 8 2.32 8 3 8 C2.01 6.02 2.01 6.02 1 4 C-1.45224694 4.10613836 -1.45224694 4.10613836 -4 5 C-5.19218842 7.50091962 -5.19218842 7.50091962 -6 10 C-6.57105469 9.48050781 -7.14210938 8.96101563 -7.73046875 8.42578125 C-18.1727396 -0.55556777 -29.36845679 -4.19146062 -42.9375 -4.125 C-44.11602539 -4.13080078 -44.11602539 -4.13080078 -45.31835938 -4.13671875 C-49.65757175 -4.12945647 -53.72757542 -3.86408587 -58 -3 C-58 -4.32 -58 -5.64 -58 -7 C-58.66 -7 -59.32 -7 -60 -7 C-60 -7.99 -60 -8.98 -60 -10 C-61.32 -10 -62.64 -10 -64 -10 Z " fill="#CFB405" transform="translate(292,37)"/>
<path d="M0 0 C0.66 0.33 1.32 0.66 2 1 C5.07674951 1.52007556 8.16110179 1.9605422 11.25 2.40234375 C14 3 14 3 16 5 C16.4140625 7.8203125 16.4140625 7.8203125 16.625 11.125 C16.69976562 12.22070312 16.77453125 13.31640625 16.8515625 14.4453125 C16.90054688 15.28835937 16.94953125 16.13140625 17 17 C17.95132813 17.16435547 17.95132813 17.16435547 18.921875 17.33203125 C19.60765625 17.55246094 20.2934375 17.77289063 21 18 C22.88698167 22.05701058 23.21117043 25.56542098 23 30 C23.45890625 29.57847656 23.9178125 29.15695313 24.390625 28.72265625 C25.00421875 28.17480469 25.6178125 27.62695312 26.25 27.0625 C26.85328125 26.51722656 27.4565625 25.97195312 28.078125 25.41015625 C30.08467305 23.93787201 31.57002449 23.42470811 34 23 C33 26 33 26 30 27.875 C26.82698617 29.69149599 26.82698617 29.69149599 26.0625 32.625 C25.81311275 35.01838235 25.81311275 35.01838235 27 37 C29.31 37 31.62 37 34 37 C31.61363636 45.59090909 31.61363636 45.59090909 28 48 C26.94895617 49.63495707 25.94011682 51.29883624 25 53 C25.99 53 26.98 53 28 53 C28.66 51.68 29.32 50.36 30 49 C30.763125 49.309375 31.52625 49.61875 32.3125 49.9375 C34.18789677 50.67893593 36.08684652 51.36228217 38 52 C38 52.66 38 53.32 38 54 C37.34 54 36.68 54 36 54 C36 54.66 36 55.32 36 56 C32.66666667 56 29.33333333 56 26 56 C26 58.31 26 60.62 26 63 C26.66 63 27.32 63 28 63 C28.05422947 64.4370809 28.09289723 65.87475462 28.125 67.3125 C28.14820313 68.11300781 28.17140625 68.91351563 28.1953125 69.73828125 C28 72 28 72 26 75 C26.99 76.485 26.99 76.485 28 78 C28 78.99 28 79.98 28 81 C24.38026598 82.31626692 21.90432869 83 18 83 C16.875 77.375 16.875 77.375 18 74 C21.5625 72.8125 21.5625 72.8125 25 72 C25.33 69.69 25.66 67.38 26 65 C25.34 65 24.68 65 24 65 C23.855625 64.0925 23.71125 63.185 23.5625 62.25 C23.13590527 59.78523044 22.64925779 57.41152893 22 55 C21.01 55.495 20.02 55.99 19 56.5 C14.76148811 58.30179655 11.58962078 58.44415685 7 58 C4 56.5 4 56.5 2 55 C1.855625 55.721875 1.71125 56.44375 1.5625 57.1875 C1.04166667 59.79166667 0.52083333 62.39583333 0 65 C-0.66 65 -1.32 65 -2 65 C-2.13478935 67.87866256 -2.13478935 67.87866256 -1 71 C1.49056877 72.72687034 4.21883285 73.81732892 7 75 C9.5 76.375 9.5 76.375 11 78 C11.25 81.1875 11.25 81.1875 11 84 C8.03 83.67 5.06 83.34 2 83 C2 82.34 2 81.68 2 81 C-0.31 81 -2.62 81 -5 81 C-4.6875 79.0625 -4.6875 79.0625 -4 77 C-2.515 76.505 -2.515 76.505 -1 76 C-1 75.01 -1 74.02 -1 73 C-1.99 73 -2.98 73 -4 73 C-4.23268915 66.71739294 -3.40454548 61.11980533 -2 55 C-2.57234375 55.50144531 -3.1446875 56.00289062 -3.734375 56.51953125 C-7.35550522 58.88575255 -9.85818019 57.75933363 -14 57 C-14 56.34 -14 55.68 -14 55 C-14.99 54.34 -15.98 53.68 -17 53 C-17 52.34 -17 51.68 -17 51 C-18.32 50.67 -19.64 50.34 -21 50 C-21.28875 48.865625 -21.5775 47.73125 -21.875 46.5625 C-22.24625 45.386875 -22.6175 44.21125 -23 43 C-23.66 42.67 -24.32 42.34 -25 42 C-25.93552563 39.27055324 -26.11938941 36.75940177 -26.09765625 33.890625 C-26.09443359 33.13652344 -26.09121094 32.38242188 -26.08789062 31.60546875 C-26.07951172 30.82816406 -26.07113281 30.05085938 -26.0625 29.25 C-26.05798828 28.45722656 -26.05347656 27.66445312 -26.04882812 26.84765625 C-26.03708565 24.89840492 -26.01915146 22.94919262 -26 21 C-24.68 20.34 -23.36 19.68 -22 19 C-22 17.35 -22 15.7 -22 14 C-21.01 13.67 -20.02 13.34 -19 13 C-18.690625 13.804375 -18.38125 14.60875 -18.0625 15.4375 C-17.23664655 17.89080405 -17.23664655 17.89080405 -16 19 C-14.48834346 19.39148761 -12.96530368 19.73972457 -11.4375 20.0625 C-10.61121094 20.23910156 -9.78492188 20.41570313 -8.93359375 20.59765625 C-8.29550781 20.73042969 -7.65742188 20.86320312 -7 21 C-7 21.66 -7 22.32 -7 23 C-6.071875 23.309375 -5.14375 23.61875 -4.1875 23.9375 C-2.125 24.625 -0.0625 25.3125 2 26 C3.12516085 24.16715557 3.12516085 24.16715557 4 22 C3.67 21.01 3.34 20.02 3 19 C3.9590625 18.690625 3.9590625 18.690625 4.9375 18.375 C7.34925077 17.10461791 7.34925077 17.10461791 7.75 13.875 C7.8325 12.92625 7.915 11.9775 8 11 C7.34 11.33 6.68 11.66 6 12 C3.44842345 12.0716735 0.92527029 12.09308442 -1.625 12.0625 C-2.33140625 12.05798828 -3.0378125 12.05347656 -3.765625 12.04882812 C-5.51045275 12.03703875 -7.255237 12.01910324 -9 12 C-7.31934199 8.23408112 -5.72407321 6.8620366 -2 5 C-1.34 5 -0.68 5 0 5 C0 3.35 0 1.7 0 0 Z " fill="#979909" transform="translate(238,39)"/>
<path d="M0 0 C0 0.66 0 1.32 0 2 C2.97 2.495 2.97 2.495 6 3 C6.495 4.485 6.495 4.485 7 6 C7.68835938 6.0825 8.37671875 6.165 9.0859375 6.25 C12.72403978 7.18634804 15.53016884 8.95018232 18.625 11 C19.23819092 11.40154297 19.85138184 11.80308594 20.4831543 12.21679688 C29.92890725 18.50660614 38.1195239 25.86272631 46 34 C46.845625 34.804375 47.69125 35.60875 48.5625 36.4375 C50.88562609 38.87976076 53.16154894 41.33278073 55.375 43.875 C56.43847656 45.07769531 56.43847656 45.07769531 57.5234375 46.3046875 C59.53492694 49.97645394 58.86177183 51.95398127 58 56 C57.78337379 57.93191192 57.56680625 59.86383262 57.35375977 61.79614258 C56.65832594 67.92590559 55.74718302 73.77622117 53.78125 79.64453125 C52.92072193 82.23902338 52.24189084 84.85259115 51.5625 87.5 C50.12711632 92.85214873 48.17546676 97.90918692 46 103 C45.34 103 44.68 103 44 103 C44.0825 103.70125 44.165 104.4025 44.25 105.125 C43.91722597 108.95190131 42.19923638 110.8951957 40 114 C39.68675781 114.78375 39.37351562 115.5675 39.05078125 116.375 C37.95218284 119.11945401 36.60822099 121.48279533 35.0625 124 C34.55847656 124.825 34.05445313 125.65 33.53515625 126.5 C33.02855469 127.325 32.52195312 128.15 32 129 C31.50371094 129.886875 31.00742187 130.77375 30.49609375 131.6875 C29 134 29 134 26 136 C24.03156079 136.26245856 22.06172842 136.51903106 20.0859375 136.71875 C17.7921662 136.96615543 17.7921662 136.96615543 14.875 138 C10.18000414 139.46449412 5.29195807 139.43243927 0.4140625 139.71484375 C-2.38283754 139.94845211 -4.80528963 140.3408828 -7.5 141.0625 C-14.61636752 142.85834416 -22.91646307 142.96074512 -30 141 C-39.26034415 139.39097315 -39.26034415 139.39097315 -48.625 139 C-52.0369308 139 -53.12579151 138.57617885 -56 137 C-57.7325 136.814375 -57.7325 136.814375 -59.5 136.625 C-63.46493649 135.91697563 -64.66906508 135.22744835 -67 132 C-67.75 129.25 -67.75 129.25 -68 127 C-68.66 127 -69.32 127 -70 127 C-70.6496875 125.6696875 -70.6496875 125.6696875 -71.3125 124.3125 C-72.89179941 121.10264773 -72.89179941 121.10264773 -74.5 118.5625 C-75.72844978 116.46389829 -76.68864613 114.48179491 -77.625 112.25 C-78.67595434 109.19881062 -78.67595434 109.19881062 -80 108 C-80.04063832 106.33382885 -80.042721 104.66611905 -80 103 C-80.66 103 -81.32 103 -82 103 C-82.33773437 102.04738281 -82.67546875 101.09476562 -83.0234375 100.11328125 C-83.47390696 98.8463359 -83.92443067 97.57940984 -84.375 96.3125 C-85.03628906 94.45044922 -85.03628906 94.45044922 -85.7109375 92.55078125 C-86.47235265 90.45342862 -87.25817163 88.3642179 -88.09765625 86.296875 C-88.92867851 84.1815456 -89.53999074 82.14608958 -90.0625 79.9375 C-90.21847656 79.28652344 -90.37445313 78.63554688 -90.53515625 77.96484375 C-90.68855469 77.31644531 -90.84195313 76.66804688 -91 76 C-91.16371094 75.38511719 -91.32742187 74.77023438 -91.49609375 74.13671875 C-92.38697124 70.35912196 -92.90026004 66.51240067 -93.5 62.6796875 C-93.86517857 60.04000334 -93.86517857 60.04000334 -95 58 C-96.06220578 52.96955374 -95.75625496 49.29101265 -93.1328125 44.8125 C-89.7334383 40.26514041 -86.22716473 35.81167418 -82 32 C-81.34 32 -80.68 32 -80 32 C-79.67 31.01 -79.34 30.02 -79 29 C-77.2578125 27.17578125 -77.2578125 27.17578125 -75.125 25.3125 C-74.42632812 24.68988281 -73.72765625 24.06726563 -73.0078125 23.42578125 C-71 22 -71 22 -68 22 C-67.67 21.01 -67.34 20.02 -67 19 C-66.34 19 -65.68 19 -65 19 C-65 18.34 -65 17.68 -65 17 C-63.55053711 15.91845703 -63.55053711 15.91845703 -61.52734375 14.7578125 C-60.42422852 14.11779297 -60.42422852 14.11779297 -59.29882812 13.46484375 C-58.51958984 13.02269531 -57.74035156 12.58054687 -56.9375 12.125 C-55.80924805 11.47337891 -55.80924805 11.47337891 -54.65820312 10.80859375 C-53.16131192 9.94545129 -51.66189225 9.08667819 -50.15991211 8.23242188 C-48.76252279 7.43508704 -47.36973645 6.62960671 -45.98266602 5.81445312 C-42.63598646 3.85456298 -39.88215935 2.47056477 -36 2 C-36 1.34 -36 0.68 -36 0 C-35.27296875 -0.28488281 -34.5459375 -0.56976563 -33.796875 -0.86328125 C-32.06057816 -1.56895496 -30.33778956 -2.3102741 -28.640625 -3.10546875 C-17.77031237 -8.02552855 -10.46694514 -4.79956368 0 0 Z M-25.95703125 0.0546875 C-26.89667725 0.49925293 -27.83632324 0.94381836 -28.80444336 1.40185547 C-29.79710205 1.88799316 -30.78976074 2.37413086 -31.8125 2.875 C-33.35466187 3.62547607 -33.35466187 3.62547607 -34.92797852 4.39111328 C-53.60861145 13.63005519 -70.95780915 25.44053853 -85 41 C-85.6290625 41.66386719 -86.258125 42.32773437 -86.90625 43.01171875 C-87.4734375 43.66785156 -88.040625 44.32398438 -88.625 45 C-89.11226562 45.556875 -89.59953125 46.11375 -90.1015625 46.6875 C-91.57749067 50.48641077 -90.66032076 54.05541085 -90 58 C-89.87786133 58.75764648 -89.75572266 59.51529297 -89.62988281 60.29589844 C-88.00040881 69.82486733 -85.84535376 79.15426907 -82.9375 88.375 C-82.69233643 89.15278809 -82.44717285 89.93057617 -82.19458008 90.73193359 C-80.7855941 95.03572817 -79.11770715 98.98384327 -77 103 C-76.40904734 104.20782578 -75.82203999 105.41758717 -75.23828125 106.62890625 C-73.55693117 110.09154067 -71.79704137 113.50984345 -70.02783203 116.92822266 C-69.07026886 118.85836068 -68.22903224 120.80419245 -67.40234375 122.79296875 C-64.98360599 127.85344847 -62.64258912 131.64983446 -57.27734375 133.69140625 C-37.77398939 139.18768799 -11.49051175 137.75830447 8.33203125 134.57421875 C12 134 12 134 15.82421875 133.83203125 C20.50054832 133.40962103 24.27704688 133.02080406 27.46875 129.27734375 C30.46423801 124.82571573 32.75441005 120.05916213 34.97753906 115.18652344 C36.28087095 112.39936003 37.8133537 109.77436014 39.375 107.125 C42.35168395 101.63987451 44.20743215 95.96028811 46 90 C46.350625 88.88882813 46.70125 87.77765625 47.0625 86.6328125 C53.04033082 68.15734149 53.04033082 68.15734149 54 49 C52.38624349 46.46967788 50.93927653 44.54758727 48.9375 42.375 C48.40165283 41.77526367 47.86580566 41.17552734 47.3137207 40.55761719 C32.58309137 24.46175119 4.18884 -0.54837806 -18.35644531 -2.16943359 C-21.34945546 -1.97760232 -23.25439099 -1.23005037 -25.95703125 0.0546875 Z " fill="#000B00" transform="translate(268,9)"/>
<path d="M0 0 C0.99 0.495 0.99 0.495 2 1 C2 1.66 2 2.32 2 3 C1.34 3 0.68 3 0 3 C0 3.66 0 4.32 0 5 C4.455 4.505 4.455 4.505 9 4 C10.247638 14.97921439 3.42619731 24.68374466 -3 33 C-3.42539062 33.61359375 -3.85078125 34.2271875 -4.2890625 34.859375 C-12.19496627 45.43291501 -27.37908633 52.48346316 -40.1171875 54.6796875 C-58.01767913 56.66863101 -74.28910854 53.00588611 -88.82421875 41.828125 C-93.79318629 37.52020097 -98.77099307 32.80171164 -102 27 C-102 26.01 -102 25.02 -102 24 C-101.34 24 -100.68 24 -100 24 C-100 23.34 -100 22.68 -100 22 C-97.75 20.25 -97.75 20.25 -95 19 C-91.43823606 20.19195665 -89.91665781 22.16894274 -87.8125 25.1875 C-81.98983575 32.90966879 -74.98188193 37.58136409 -66 41 C-66.99 43.31 -67.98 45.62 -69 48 C-69.66 48 -70.32 48 -71 48 C-71 46.02 -71 44.04 -71 42 C-71.33 43.98 -71.66 45.96 -72 48 C-70.35 48 -68.7 48 -67 48 C-66.34 46.02 -65.68 44.04 -65 42 C-64.13375 42.165 -63.2675 42.33 -62.375 42.5 C-52.25321736 43.89328182 -42.63011708 43.46385607 -33 40 C-32.22011719 39.7215625 -31.44023437 39.443125 -30.63671875 39.15625 C-18.58505352 34.32725806 -10.16445147 25.64235824 -5.09765625 13.86328125 C-3.71589629 10.25890384 -2.58848411 6.62266818 -1.578125 2.8984375 C-1 1 -1 1 0 0 Z " fill="#F1CF01" transform="translate(300,85)"/>
<path d="M0 0 C0.495 4.455 0.495 4.455 1 9 C-2.44450737 11.29633824 -4.93812283 11.54016485 -9 12 C-8.67 10.35 -8.34 8.7 -8 7 C-8.66 7 -9.32 7 -10 7 C-10 6.01 -10 5.02 -10 4 C-11.32 4.33 -12.64 4.66 -14 5 C-14 5.66 -14 6.32 -14 7 C-12.68 7.33 -11.36 7.66 -10 8 C-10 8.66 -10 9.32 -10 10 C-10.99 10 -11.98 10 -13 10 C-13 10.66 -13 11.32 -13 12 C-12.34 12.33 -11.68 12.66 -11 13 C-12.10408203 13.68835938 -12.10408203 13.68835938 -13.23046875 14.390625 C-14.20628906 15.00421875 -15.18210938 15.6178125 -16.1875 16.25 C-17.15042969 16.85328125 -18.11335938 17.4565625 -19.10546875 18.078125 C-23.64324462 21.0910612 -27.35402016 24.11521266 -30.6875 28.4375 C-31.26886719 29.17871094 -31.85023438 29.91992188 -32.44921875 30.68359375 C-34.04209326 33.06287483 -34.99189674 35.32873904 -36 38 C-37.26182389 40.38088669 -38.63304501 42.67617651 -40 45 C-40.99 45 -41.98 45 -43 45 C-43.33 45.66 -43.66 46.32 -44 47 C-44 46.01 -44 45.02 -44 44 C-44.66 44 -45.32 44 -46 44 C-46 44.99 -46 45.98 -46 47 C-46.66 47 -47.32 47 -48 47 C-48.33 47.66 -48.66 48.32 -49 49 C-46.36 49.33 -43.72 49.66 -41 50 C-41 51.65 -41 53.3 -41 55 C-43.97 54.34 -46.94 53.68 -50 53 C-50 53.66 -50 54.32 -50 55 C-49.01 55 -48.02 55 -47 55 C-47 55.66 -47 56.32 -47 57 C-48.32 57 -49.64 57 -51 57 C-51 57.66 -51 58.32 -51 59 C-48.03 58.34 -45.06 57.68 -42 57 C-42 58.65 -42 60.3 -42 62 C-44.64 62.33 -47.28 62.66 -50 63 C-50 63.66 -50 64.32 -50 65 C-47.03 65 -44.06 65 -41 65 C-39 70.33333333 -37 75.66666667 -35 81 C-39.75 84 -39.75 84 -42 84 C-42 84.66 -42 85.32 -42 86 C-43.485 86.495 -43.485 86.495 -45 87 C-45.61000081 85.6902013 -46.21257432 84.37694391 -46.8125 83.0625 C-47.31716797 81.96615234 -47.31716797 81.96615234 -47.83203125 80.84765625 C-51.07159238 72.94919449 -52.52738067 66.3407376 -52.4375 57.75 C-52.42992676 56.73655518 -52.42235352 55.72311035 -52.41455078 54.67895508 C-52.03435909 37.34415665 -44.87370542 25.30547653 -33 13 C-32.29875 12.26523437 -31.5975 11.53046875 -30.875 10.7734375 C-28.69645144 8.71289365 -26.78933958 8.06260555 -24 7 C-22.6078125 6.0409375 -22.6078125 6.0409375 -21.1875 5.0625 C-14.07422639 0.45979355 -8.43206271 -0.35133595 0 0 Z " fill="#E0C104" transform="translate(242,23)"/>
<path d="M0 0 C0.66 0 1.32 0 2 0 C2.309375 0.804375 2.61875 1.60875 2.9375 2.4375 C3.76335345 4.89080405 3.76335345 4.89080405 5 6 C6.51165654 6.39148761 8.03469632 6.73972457 9.5625 7.0625 C10.38878906 7.23910156 11.21507812 7.41570313 12.06640625 7.59765625 C12.70449219 7.73042969 13.34257812 7.86320312 14 8 C13.01 8.495 13.01 8.495 12 9 C14.40063299 12.60094948 16.37554233 13.26786647 20.22265625 14.9375 C22 16 22 16 23 19 C22.34 19 21.68 19 21 19 C20.34 22.63 19.68 26.26 19 30 C17.68 30.33 16.36 30.66 15 31 C15 31.66 15 32.32 15 33 C16.98 32.505 16.98 32.505 19 32 C19.66 32.99 20.32 33.98 21 35 C21.33 35 21.66 35 22 35 C22 36.65 22 38.3 22 40 C21.34 40 20.68 40 20 40 C20 39.34 20 38.68 20 38 C19.01 38 18.02 38 17 38 C17 37.34 17 36.68 17 36 C16.34 36 15.68 36 15 36 C15 35.34 15 34.68 15 34 C13.906875 34.66 12.81375 35.32 11.6875 36 C9.06292462 37.58464929 8.1743622 38 5 38 C4.67 38.66 4.34 39.32 4 40 C4 39.34 4 38.68 4 38 C2.68 37.67 1.36 37.34 0 37 C-0.28875 35.865625 -0.5775 34.73125 -0.875 33.5625 C-1.24625 32.386875 -1.6175 31.21125 -2 30 C-2.66 29.67 -3.32 29.34 -4 29 C-4.93552563 26.27055324 -5.11938941 23.75940177 -5.09765625 20.890625 C-5.09443359 20.13652344 -5.09121094 19.38242188 -5.08789062 18.60546875 C-5.07951172 17.82816406 -5.07113281 17.05085938 -5.0625 16.25 C-5.05798828 15.45722656 -5.05347656 14.66445312 -5.04882812 13.84765625 C-5.03708565 11.89840492 -5.01915146 9.94919262 -5 8 C-3.68 7.34 -2.36 6.68 -1 6 C-1.020625 5.195625 -1.04125 4.39125 -1.0625 3.5625 C-1 1 -1 1 0 0 Z " fill="#5A9008" transform="translate(217,52)"/>
<path d="M0 0 C3.23087421 0.55704728 5.02361137 1.33187535 7 4 C7 5.32 7 6.64 7 8 C7.45890625 7.57847656 7.9178125 7.15695313 8.390625 6.72265625 C9.00421875 6.17480469 9.6178125 5.62695312 10.25 5.0625 C10.85328125 4.51722656 11.4565625 3.97195312 12.078125 3.41015625 C14.08467305 1.93787201 15.57002449 1.42470811 18 1 C17 4 17 4 14 5.875 C10.82698617 7.69149599 10.82698617 7.69149599 10.0625 10.625 C9.81311275 13.01838235 9.81311275 13.01838235 11 15 C13.31 15 15.62 15 18 15 C15.61363636 23.59090909 15.61363636 23.59090909 12 26 C10.94895617 27.63495707 9.94011682 29.29883624 9 31 C9.99 31 10.98 31 12 31 C12.66 29.68 13.32 28.36 14 27 C15.1446875 27.4640625 15.1446875 27.4640625 16.3125 27.9375 C18.18789677 28.67893593 20.08684652 29.36228217 22 30 C22 30.66 22 31.32 22 32 C21.34 32 20.68 32 20 32 C20 32.66 20 33.32 20 34 C16.66666667 34 13.33333333 34 10 34 C10 36.31 10 38.62 10 41 C10.66 41 11.32 41 12 41 C12.05422947 42.4370809 12.09289723 43.87475462 12.125 45.3125 C12.14820313 46.11300781 12.17140625 46.91351563 12.1953125 47.73828125 C12 50 12 50 10 53 C10.66 53.99 11.32 54.98 12 56 C12 56.99 12 57.98 12 59 C8.38026598 60.31626692 5.90432869 61 2 61 C0.875 55.375 0.875 55.375 2 52 C5.5625 50.8125 5.5625 50.8125 9 50 C9.33 47.69 9.66 45.38 10 43 C9.34 43 8.68 43 8 43 C7.855625 42.0925 7.71125 41.185 7.5625 40.25 C7.14089532 37.81406186 6.5995854 35.39834161 6 33 C3.03 33.99 0.06 34.98 -3 36 C-3 32.04 -3 28.08 -3 24 C-1.35 24.99 0.3 25.98 2 27 C2 26.34 2 25.68 2 25 C0.68 24.34 -0.64 23.68 -2 23 C-1.42647107 19.12867972 0.48704352 16.91827204 3 14 C0.03 16.475 0.03 16.475 -3 19 C-3.08117951 16.58265458 -3.14056926 14.16805051 -3.1875 11.75 C-3.21263672 11.06808594 -3.23777344 10.38617188 -3.26367188 9.68359375 C-3.31137459 6.40800711 -3.21085076 4.34651444 -1.48828125 1.515625 C-0.99714844 1.01546875 -0.50601563 0.5153125 0 0 Z " fill="#C0B506" transform="translate(254,61)"/>
<path d="M0 0 C0.66 0 1.32 0 2 0 C2 1.32 2 2.64 2 4 C2.66 4 3.32 4 4 4 C5.3734106 10.52370037 5.87567019 17.53935825 4 24 C3.34 24 2.68 24 2 24 C1.67 26.97 1.34 29.94 1 33 C-0.32 33 -1.64 33 -3 33 C-3.33 34.32 -3.66 35.64 -4 37 C-4.66 37 -5.32 37 -6 37 C-6.33 37.66 -6.66 38.32 -7 39 C-7.928125 38.484375 -8.85625 37.96875 -9.8125 37.4375 C-12.92757947 35.59903754 -12.92757947 35.59903754 -16 37 C-16.33 37.66 -16.66 38.32 -17 39 C-17.99 39 -18.98 39 -20 39 C-19.47557578 35.2241456 -18.67345333 32.77627845 -16 30 C-15.01 30 -14.02 30 -13 30 C-13 29.34 -13 28.68 -13 28 C-14.65 28 -16.3 28 -18 28 C-17.67 27.01 -17.34 26.02 -17 25 C-15.02 25 -13.04 25 -11 25 C-11 24.34 -11 23.68 -11 23 C-13.31 23.33 -15.62 23.66 -18 24 C-20 21 -20 21 -19.9375 18.5625 C-18.50148429 14.63739038 -15.65577501 12.8278875 -12 11 C-12 10.01 -12 9.02 -12 8 C-11.34 8 -10.68 8 -10 8 C-10 7.34 -10 6.68 -10 6 C-8.3603125 5.62875 -8.3603125 5.62875 -6.6875 5.25 C-2.84718899 3.94819966 -2.07513001 3.27652107 0 0 Z " fill="#7D9D08" transform="translate(283,53)"/>
<path d="M0 0 C0.495 4.455 0.495 4.455 1 9 C-2.44450737 11.29633824 -4.93812283 11.54016485 -9 12 C-8.67 10.35 -8.34 8.7 -8 7 C-8.66 7 -9.32 7 -10 7 C-10 6.01 -10 5.02 -10 4 C-11.32 4.33 -12.64 4.66 -14 5 C-14 5.66 -14 6.32 -14 7 C-12.68 7.33 -11.36 7.66 -10 8 C-10 8.66 -10 9.32 -10 10 C-10.99 10 -11.98 10 -13 10 C-13 10.66 -13 11.32 -13 12 C-12.34 12.33 -11.68 12.66 -11 13 C-11.73605469 13.45890625 -12.47210938 13.9178125 -13.23046875 14.390625 C-14.20628906 15.00421875 -15.18210938 15.6178125 -16.1875 16.25 C-17.15042969 16.85328125 -18.11335938 17.4565625 -19.10546875 18.078125 C-23.12882571 20.74950371 -26.79409169 23.45542955 -29.8125 27.25 C-30.534375 28.1575 -31.25625 29.065 -32 30 C-32.37125 29.54625 -32.7425 29.0925 -33.125 28.625 C-35.54264685 26.52970606 -37.95430602 25.87986715 -41 25 C-40.60563724 20.07942832 -38.16000531 17.58450249 -34.75 14.3125 C-34.03263672 13.58450195 -34.03263672 13.58450195 -33.30078125 12.84179688 C-30.38291339 9.97532777 -27.85216308 8.31220395 -24 7 C-22.6078125 6.0409375 -22.6078125 6.0409375 -21.1875 5.0625 C-14.07422639 0.45979355 -8.43206271 -0.35133595 0 0 Z " fill="#DDBE04" transform="translate(242,23)"/>
<path d="M0 0 C0.66 0.33 1.32 0.66 2 1 C8.35692906 3.11897635 13.83990074 2.05336642 20 0 C23.07692308 5.41538462 23.07692308 5.41538462 22.6875 8.375 C22.460625 8.91125 22.23375 9.4475 22 10 C22.66 10 23.32 10 24 10 C24.1875 13.375 24.1875 13.375 24 17 C20.98810728 19.00792848 18.41778932 19.88398716 15 21 C14.319375 21.391875 13.63875 21.78375 12.9375 22.1875 C10.23797352 23.31955949 8.75469741 22.89527666 6 22 C4.64082143 21.03542166 3.30915279 20.03145371 2 19 C0.01549844 17.96958573 -1.98199105 16.96314063 -4 16 C-4 14.02 -4 12.04 -4 10 C-3.34 10 -2.68 10 -2 10 C-2.33 9.01 -2.66 8.02 -3 7 C-2.07796291 4.63477442 -1.08301035 2.29598193 0 0 Z " fill="#B2A00B" transform="translate(240,94)"/>
<path d="M0 0 C2.475 0.495 2.475 0.495 5 1 C4.49396008 3.16874252 4.00016187 4.99967627 3 7 C3.20625 7.763125 3.4125 8.52625 3.625 9.3125 C4 12 4 12 3.0625 14.6875 C0.06208842 18.05159783 -2.61179715 18.20868473 -7 19 C-6.39671875 19.02578125 -5.7934375 19.0515625 -5.171875 19.078125 C-1.36196476 19.34850573 1.33681524 19.58945706 4.625 21.625 C6 24 6 24 6.125 27.5625 C5 31 5 31 2.5 32.9375 C-2.94331034 34.5899335 -7.65898258 34.92665273 -13 32.8125 C-15.45369859 30.58883565 -15.83219367 29.27222344 -16 26 C-15.67 25.34 -15.34 24.68 -15 24 C-14.34 24 -13.68 24 -13 24 C-13.185625 23.2575 -13.37125 22.515 -13.5625 21.75 C-14 19 -14 19 -13.5 17.125 C-12.7881342 14.7846695 -12.7881342 14.7846695 -13.75 11.5625 C-14 8 -14 8 -12.0625 5.125 C-8.15733052 2.41529056 -5.68294905 2.39024575 -1 2 C-0.67 1.34 -0.34 0.68 0 0 Z M-7 8 C-7.33 8.99 -7.66 9.98 -8 11 C-7.67 11.66 -7.34 12.32 -7 13 C-5.68 13 -4.36 13 -3 13 C-2.67 11.68 -2.34 10.36 -2 9 C-3.65 8.67 -5.3 8.34 -7 8 Z M-9 25 C-9 25.99 -9 26.98 -9 28 C-7.87465895 29.35618499 -7.87465895 29.35618499 -4.9375 29.0625 C-3.968125 29.041875 -2.99875 29.02125 -2 29 C-2 27.68 -2 26.36 -2 25 C-4.31 25 -6.62 25 -9 25 Z " fill="#E1E1E1" transform="translate(347,162)"/>
<path d="M0 0 C13 0 13 0 18 2 C19.875 4.25 19.875 4.25 21 7 C20.6875 10.3125 20.6875 10.3125 20 13 C19.01 13.33 18.02 13.66 17 14 C17.3609375 14.91523438 17.721875 15.83046875 18.09375 16.7734375 C18.5578125 17.96195313 19.021875 19.15046875 19.5 20.375 C19.9640625 21.55835938 20.428125 22.74171875 20.90625 23.9609375 C22 27 22 27 22 29 C19.69 29 17.38 29 15 29 C14.76925781 28.28972656 14.53851563 27.57945312 14.30078125 26.84765625 C13.97464844 25.92855469 13.64851563 25.00945312 13.3125 24.0625 C12.99925781 23.14597656 12.68601562 22.22945312 12.36328125 21.28515625 C11.91339844 20.53105469 11.46351563 19.77695313 11 19 C9.35 18.67 7.7 18.34 6 18 C6 21.63 6 25.26 6 29 C4.02 29 2.04 29 0 29 C0 19.43 0 9.86 0 0 Z M6 6 C6 7.98 6 9.96 6 12 C8.31 12 10.62 12 13 12 C13.38218767 10.34385343 13.71395102 8.67542976 14 7 C12.81575674 5.58422523 12.81575674 5.58422523 9.4375 5.9375 C7.7359375 5.9684375 7.7359375 5.9684375 6 6 Z " fill="#E7E7E7" transform="translate(408,158)"/>
<path d="M0 0 C2.38119207 1.57369726 3.58534978 3.18972401 5.21484375 5.52734375 C11.037508 13.24951254 18.04546182 17.92120784 27.02734375 21.33984375 C26.03734375 23.64984375 25.04734375 25.95984375 24.02734375 28.33984375 C23.36734375 28.33984375 22.70734375 28.33984375 22.02734375 28.33984375 C22.02734375 26.35984375 22.02734375 24.37984375 22.02734375 22.33984375 C21.36734375 24.64984375 20.70734375 26.95984375 20.02734375 29.33984375 C9.37421739 28.11966188 1.03984725 20.51300327 -5.5078125 12.44921875 C-8.97265625 7.85516408 -8.97265625 7.85516408 -8.97265625 4.33984375 C-8.31265625 4.33984375 -7.65265625 4.33984375 -6.97265625 4.33984375 C-6.97265625 3.67984375 -6.97265625 3.01984375 -6.97265625 2.33984375 C-2.77170688 -0.92756131 -2.77170688 -0.92756131 0 0 Z " fill="#F3D001" transform="translate(206.97265625,104.66015625)"/>
<path d="M0 0 C0.66 0.33 1.32 0.66 2 1 C5.07674951 1.52007556 8.16110179 1.9605422 11.25 2.40234375 C14 3 14 3 16 5 C16.4140625 7.8203125 16.4140625 7.8203125 16.625 11.125 C16.69976562 12.22070312 16.77453125 13.31640625 16.8515625 14.4453125 C16.92503906 15.70988281 16.92503906 15.70988281 17 17 C18.32 17.33 19.64 17.66 21 18 C21.66 20.64 22.32 23.28 23 26 C20.69 24.68 18.38 23.36 16 22 C13.62409858 25.70416126 13.79499714 28.92984573 13.875 33.25 C13.90207031 35.14492187 13.90207031 35.14492187 13.9296875 37.078125 C13.95289063 38.04234375 13.97609375 39.0065625 14 40 C14.45375 39.34 14.9075 38.68 15.375 38 C15.91125 37.34 16.4475 36.68 17 36 C17.66 36 18.32 36 19 36 C17.84826645 38.46800047 16.95216435 40.04783565 15 42 C15.16666667 44.08333333 15.16666667 44.08333333 16 46 C16.66 46.33 17.32 46.66 18 47 C18 47.66 18 48.32 18 49 C16.68 48.34 15.36 47.68 14 47 C13.67 50.63 13.34 54.26 13 58 C12.67 58 12.34 58 12 58 C12.01160156 57.030625 12.02320313 56.06125 12.03515625 55.0625 C12.67822239 38.79174049 12.67822239 38.79174049 10 23 C8.02 22.67 6.04 22.34 4 22 C3.67 21.01 3.34 20.02 3 19 C3.639375 18.79375 4.27875 18.5875 4.9375 18.375 C7.34925077 17.10461791 7.34925077 17.10461791 7.75 13.875 C7.8325 12.92625 7.915 11.9775 8 11 C7.01 11.495 7.01 11.495 6 12 C3.44842345 12.0716735 0.92527029 12.09308442 -1.625 12.0625 C-2.33140625 12.05798828 -3.0378125 12.05347656 -3.765625 12.04882812 C-5.51045275 12.03703875 -7.255237 12.01910324 -9 12 C-7.31934199 8.23408112 -5.72407321 6.8620366 -2 5 C-1.34 5 -0.68 5 0 5 C0 3.35 0 1.7 0 0 Z " fill="#5D9406" transform="translate(238,39)"/>
<path d="M0 0 C1.98 0 3.96 0 6 0 C6.01458252 0.59014893 6.02916504 1.18029785 6.04418945 1.78833008 C6.11868844 4.46371229 6.21533995 7.13784892 6.3125 9.8125 C6.33505859 10.74126953 6.35761719 11.67003906 6.38085938 12.62695312 C6.41630859 13.51962891 6.45175781 14.41230469 6.48828125 15.33203125 C6.51446533 16.15421143 6.54064941 16.9763916 6.56762695 17.82348633 C7.09286313 20.46746179 7.83856897 21.42055489 10 23 C13.31818985 22.75794651 13.31818985 22.75794651 16 21 C16.15686249 19.44051458 16.25076639 17.87457332 16.31640625 16.30859375 C16.35830078 15.36435547 16.40019531 14.42011719 16.44335938 13.44726562 C16.48267578 12.45404297 16.52199219 11.46082031 16.5625 10.4375 C16.60568359 9.44041016 16.64886719 8.44332031 16.69335938 7.41601562 C16.79980298 4.9441585 16.90181928 2.4721969 17 0 C18.98 0 20.96 0 23 0 C23.14553599 3.89543877 23.23415059 7.79017651 23.3125 11.6875 C23.35439453 12.79029297 23.39628906 13.89308594 23.43945312 15.02929688 C23.56215498 23.1521597 23.56215498 23.1521597 20.85546875 27.234375 C16.03830869 30.21297466 11.47481504 29.84053177 6 29 C2.92634214 27.19196596 1.56980268 26.13960536 0 23 C-0.08449628 21.2595583 -0.10723024 19.51590278 -0.09765625 17.7734375 C-0.09443359 16.7421875 -0.09121094 15.7109375 -0.08789062 14.6484375 C-0.07951172 13.56820312 -0.07113281 12.48796875 -0.0625 11.375 C-0.05798828 10.28703125 -0.05347656 9.1990625 -0.04882812 8.078125 C-0.03701776 5.38536211 -0.02054778 2.69270812 0 0 Z " fill="#ECECEC" transform="translate(7,158)"/>
<path d="M0 0 C15.03571429 0 15.03571429 0 19 3 C20.72074894 5.02000962 21.00283318 6.30020413 20.9921875 8.9296875 C20.7276215 12.0699709 20.46896773 14.33918184 18.625 16.9375 C15.71147459 18.84249738 13.18939713 19.11785897 9.8125 19.0625 C7.9253125 19.0315625 7.9253125 19.0315625 6 19 C6 22.3 6 25.6 6 29 C4.02 29 2.04 29 0 29 C0 19.43 0 9.86 0 0 Z M6 6 C6 8.31 6 10.62 6 13 C8.33294775 13.04241723 10.66702567 13.04092937 13 13 C14.28322547 11.9404123 14.28322547 11.9404123 14.125 9.5 C14.28322547 7.0595877 14.28322547 7.0595877 13 6 C10.66702567 5.95907063 8.33294775 5.95758277 6 6 Z " fill="#E9E9E9" transform="translate(230,158)"/>
<path d="M0 0 C2.31 0 4.62 0 7 0 C8.32 3.63 9.64 7.26 11 11 C12.66832577 8.49751135 13.62381674 6.58850813 14.625 3.8125 C14.88539063 3.09707031 15.14578125 2.38164062 15.4140625 1.64453125 C15.60742188 1.10183594 15.80078125 0.55914062 16 0 C18.31 0 20.62 0 23 0 C21.92586965 3.1698619 20.83900426 6.33522028 19.75 9.5 C19.44964844 10.386875 19.14929688 11.27375 18.83984375 12.1875 C14.2229124 25.54713115 14.2229124 25.54713115 10.1875 30 C7.08358804 31.41893118 4.3628181 31.19400874 1 31 C-0.125 27.25 -0.125 27.25 1 25 C4.0625 24.375 4.0625 24.375 7 24 C6.36539424 18.891022 4.81222829 14.49989163 2.9375 9.75 C0 2.24828375 0 2.24828375 0 0 Z " fill="#E0E0E0" transform="translate(452,165)"/>
<path d="M0 0 C1.98 0 3.96 0 6 0 C6.33 4.62 6.66 9.24 7 14 C7.70125 13.01 8.4025 12.02 9.125 11 C11.32959535 8.30900395 11.64418661 8.04028076 15.3125 7.625 C16.199375 7.74875 17.08625 7.8725 18 8 C17.55838748 10.9808845 16.87979989 12.1414119 14.875 14.5 C12.74605089 16.74159826 12.74605089 16.74159826 13.22265625 18.9296875 C14.06321668 21.16836603 15.10294759 22.73714588 16.5625 24.625 C19 27.78753541 19 27.78753541 19 30 C15.8125 30.4375 15.8125 30.4375 12 30 C9.88841619 27.91454966 8.43260857 25.58793807 7 23 C6.67 25.31 6.34 27.62 6 30 C4.02 30 2.04 30 0 30 C0 20.1 0 10.2 0 0 Z " fill="#E1E1E1" transform="translate(355,157)"/>
<path d="M0 0 C3.0625 1.4375 3.0625 1.4375 5 4 C5.40842391 7.12229332 5.23330251 9.82708593 5 13 C0.71 13 -3.58 13 -8 13 C-7.01 14.485 -7.01 14.485 -6 16 C-2.91634129 16.2502157 -2.91634129 16.2502157 0 16 C0 15.34 0 14.68 0 14 C1.65 14.66 3.3 15.32 5 16 C4.6875 17.875 4.6875 17.875 4 20 C-0.25451655 22.83634436 -4.00822671 22.74836793 -9 22 C-12.20801077 19.97044217 -13.55160311 18.53413779 -14.62109375 14.875 C-15.45781567 9.76840849 -14.99485047 6.38531676 -12 2 C-7.94865545 -0.70089637 -4.75314702 -0.64096729 0 0 Z M-6 5 C-6.99 6.485 -6.99 6.485 -8 8 C-5.69 8 -3.38 8 -1 8 C-1.33 7.01 -1.66 6.02 -2 5 C-3.32 5 -4.64 5 -6 5 Z " fill="#E1E1E1" transform="translate(107,165)"/>
<path d="M0 0 C3 2 3 2 4 5 C4.068991 7.06145107 4.08467727 9.12501401 4.0625 11.1875 C4.05347656 12.27417969 4.04445312 13.36085937 4.03515625 14.48046875 C4.02355469 15.31191406 4.01195312 16.14335937 4 17 C4.66 17 5.32 17 6 17 C6 18.65 6 20.3 6 22 C3 22 0 22 -3 22 C-3.7115625 22.05800781 -4.423125 22.11601562 -5.15625 22.17578125 C-7.51526751 22.3133906 -9.66018713 22.34294103 -12 22 C-14.1875 19.875 -14.1875 19.875 -15 17 C-14.625 13.875 -14.625 13.875 -13 11 C-9.47489789 9.07721703 -7.02580163 8 -3 8 C-3 7.01 -3 6.02 -3 5 C-7.455 6.485 -7.455 6.485 -12 8 C-12.66 6.35 -13.32 4.7 -14 3 C-9.60712647 -0.40093434 -5.36955158 -0.77426118 0 0 Z M-8 14 C-8 14.99 -8 15.98 -8 17 C-6.35 16.67 -4.7 16.34 -3 16 C-2.67 14.68 -2.34 13.36 -2 12 C-4.46278801 12 -5.85224119 12.85452863 -8 14 Z " fill="#E3E3E3" transform="translate(192,165)"/>
<path d="M0 0 C3 2 3 2 4 5 C4.068991 7.06145107 4.08467727 9.12501401 4.0625 11.1875 C4.05347656 12.27417969 4.04445313 13.36085937 4.03515625 14.48046875 C4.02355469 15.31191406 4.01195312 16.14335937 4 17 C4.66 17 5.32 17 6 17 C6.5625 18.9375 6.5625 18.9375 7 21 C6 22 6 22 3.125 22.0625 C1.578125 22.0315625 1.578125 22.0315625 0 22 C-1.73062746 22 -3.46166893 22.01481291 -5.19140625 22.0703125 C-6.36509766 22.09738281 -6.36509766 22.09738281 -7.5625 22.125 C-8.34753906 22.14820313 -9.13257813 22.17140625 -9.94140625 22.1953125 C-12 22 -12 22 -14 20 C-14.27907699 17.0696916 -14.46166774 14.8459771 -14 12 C-11.19188741 8.63026489 -7.14213956 8.03553489 -3 7 C-5.78823655 5.9673198 -6.8677274 5.95490707 -9.75 6.9375 C-10.86375 7.4634375 -10.86375 7.4634375 -12 8 C-12.66 6.35 -13.32 4.7 -14 3 C-9.60712647 -0.40093434 -5.36955158 -0.77426118 0 0 Z M-8 14 C-8 14.99 -8 15.98 -8 17 C-6.35 16.67 -4.7 16.34 -3 16 C-2.67 14.68 -2.34 13.36 -2 12 C-4.46278801 12 -5.85224119 12.85452863 -8 14 Z " fill="#E3E3E3" transform="translate(446,165)"/>
<path d="M0 0 C2.26171875 1.60546875 2.26171875 1.60546875 4 4 C4.390625 7.234375 4.390625 7.234375 4.25 10.75 C4.21390625 11.92046875 4.1778125 13.0909375 4.140625 14.296875 C4.07101562 15.63492188 4.07101562 15.63492188 4 17 C4.66 17 5.32 17 6 17 C6.33 18.65 6.66 20.3 7 22 C3.66666667 22 0.33333333 22 -3 22 C-3.9590625 22.05220703 -3.9590625 22.05220703 -4.9375 22.10546875 C-10.39303483 22.32245025 -10.39303483 22.32245025 -13 20.9375 C-14.60318593 17.83132725 -14.42751128 15.42009021 -14 12 C-11.13070364 8.67161622 -7.15143359 8.0378584 -3 7 C-5.78823655 5.9673198 -6.8677274 5.95490707 -9.75 6.9375 C-10.86375 7.4634375 -10.86375 7.4634375 -12 8 C-12.66 6.35 -13.32 4.7 -14 3 C-9.75752453 -0.28449714 -5.21621138 -1.18507844 0 0 Z M-8 14 C-8 14.99 -8 15.98 -8 17 C-6.35 17 -4.7 17 -3 17 C-2.67 15.35 -2.34 13.7 -2 12 C-4.08428209 12 -6.09817964 13.21976601 -8 14 Z " fill="#E3E3E3" transform="translate(389,165)"/>
<path d="M0 0 C2.26171875 1.60546875 2.26171875 1.60546875 4 4 C4.390625 7.234375 4.390625 7.234375 4.25 10.75 C4.21390625 11.92046875 4.1778125 13.0909375 4.140625 14.296875 C4.07101562 15.63492188 4.07101562 15.63492188 4 17 C4.99 17.33 5.98 17.66 7 18 C7 19.32 7 20.64 7 22 C3.66666667 22 0.33333333 22 -3 22 C-3.9590625 22.05220703 -3.9590625 22.05220703 -4.9375 22.10546875 C-10.39303483 22.32245025 -10.39303483 22.32245025 -13 20.9375 C-14.60318593 17.83132725 -14.42751128 15.42009021 -14 12 C-11.13070364 8.67161622 -7.15143359 8.0378584 -3 7 C-5.78823655 5.9673198 -6.8677274 5.95490707 -9.75 6.9375 C-10.86375 7.4634375 -10.86375 7.4634375 -12 8 C-12.66 6.35 -13.32 4.7 -14 3 C-9.75752453 -0.28449714 -5.21621138 -1.18507844 0 0 Z M-8 14 C-8 14.99 -8 15.98 -8 17 C-6.35 17 -4.7 17 -3 17 C-2.67 15.35 -2.34 13.7 -2 12 C-4.08428209 12 -6.09817964 13.21976601 -8 14 Z " fill="#E3E3E3" transform="translate(300,165)"/>
<path d="M0 0 C1.79296875 1.07421875 1.79296875 1.07421875 3 3 C3.29296875 6.35546875 3.29296875 6.35546875 3.1875 10.1875 C3.16042969 11.45980469 3.13335937 12.73210937 3.10546875 14.04296875 C3.07066406 15.01878906 3.03585937 15.99460938 3 17 C3.99 17 4.98 17 6 17 C6 18.65 6 20.3 6 22 C2.66666667 22 -0.66666667 22 -4 22 C-4.9590625 22.05220703 -4.9590625 22.05220703 -5.9375 22.10546875 C-11.4245283 22.32370283 -11.4245283 22.32370283 -14 20.875 C-15.504106 18.05480125 -15.44912849 16.14389944 -15 13 C-12.14916368 8.8947957 -8.73931075 8.0936871 -4 7 C-6.78823655 5.9673198 -7.8677274 5.95490707 -10.75 6.9375 C-11.86375 7.4634375 -11.86375 7.4634375 -13 8 C-13.66 6.35 -14.32 4.7 -15 3 C-10.51424062 -0.58860751 -5.53376174 -0.95668423 0 0 Z M-4 12 C-5.65 12.66 -7.3 13.32 -9 14 C-8.67 14.99 -8.34 15.98 -8 17 C-6.35 16.67 -4.7 16.34 -3 16 C-3.33 14.68 -3.66 13.36 -4 12 Z " fill="#E5E5E5" transform="translate(267,165)"/>
<path d="M0 0 C0.86625 -0.01675781 1.7325 -0.03351563 2.625 -0.05078125 C5 0.3125 5 0.3125 6.80078125 1.3828125 C8.66001243 4.37453955 8.28305517 7.02816209 8.1875 10.5 C8.16042969 11.77230469 8.13335937 13.04460937 8.10546875 14.35546875 C8.07066406 15.33128906 8.03585937 16.30710938 8 17.3125 C8.99 17.3125 9.98 17.3125 11 17.3125 C11 18.9625 11 20.6125 11 22.3125 C7.66666667 22.3125 4.33333333 22.3125 1 22.3125 C0.0409375 22.36470703 0.0409375 22.36470703 -0.9375 22.41796875 C-6.4245283 22.63620283 -6.4245283 22.63620283 -9 21.1875 C-10.504106 18.36730125 -10.44912849 16.45639944 -10 13.3125 C-8.29781752 10.68830202 -7.02875145 9.54612867 -3.953125 8.84765625 C-1.9772303 8.59191101 0.01203595 8.44503094 2 8.3125 C1.67 7.6525 1.34 6.9925 1 6.3125 C-1.76276177 6.83518466 -4.3260876 7.42119587 -7 8.3125 C-7.66 7.6525 -8.32 6.9925 -9 6.3125 C-8.8125 4.3125 -8.8125 4.3125 -8 2.3125 C-4.78169935 0.16696623 -3.73213493 0.01666132 0 0 Z M1 12.3125 C-0.65 12.9725 -2.3 13.6325 -4 14.3125 C-3.67 15.3025 -3.34 16.2925 -3 17.3125 C-1.35 16.9825 0.3 16.6525 2 16.3125 C1.67 14.9925 1.34 13.6725 1 12.3125 Z " fill="#E5E5E5" transform="translate(485,164.6875)"/>
<path d="M0 0 C3 0 6 0 9 0 C10.7015625 -0.12375 10.7015625 -0.12375 12.4375 -0.25 C16 0 16 0 18.20703125 1.4375 C20.88512957 5.26502179 20.4348035 8.70099065 20.25 13.25 C20.23195313 14.09046875 20.21390625 14.9309375 20.1953125 15.796875 C20.14830798 17.86507395 20.07656724 19.93268441 20 22 C18.02 22 16.04 22 14 22 C13.67 17.05 13.34 12.1 13 7 C11.68 6.67 10.36 6.34 9 6 C6.96780512 9.40351338 6.63108961 12.3232927 6.375 16.25 C6.30023438 17.32765625 6.22546875 18.4053125 6.1484375 19.515625 C6.09945313 20.33546875 6.05046875 21.1553125 6 22 C4.02 22 2.04 22 0 22 C0 14.74 0 7.48 0 0 Z " fill="#DFDFDF" transform="translate(309,165)"/>
<path d="M0 0 C2.66666667 0 5.33333333 0 8 0 C10.00920983 -0.09567666 12.01841389 -0.1915835 14.02734375 -0.29296875 C16.64755409 0.0961714 17.36873384 0.94221798 19 3 C19.34057617 5.0847168 19.34057617 5.0847168 19.29296875 7.44921875 C19.28330078 8.29677734 19.27363281 9.14433594 19.26367188 10.01757812 C19.23853516 10.89865234 19.21339844 11.77972656 19.1875 12.6875 C19.16719727 14.02651367 19.16719727 14.02651367 19.14648438 15.39257812 C19.11114079 17.59566166 19.06180493 19.79752582 19 22 C17.02 22 15.04 22 13 22 C12.67 16.72 12.34 11.44 12 6 C10.35 6 8.7 6 7 6 C6.67 11.28 6.34 16.56 6 22 C4.02 22 2.04 22 0 22 C0 14.74 0 7.48 0 0 Z " fill="#E5E5E5" transform="translate(36,165)"/>
<path d="M0 0 C2.5625 2 2.5625 2 4 4 C2.9375 5.5625 2.9375 5.5625 1 7 C-2.6875 6.6875 -2.6875 6.6875 -6 6 C-3.79480277 7.1434356 -1.64455335 8.13225922 0.6875 9 C3 10 3 10 4 12 C4.46067231 18.33424433 4.46067231 18.33424433 2.82421875 20.69921875 C0.33220243 22.47618113 -1.40000149 22.39972862 -4.4375 22.375 C-5.38496094 22.38273437 -6.33242187 22.39046875 -7.30859375 22.3984375 C-10.35191571 21.94790217 -11.73261099 21.02617742 -14 19 C-13.34 17.68 -12.68 16.36 -12 15 C-8.09567131 15 -5.61973402 15.68373308 -2 17 C-3.35747836 14.28504328 -4.68062516 14.29838899 -7.5 13.3125 C-9.94921875 12.26953125 -9.94921875 12.26953125 -12 11 C-13.3125 7.5 -13.3125 7.5 -13 4 C-10.15710457 -1.03967826 -5.22108889 -0.99631788 0 0 Z " fill="#DEDEDE" transform="translate(144,165)"/>
<path d="M0 0 C0.99 0.66 1.98 1.32 3 2 C2.34 3.65 1.68 5.3 1 7 C-1.64 6.34 -4.28 5.68 -7 5 C-6.19995526 7.14309946 -6.19995526 7.14309946 -4.22265625 7.74609375 C-2.78566942 8.20603348 -1.34816985 8.66437437 0.08984375 9.12109375 C2 10 2 10 4 13 C3.8125 16.5625 3.8125 16.5625 3 20 C-0.20624887 22.13749925 -1.22458103 22.29574999 -4.9375 22.3125 C-5.79214844 22.32925781 -6.64679688 22.34601563 -7.52734375 22.36328125 C-10.4421356 21.93504169 -11.81326679 20.92290461 -14 19 C-13.34 17.68 -12.68 16.36 -12 15 C-8.88772805 15 -6.05847848 15.45627049 -3 16 C-5.94702683 13.9457348 -5.94702683 13.9457348 -9.125 12.4375 C-12 11 -12 11 -13 10 C-13.57623479 3.77666428 -13.57623479 3.77666428 -11.5625 1.0625 C-7.77956713 -0.50603314 -4.04138701 -0.57308803 0 0 Z " fill="#E3E3E3" transform="translate(213,165)"/>
<path d="M0 0 C1.98 0 3.96 0 6 0 C6.67305018 1.60149886 7.33822227 3.20631029 8 4.8125 C8.37125 5.70582031 8.7425 6.59914062 9.125 7.51953125 C10 10 10 10 10 13 C10.66 13 11.32 13 12 13 C12.1546875 12.01 12.1546875 12.01 12.3125 11 C13.19213564 7.16158991 14.56969896 3.66903309 16 0 C17.98 0 19.96 0 22 0 C20.56006454 7.72329019 17.94467554 14.7282249 15 22 C12.36 22 9.72 22 7 22 C5.82538445 18.89878289 4.66169544 15.79357759 3.5 12.6875 C3.16613281 11.80642578 2.83226563 10.92535156 2.48828125 10.01757812 C2.17246094 9.17001953 1.85664062 8.32246094 1.53125 7.44921875 C1.23798828 6.66893311 0.94472656 5.88864746 0.64257812 5.0847168 C0 3 0 3 0 0 Z " fill="#E0E0E0" transform="translate(69,165)"/>
<path d="M0 0 C0.66 0 1.32 0 2 0 C2.309375 0.804375 2.61875 1.60875 2.9375 2.4375 C3.76335345 4.89080405 3.76335345 4.89080405 5 6 C6.51165654 6.39148761 8.03469632 6.73972457 9.5625 7.0625 C10.38878906 7.23910156 11.21507812 7.41570313 12.06640625 7.59765625 C12.70449219 7.73042969 13.34257812 7.86320312 14 8 C13.01 8.495 13.01 8.495 12 9 C14.40063299 12.60094948 16.37554233 13.26786647 20.22265625 14.9375 C22 16 22 16 23 19 C22.34 19 21.68 19 21 19 C20.67 19.99 20.34 20.98 20 22 C18.51746733 21.38302681 17.03904826 20.75616104 15.5625 20.125 C14.73878906 19.77695313 13.91507813 19.42890625 13.06640625 19.0703125 C11 18 11 18 10 16 C10.99 16 11.98 16 13 16 C11.68 15.67 10.36 15.34 9 15 C9 15.66 9 16.32 9 17 C7.04174127 17.02694851 5.08337774 17.04637218 3.125 17.0625 C2.03445312 17.07410156 0.94390625 17.08570312 -0.1796875 17.09765625 C-3 17 -3 17 -5 16 C-5 13.36 -5 10.72 -5 8 C-3.68 7.34 -2.36 6.68 -1 6 C-1.020625 5.195625 -1.04125 4.39125 -1.0625 3.5625 C-1 1 -1 1 0 0 Z " fill="#7D9B08" transform="translate(217,52)"/>
<path d="M0 0 C0.7903481 10.15293327 1.14727634 19.85101699 0 30 C-3.97765695 29.41071749 -6.36036836 28.0348949 -9 25 C-9.62262248 21.40058346 -9.46997559 17.8888974 -9.3125 14.25 C-9.28994141 13.26644531 -9.26738281 12.28289062 -9.24414062 11.26953125 C-9.18528805 8.8448053 -9.10313431 6.42318017 -9 4 C-2.25 0 -2.25 0 0 0 Z " fill="#F51C02" transform="translate(250,67)"/>
<path d="M0 0 C0 1.65 0 3.3 0 5 C1.98 5 3.96 5 6 5 C6 6.65 6 8.3 6 10 C4.02 10 2.04 10 0 10 C0.33 13.63 0.66 17.26 1 21 C2.65 21.33 4.3 21.66 6 22 C5.67 23.65 5.34 25.3 5 27 C-2.40053524 27.36396075 -2.40053524 27.36396075 -4.75 25.9375 C-6.67816053 22.94885117 -6.2839325 20.31621405 -6.1875 16.8125 C-6.16042969 15.54019531 -6.13335937 14.26789063 -6.10546875 12.95703125 C-6.07066406 11.98121094 -6.03585938 11.00539062 -6 10 C-7.32 10 -8.64 10 -10 10 C-10 8.35 -10 6.7 -10 5 C-8.68 5 -7.36 5 -6 5 C-6 3.68 -6 2.36 -6 1 C-3 0 -3 0 0 0 Z " fill="#E4E4E4" transform="translate(170,160)"/>
<path d="M0 0 C8.415 1.485 8.415 1.485 17 3 C17.33 4.32 17.66 5.64 18 7 C16.68 7.33 15.36 7.66 14 8 C14 9.32 14 10.64 14 12 C16.64 12 19.28 12 22 12 C22 12.33 22 12.66 22 13 C11.32602355 13.49904306 2.09182939 13.00748007 -8 9 C-8.66 8.34 -9.32 7.68 -10 7 C-7.07175348 6.02391783 -5.04386724 5.91773332 -2 6 C-1.34 4.02 -0.68 2.04 0 0 Z " fill="#E7C802" transform="translate(235,127)"/>
<path d="M0 0 C0.65097656 0.16242188 1.30195313 0.32484375 1.97265625 0.4921875 C5.80349537 1.13477987 9.56639182 1.14517954 13.4375 1.125 C14.17548828 1.12886719 14.91347656 1.13273437 15.67382812 1.13671875 C19.89208711 1.12921962 23.8452442 0.82963428 28 0 C28.1875 2.875 28.1875 2.875 28 6 C24.98810728 8.00792848 22.41778932 8.88398716 19 10 C18.319375 10.391875 17.63875 10.78375 16.9375 11.1875 C14.23797352 12.31955949 12.75469741 11.89527666 10 11 C8.64082143 10.03542166 7.30915279 9.03145371 6 8 C4.01549844 6.96958573 2.01800895 5.96314063 0 5 C0 3.35 0 1.7 0 0 Z " fill="#0C0B03" transform="translate(236,105)"/>
<path d="M0 0 C7.13641827 2.85456731 7.13641827 2.85456731 9 5 C9.68570654 8.29487131 9.69466093 11.51891294 9.6875 14.875 C9.72810547 15.77347656 9.76871094 16.67195313 9.81054688 17.59765625 C9.8438559 24.04057312 9.8438559 24.04057312 7.46337891 26.74707031 C3.04705118 30 3.04705118 30 0 30 C0 26.04 0 22.08 0 18 C1.65 18.99 3.3 19.98 5 21 C5 20.34 5 19.68 5 19 C3.68 18.34 2.36 17.68 1 17 C1.57352893 13.12867972 3.48704352 10.91827204 6 8 C3.03 10.475 3.03 10.475 0 13 C0 8.71 0 4.42 0 0 Z " fill="#F4F3EF" transform="translate(251,67)"/>
<path d="M0 0 C1.98 0 3.96 0 6 0 C6.33 7.92 6.66 15.84 7 24 C7.66 24.33 8.32 24.66 9 25 C9.625 27.5625 9.625 27.5625 10 30 C8.72125 30.061875 7.4425 30.12375 6.125 30.1875 C5.04605469 30.23970703 5.04605469 30.23970703 3.9453125 30.29296875 C3.30335938 30.19628906 2.66140625 30.09960938 2 30 C-0.36008817 26.45986775 -0.23463644 24.98878045 -0.1953125 20.80078125 C-0.18886719 19.59228516 -0.18242187 18.38378906 -0.17578125 17.13867188 C-0.15064453 15.2447168 -0.15064453 15.2447168 -0.125 13.3125 C-0.11597656 12.03826172 -0.10695313 10.76402344 -0.09765625 9.45117188 C-0.07405641 6.30059373 -0.04113194 3.15039017 0 0 Z " fill="#E7E7E7" transform="translate(275,157)"/>
<path d="M0 0 C0 0.33 0 0.66 0 1 C-1.98 1 -3.96 1 -6 1 C-5.87431641 1.95712891 -5.87431641 1.95712891 -5.74609375 2.93359375 C-5.64425781 3.75988281 -5.54242188 4.58617187 -5.4375 5.4375 C-5.33308594 6.26121094 -5.22867187 7.08492187 -5.12109375 7.93359375 C-5.08113281 8.61550781 -5.04117187 9.29742187 -5 10 C-6 11 -6 11 -9.37890625 11.09765625 C-10.77347077 11.09098369 -12.16801743 11.07902532 -13.5625 11.0625 C-14.27341797 11.05798828 -14.98433594 11.05347656 -15.71679688 11.04882812 C-17.47790013 11.03700864 -19.23896036 11.01907263 -21 11 C-21 7.7 -21 4.4 -21 1 C-22.98 1 -24.96 1 -27 1 C-27 0.67 -27 0.34 -27 0 C-17.91189901 -1.37178883 -9.08810099 -1.37178883 0 0 Z " fill="#D6BA04" transform="translate(263,22)"/>
<path d="M0 0 C0.33 0.66 0.66 1.32 1 2 C1.94875 2.103125 2.8975 2.20625 3.875 2.3125 C7 3 7 3 8.875 5.5625 C9.431875 6.7690625 9.431875 6.7690625 10 8 C9.34 8.66 8.68 9.32 8 10 C7.30341637 11.65438613 6.63903117 13.32254318 6 15 C5.34786461 16.34050052 4.68620031 17.67661368 4 19 C-0.12751449 18.39301257 -3.3321148 16.96189209 -7 15 C-5.34292168 9.35086937 -3.52237988 4.73699363 0 0 Z " fill="#D9BE05" transform="translate(200,46)"/>
<path d="M0 0 C3.86648272 1.04097612 7.49461443 2.03698408 11 4 C11.66 3.01 12.32 2.02 13 1 C16.125 0.8125 16.125 0.8125 19 1 C19.66 2.32 20.32 3.64 21 5 C19.87926138 5.83905565 18.75325453 6.67107831 17.625 7.5 C16.68527344 8.19609375 16.68527344 8.19609375 15.7265625 8.90625 C14 10 14 10 12 10 C12.33 17.26 12.66 24.52 13 32 C12.34 32 11.68 32 11 32 C11 30.02 11 28.04 11 26 C9.68 26.33 8.36 26.66 7 27 C6.34 26.01 5.68 25.02 5 24 C4.34 24 3.68 24 3 24 C3 23.34 3 22.68 3 22 C3.99 21.67 4.98 21.34 6 21 C6.185625 19.1128125 6.185625 19.1128125 6.375 17.1875 C6.69868059 13.89674737 7.06604999 12.90092502 9 10 C9.66 10 10.32 10 11 10 C8.71391996 7.4501415 6.91884751 5.96021937 3.8125 4.4375 C1 3 1 3 0 0 Z " fill="#F2CC01" transform="translate(229,61)"/>
<path d="M0 0 C4.66666667 0 9.33333333 0 14 0 C14 1.65 14 3.3 14 5 C13.030625 5.28875 12.06125 5.5775 11.0625 5.875 C7.89335797 6.64214682 7.89335797 6.64214682 7 9 C6.77049681 11.204364 6.58924067 13.41392173 6.4375 15.625 C6.35371094 16.81351563 6.26992187 18.00203125 6.18359375 19.2265625 C6.12300781 20.14179688 6.06242187 21.05703125 6 22 C4.02 22 2.04 22 0 22 C0 14.74 0 7.48 0 0 Z " fill="#DCDCDC" transform="translate(116,165)"/>
<path d="M0 0 C0.66 0.33 1.32 0.66 2 1 C2 1.66 2 2.32 2 3 C3.02478326 6.44034379 3.99669877 8.99504816 6 12 C2.83047153 15.26008643 -0.39937989 18.22237877 -4 21 C-4.66 20.01 -5.32 19.02 -6 18 C-9.05429073 16.78715124 -9.05429073 16.78715124 -12 16 C-11.64008282 10.95193086 -8.95601959 8.47760134 -5.4375 5.1875 C-4.91736328 4.68541016 -4.39722656 4.18332031 -3.86132812 3.66601562 C-2.5831143 2.43470873 -1.29272853 1.2160593 0 0 Z " fill="#C9AF05" transform="translate(213,32)"/>
<path d="M0 0 C0.33 0 0.66 0 1 0 C1 6.93 1 13.86 1 21 C-2.3 21 -5.6 21 -9 21 C-9 20.34 -9 19.68 -9 19 C-8.34 19 -7.68 19 -7 19 C-7.66 18.34 -8.32 17.68 -9 17 C-9.33 17 -9.66 17 -10 17 C-10 13.37 -10 9.74 -10 6 C-6.38026598 4.68373308 -3.90432869 4 0 4 C0 2.68 0 1.36 0 0 Z " fill="#E5C504" transform="translate(309,69)"/>
<path d="M0 0 C3 5.75 3 5.75 3 8 C3.66 8.33 4.32 8.66 5 9 C0.37630977 10.80679587 -3.42528653 11.21839082 -8.375 11.125 C-9.62023437 11.10695312 -10.86546875 11.08890625 -12.1484375 11.0703125 C-13.55996094 11.03550781 -13.55996094 11.03550781 -15 11 C-15 9.68 -15 8.36 -15 7 C-14.01 6.67 -13.02 6.34 -12 6 C-12 5.01 -12 4.02 -12 3 C-13.65 2.67 -15.3 2.34 -17 2 C-17 1.67 -17 1.34 -17 1 C-11.29014022 0.25983299 -5.75813575 -0.10469338 0 0 Z " fill="#F1CF01" transform="translate(264,128)"/>
<path d="M0 0 C-0.33 0.99 -0.66 1.98 -1 3 C-0.21625 3.721875 0.5675 4.44375 1.375 5.1875 C3.84412438 7.83299041 4.93260278 9.60373611 6 13 C1.25 16 1.25 16 -1 16 C-1 16.66 -1 17.32 -1 18 C-1.99 18.33 -2.98 18.66 -4 19 C-7.00244501 13.99592499 -7.38493338 10.67776737 -7 5 C-6.67 4.67 -6.34 4.34 -6 4 C-6.66 3.67 -7.32 3.34 -8 3 C-8 2.34 -8 1.68 -8 1 C-5.23735711 0.40267181 -2.83967231 0 0 0 Z " fill="#EBC903" transform="translate(201,91)"/>
<path d="M0 0 C1.98 0 3.96 0 6 0 C6 7.26 6 14.52 6 22 C4.02 22 2.04 22 0 22 C0 14.74 0 7.48 0 0 Z " fill="#DFDFDF" transform="translate(152,165)"/>
<path d="M0 0 C1.98 0 3.96 0 6 0 C6 7.26 6 14.52 6 22 C4.02 22 2.04 22 0 22 C0 14.74 0 7.48 0 0 Z " fill="#DFDFDF" transform="translate(60,165)"/>
<path d="M0 0 C0.33 0.99 0.66 1.98 1 3 C1.66 3 2.32 3 3 3 C3 2.01 3 1.02 3 0 C3.99 0.33 4.98 0.66 6 1 C7.32 0.67 8.64 0.34 10 0 C10 8.58 10 17.16 10 26 C9.34 24.68 8.68 23.36 8 22 C5.81458448 21.3006486 5.81458448 21.3006486 3.375 21.25 C2.55773437 21.19328125 1.74046875 21.1365625 0.8984375 21.078125 C-0.04128906 21.03945312 -0.04128906 21.03945312 -1 21 C-1 20.34 -1 19.68 -1 19 C2.96 18.505 2.96 18.505 7 18 C6.67 16.68 6.34 15.36 6 14 C3.36 14.33 0.72 14.66 -2 15 C-2 14.34 -2 13.68 -2 13 C-0.68 13 0.64 13 2 13 C2 12.34 2 11.68 2 11 C1.01 11 0.02 11 -1 11 C-1 10.34 -1 9.68 -1 9 C1.64 9.33 4.28 9.66 7 10 C7.33 8.68 7.66 7.36 8 6 C7.05125 6.020625 6.1025 6.04125 5.125 6.0625 C2 6 2 6 0 5 C0 3.35 0 1.7 0 0 Z " fill="#9E8808" transform="translate(193,67)"/>
<path d="M0 0 C0.33 0 0.66 0 1 0 C1.125 3.375 1.125 3.375 1 7 C0.34 7.66 -0.32 8.32 -1 9 C0.32 9 1.64 9 3 9 C3.66 10.32 4.32 11.64 5 13 C5.103125 12.38125 5.20625 11.7625 5.3125 11.125 C6 9 6 9 9 7 C10.32 7 11.64 7 13 7 C13.66 9.64 14.32 12.28 15 15 C12.69 13.68 10.38 12.36 8 11 C5.62409858 14.70416126 5.79499714 17.92984573 5.875 22.25 C5.90207031 24.14492187 5.90207031 24.14492187 5.9296875 26.078125 C5.95289063 27.04234375 5.97609375 28.0065625 6 29 C6.45375 28.34 6.9075 27.68 7.375 27 C7.91125 26.34 8.4475 25.68 9 25 C9.66 25 10.32 25 11 25 C9.84826645 27.46800047 8.95216435 29.04783565 7 31 C7.16666667 33.08333333 7.16666667 33.08333333 8 35 C8.66 35.33 9.32 35.66 10 36 C10 36.66 10 37.32 10 38 C8.68 37.34 7.36 36.68 6 36 C5.67 39.63 5.34 43.26 5 47 C4.67 47 4.34 47 4 47 C4.01160156 46.030625 4.02320313 45.06125 4.03515625 44.0625 C4.67822239 27.79174049 4.67822239 27.79174049 2 12 C-0.97 11.505 -0.97 11.505 -4 11 C-4.33 10.01 -4.66 9.02 -5 8 C-4.0409375 7.690625 -4.0409375 7.690625 -3.0625 7.375 C-0.65074923 6.10461791 -0.65074923 6.10461791 -0.25 2.875 C-0.1675 1.92625 -0.085 0.9775 0 0 Z " fill="#7CA106" transform="translate(246,50)"/>
<path d="M0 0 C0.66 0.33 1.32 0.66 2 1 C2 1.66 2 2.32 2 3 C1.34 3 0.68 3 0 3 C0 3.66 0 4.32 0 5 C4.455 4.505 4.455 4.505 9 4 C9.80043111 11.04379378 7.12271278 16.7640372 4 23 C3.34 23.66 2.68 24.32 2 25 C1.67 24.01 1.34 23.02 1 22 C1.66 22 2.32 22 3 22 C1.768606 18.30581799 -0.20791354 16.64890254 -3 14 C-2.67 13.34 -2.34 12.68 -2 12 C2.75 11.875 2.75 11.875 5 13 C5 12.34 5 11.68 5 11 C5.66 11 6.32 11 7 11 C7 10.34 7 9.68 7 9 C4.03 9 1.06 9 -2 9 C-1.125 1.125 -1.125 1.125 0 0 Z " fill="#E8C703" transform="translate(300,85)"/>
<path d="M0 0 C0.66 0 1.32 0 2 0 C2 1.32 2 2.64 2 4 C2.66 4 3.32 4 4 4 C3.71624756 7.40502926 3.23082747 8.76257746 0.8125 11.25 C-2.22349056 13.13906079 -4.46723648 13.67137084 -8 14 C-8 13.34 -8 12.68 -8 12 C-8.99 12 -9.98 12 -11 12 C-11.33 10.68 -11.66 9.36 -12 8 C-11.34 8 -10.68 8 -10 8 C-10 7.34 -10 6.68 -10 6 C-8.3603125 5.62875 -8.3603125 5.62875 -6.6875 5.25 C-2.84718899 3.94819966 -2.07513001 3.27652107 0 0 Z " fill="#449C04" transform="translate(283,53)"/>
<path d="M0 0 C2.30143236 3.45214853 2.13833854 4.23479324 1.625 8.1875 C1.45871094 9.53908203 1.45871094 9.53908203 1.2890625 10.91796875 C1.14597656 11.94857422 1.14597656 11.94857422 1 13 C-1.99480917 13.8723412 -4.63575911 14.10829766 -7.75 14.0625 C-8.54921875 14.05347656 -9.3484375 14.04445313 -10.171875 14.03515625 C-10.77515625 14.02355469 -11.3784375 14.01195313 -12 14 C-12 13.34 -12 12.68 -12 12 C-11.34 11.67 -10.68 11.34 -10 11 C-10.33 10.34 -10.66 9.68 -11 9 C-9.35 8.67 -7.7 8.34 -6 8 C-7.65 7.67 -9.3 7.34 -11 7 C-11 6.34 -11 5.68 -11 5 C-10.37351562 4.80664062 -9.74703125 4.61328125 -9.1015625 4.4140625 C-8.28429687 4.15367188 -7.46703125 3.89328125 -6.625 3.625 C-5.81289063 3.36976562 -5.00078125 3.11453125 -4.1640625 2.8515625 C-1.83540815 2.10145717 -1.83540815 2.10145717 0 0 Z " fill="#85A905" transform="translate(286,64)"/>
<path d="M0 0 C0.90105469 0.01804687 1.80210937 0.03609375 2.73046875 0.0546875 C3.41753906 0.07789062 4.10460937 0.10109375 4.8125 0.125 C5.1425 3.095 5.4725 6.065 5.8125 9.125 C2.36799263 11.42133824 -0.12562283 11.66516485 -4.1875 12.125 C-3.8575 10.475 -3.5275 8.825 -3.1875 7.125 C-3.8475 7.125 -4.5075 7.125 -5.1875 7.125 C-5.1875 5.805 -5.1875 4.485 -5.1875 3.125 C-6.1775 2.795 -7.1675 2.465 -8.1875 2.125 C-4.87379 -0.08414 -3.8428979 -0.09981553 0 0 Z " fill="#F2CF01" transform="translate(237.1875,22.875)"/>
<path d="M0 0 C1.216875 -0.00515625 2.43375 -0.0103125 3.6875 -0.015625 C6.75288791 0.23018441 8.43662952 0.6350766 11 2.25 C11 2.91 11 3.57 11 4.25 C7.02053841 6.12443798 3.82104886 6.52031772 -0.5625 6.5 C-2.23505859 6.50773437 -2.23505859 6.50773437 -3.94140625 6.515625 C-6.86555372 6.26167605 -8.53085968 5.77132851 -11 4.25 C-11 3.59 -11 2.93 -11 2.25 C-7.36211946 -0.04186474 -4.2381715 -0.01795835 0 0 Z " fill="#0E0D02" transform="translate(250,99.75)"/>
<path d="M0 0 C0.66 0.33 1.32 0.66 2 1 C0.68 1.33 -0.64 1.66 -2 2 C-2 2.66 -2 3.32 -2 4 C-0.68 3.67 0.64 3.34 2 3 C2.99 4.485 2.99 4.485 4 6 C4.33 6 4.66 6 5 6 C5 7.65 5 9.3 5 11 C4.34 11 3.68 11 3 11 C3 10.34 3 9.68 3 9 C2.01 9 1.02 9 0 9 C0 8.34 0 7.68 0 7 C-0.66 7 -1.32 7 -2 7 C-2 6.34 -2 5.68 -2 5 C-3.6396875 5.99 -3.6396875 5.99 -5.3125 7 C-7.93707538 8.58464929 -8.8256378 9 -12 9 C-12.33 9.66 -12.66 10.32 -13 11 C-13 10.34 -13 9.68 -13 9 C-14.32 8.67 -15.64 8.34 -17 8 C-17 7.01 -17 6.02 -17 5 C-7.95652174 1 -7.95652174 1 -3 1 C-2.01 0.67 -1.02 0.34 0 0 Z " fill="#689708" transform="translate(234,81)"/>
<path d="M0 0 C0 0.66 0 1.32 0 2 C0.66 2 1.32 2 2 2 C2 2.66 2 3.32 2 4 C2.99 4 3.98 4 5 4 C5.625 5.875 5.625 5.875 6 8 C5.34 8.66 4.68 9.32 4 10 C4 9.34 4 8.68 4 8 C3.505 8.515625 3.01 9.03125 2.5 9.5625 C-1.24714452 11.7171081 -3.80844613 10.76845154 -8 10 C-8 9.34 -8 8.68 -8 8 C-8.66 7.67 -9.32 7.34 -10 7 C-10 6.01 -10 5.02 -10 4 C-8.71086513 3.32845067 -7.41859796 2.66291141 -6.125 2 C-5.40570313 1.62875 -4.68640625 1.2575 -3.9453125 0.875 C-2 0 -2 0 0 0 Z " fill="#609906" transform="translate(232,86)"/>
<path d="M0 0 C0.66 0 1.32 0 2 0 C3.37020997 4.11062991 3.06276637 7.66912062 3 12 C-0.3 12.66 -3.6 13.32 -7 14 C-8.13233879 8.77382098 -8.13233879 8.77382098 -8 6 C-5.75 3.5 -5.75 3.5 -3 2 C-2.01 2 -1.02 2 0 2 C0 1.34 0 0.68 0 0 Z " fill="#F2CF02" transform="translate(306,61)"/>
<path d="M0 0 C2.18486483 0.37670083 3.80490291 0.87716109 5.6875 2.0625 C9.45949732 7.63068652 8.11761842 17.03842575 8.0625 23.5 C8.05798828 24.51320313 8.05347656 25.52640625 8.04882812 26.5703125 C8.03714593 29.04693827 8.02076582 31.52343657 8 34 C7.67 33.34 7.34 32.68 7 32 C5.35 32.66 3.7 33.32 2 34 C2.66 33.01 3.32 32.02 4 31 C4.66 31 5.32 31 6 31 C6.06466978 27.76875624 6.04025406 24.54400613 6 21.3125 C6.01933594 20.40048828 6.03867187 19.48847656 6.05859375 18.54882812 C5.998912 15.81341472 5.85770639 13.60256115 5 11 C2.59060176 8.70457699 0.0484572 7.29984757 -3 6 C-2 4 -1 2 0 0 Z " fill="#F3D40F" transform="translate(254,61)"/>
<path d="M0 0 C0.33 0.99 0.66 1.98 1 3 C2.32 3 3.64 3 5 3 C5.33 2.01 5.66 1.02 6 0 C6.04898438 0.67546875 6.09796875 1.3509375 6.1484375 2.046875 C6.22320312 2.93890625 6.29796875 3.8309375 6.375 4.75 C6.44460937 5.63171875 6.51421875 6.5134375 6.5859375 7.421875 C6.99850055 9.99066382 7.71160957 11.75841015 9 14 C7.68 14 6.36 14 5 14 C4.67 15.65 4.34 17.3 4 19 C3.34 18.67 2.68 18.34 2 18 C2 16.68 2 15.36 2 14 C0.35 14.33 -1.3 14.66 -3 15 C-2.34 14.01 -1.68 13.02 -1 12 C-0.79555124 9.28763972 -0.79555124 9.28763972 -0.9375 6.375 C-0.99155821 4.58402787 -1.02042622 2.79167135 -1 1 C-0.67 0.67 -0.34 0.34 0 0 Z " fill="#F5D301" transform="translate(247,45)"/>
<path d="M0 0 C6.55934563 2.62373825 6.55934563 2.62373825 9 5 C9.45410156 7.17651367 9.45410156 7.17651367 9.390625 9.66796875 C9.37773437 10.56064453 9.36484375 11.45332031 9.3515625 12.37304688 C9.31804687 13.30181641 9.28453125 14.23058594 9.25 15.1875 C9.23195313 16.12787109 9.21390625 17.06824219 9.1953125 18.03710938 C9.1481655 20.35909889 9.08238231 22.6790369 9 25 C8.67 25 8.34 25 8 25 C7.34 19.39 6.68 13.78 6 8 C3.03 10.475 3.03 10.475 0 13 C0 8.71 0 4.42 0 0 Z " fill="#F7F4D8" transform="translate(251,67)"/>
<path d="M0 0 C-1 3 -1 3 -4 4.875 C-7.17301383 6.69149599 -7.17301383 6.69149599 -7.9375 9.625 C-8.18688725 12.01838235 -8.18688725 12.01838235 -7 14 C-4.69 14 -2.38 14 0 14 C-0.33 15.32 -0.66 16.64 -1 18 C-2.98 18 -4.96 18 -7 18 C-7.144375 18.94875 -7.28875 19.8975 -7.4375 20.875 C-8 24 -8 24 -9 26 C-9.66 26 -10.32 26 -11 26 C-11.05425226 23.60385874 -11.09379027 21.20896147 -11.125 18.8125 C-11.14175781 18.13896484 -11.15851563 17.46542969 -11.17578125 16.77148438 C-11.23269386 10.93794153 -10.42627445 7.5689019 -6.5 3.25 C-2.88888889 0 -2.88888889 0 0 0 Z " fill="#E6CA02" transform="translate(272,62)"/>
<path d="M0 0 C1.32 0 2.64 0 4 0 C4.45375 0.969375 4.9075 1.93875 5.375 2.9375 C6.65786221 6.07079582 6.65786221 6.07079582 9 7 C8.46104623 10.7726764 7.00464642 12.68212991 4 15 C2.68 14.67 1.36 14.34 0 14 C0 9.38 0 4.76 0 0 Z " fill="#EF0100" transform="translate(242,74)"/>
<path d="M0 0 C3.3 0.33 6.6 0.66 10 1 C10 1.66 10 2.32 10 3 C9.34 3 8.68 3 8 3 C8.33 3.99 8.66 4.98 9 6 C6.36 5.67 3.72 5.34 1 5 C2.36983503 8.16115776 2.9890638 8.9927092 6 11 C6 11.99 6 12.98 6 14 C3.03 13.67 0.06 13.34 -3 13 C-4.23593891 9.29218328 -3.5678132 8.32489747 -2.0625 4.8125 C-1.68222656 3.91144531 -1.30195313 3.01039062 -0.91015625 2.08203125 C-0.60980469 1.39496094 -0.30945313 0.70789063 0 0 Z " fill="#D1B706" transform="translate(297,93)"/>
<path d="M0 0 C0.91910156 0.15339844 1.83820313 0.30679688 2.78515625 0.46484375 C7.97896901 1.206817 13.20025636 1.35464583 18.4375 1.5625 C19.45521484 1.60568359 20.47292969 1.64886719 21.52148438 1.69335938 C24.01421028 1.79868582 26.50702338 1.90081672 29 2 C29 2.33 29 2.66 29 3 C20.59244037 4.98291501 11.12312602 5.0945242 3 2 C2.855625 2.969375 2.71125 3.93875 2.5625 4.9375 C2 8 2 8 1 9 C-0.66617115 9.04063832 -2.33388095 9.042721 -4 9 C-4.93065133 6.39417629 -5.14917407 5.35801776 -4.0625 2.75 C-3.711875 2.1725 -3.36125 1.595 -3 1 C-1.95550089 4.13349732 -2.06576355 4.98968256 -3 8 C-2.34 8 -1.68 8 -1 8 C-0.26919734 6.02253397 0.39421747 4.01927511 1 2 C0.67 1.34 0.34 0.68 0 0 Z " fill="#508C05" transform="translate(232,125)"/>
<path d="M0 0 C0 1.98 0 3.96 0 6 C-4.95 6 -9.9 6 -15 6 C-13 2 -13 2 -10.3125 0.75 C-6.77039428 -0.0519862 -3.62006622 -0.14480265 0 0 Z " fill="#B0AE06" transform="translate(244,45)"/>
<path d="M0 0 C3.3125 -0.25 3.3125 -0.25 7 0 C8.9375 1.8125 8.9375 1.8125 10 4 C10 4.99 10 5.98 10 7 C6.38026598 8.31626692 3.90432869 9 0 9 C-1.125 3.375 -1.125 3.375 0 0 Z " fill="#949E08" transform="translate(256,113)"/>
<path d="M0 0 C0.33 1.65 0.66 3.3 1 5 C-6.28571429 9.57142857 -6.28571429 9.57142857 -11 9 C-11.66 7.02 -12.32 5.04 -13 3 C-11.01432292 2.51171875 -9.02864583 2.0234375 -7.04296875 1.53515625 C-1.18248175 0 -1.18248175 0 0 0 Z " fill="#A9AD06" transform="translate(227,77)"/>
<path d="M0 0 C2 3 2 3 1.9375 5 C0.59053785 7.87351926 -1.19099776 8.6281617 -4 10 C-5.32 10.33 -6.64 10.66 -8 11 C-8.99 8.03 -9.98 5.06 -11 2 C-7.37 2.33 -3.74 2.66 0 3 C0 2.01 0 1.02 0 0 Z " fill="#D0B507" transform="translate(305,56)"/>
<path d="M0 0 C0 2.31 0 4.62 0 7 C-5.625 9 -5.625 9 -9 9 C-9.33 7.02 -9.66 5.04 -10 3 C-3.375 -1.125 -3.375 -1.125 0 0 Z " fill="#A9A806" transform="translate(273,67)"/>
<path d="M0 0 C0.33 0 0.66 0 1 0 C1 1.98 1 3.96 1 6 C1.598125 6.103125 2.19625 6.20625 2.8125 6.3125 C5.28243264 7.08876455 6.32251235 8.07088921 8 10 C3.25 8.125 3.25 8.125 1 7 C0.7834375 8.0828125 0.7834375 8.0828125 0.5625 9.1875 C0.04166667 11.79166667 -0.47916667 14.39583333 -1 17 C-1.66 17 -2.32 17 -3 17 C-2.55296014 21.47883696 -2.55296014 21.47883696 0 25 C-0.66 25.66 -1.32 26.32 -2 27 C-2 26.34 -2 25.68 -2 25 C-2.99 25 -3.98 25 -5 25 C-5.36744976 18.38590427 -4.07597049 13.24816486 -2 7 C-1.59626455 5.62729948 -1.19932998 4.25256001 -0.8125 2.875 C-0.544375 1.92625 -0.27625 0.9775 0 0 Z " fill="#D5BE05" transform="translate(239,87)"/>
<path d="M0 0 C0 0.33 0 0.66 0 1 C-1.98 1 -3.96 1 -6 1 C-6 1.66 -6 2.32 -6 3 C-0.555 2.505 -0.555 2.505 5 2 C5 2.66 5 3.32 5 4 C0.9472484 4.98248524 -2.83861737 5.08159574 -7 5 C-7 5.66 -7 6.32 -7 7 C-9.64 6.67 -12.28 6.34 -15 6 C-14.67 5.01 -14.34 4.02 -14 3 C-12.02 3 -10.04 3 -8 3 C-8 2.34 -8 1.68 -8 1 C-10.31 1.33 -12.62 1.66 -15 2 C-10.73298482 -2.26701518 -5.47416361 -0.83504191 0 0 Z " fill="#588E08" transform="translate(280,75)"/>
<path d="M0 0 C0.33 0.99 0.66 1.98 1 3 C1.66 3 2.32 3 3 3 C3 2.01 3 1.02 3 0 C3.99 0.33 4.98 0.66 6 1 C7.32 0.67 8.64 0.34 10 0 C10 8.58 10 17.16 10 26 C7.81351633 21.62703266 7.76637929 18.4791784 7.875 13.75 C7.88402344 13.00492188 7.89304688 12.25984375 7.90234375 11.4921875 C7.92581642 9.66131941 7.96168475 7.83061762 8 6 C7.05125 6.020625 6.1025 6.04125 5.125 6.0625 C2 6 2 6 0 5 C0 3.35 0 1.7 0 0 Z " fill="#656D09" transform="translate(193,67)"/>
<path d="M0 0 C0 4.62 0 9.24 0 14 C-1.32 12.68 -2.64 11.36 -4 10 C-4 9.01 -4 8.02 -4 7 C-5.32 7 -6.64 7 -8 7 C-8 6.34 -8 5.68 -8 5 C-2.52380952 0 -2.52380952 0 0 0 Z " fill="#F60801" transform="translate(250,67)"/>
<path d="M0 0 C0.99 0 1.98 0 3 0 C3 0.66 3 1.32 3 2 C3.928125 1.7215625 3.928125 1.7215625 4.875 1.4375 C7 1 7 1 9 2 C8.63206382 4.66753731 8.18001672 5.81998328 6.25 7.75 C3.62056017 9.21079991 1.9625559 9.24687966 -1 9 C-1.33 8.01 -1.66 7.02 -2 6 C-0.68 5.34 0.64 4.68 2 4 C1.34 3.34 0.68 2.68 0 2 C-0.33 2.66 -0.66 3.32 -1 4 C-0.67 2.68 -0.34 1.36 0 0 Z " fill="#E4C305" transform="translate(290,43)"/>
<path d="M0 0 C-0.33 2.31 -0.66 4.62 -1 7 C-1.66 6.67 -2.32 6.34 -3 6 C-3 5.67 -3 5.34 -3 5 C-4.27875 5.020625 -5.5575 5.04125 -6.875 5.0625 C-10.75 5.125 -10.75 5.125 -13 4 C-13.33 4.66 -13.66 5.32 -14 6 C-14.33 4.68 -14.66 3.36 -15 2 C-14.01 2.33 -13.02 2.66 -12 3 C-12 2.34 -12 1.68 -12 1 C-7.95858806 0.36605303 -4.0934693 -0.12404452 0 0 Z " fill="#6B9808" transform="translate(285,79)"/>
<path d="M0 0 C0.66 0.33 1.32 0.66 2 1 C2 1.66 2 2.32 2 3 C1.34 3 0.68 3 0 3 C0 3.66 0 4.32 0 5 C4.455 4.505 4.455 4.505 9 4 C9 5.65 9 7.3 9 9 C5.37 9 1.74 9 -2 9 C-1.125 1.125 -1.125 1.125 0 0 Z " fill="#EFCD03" transform="translate(300,85)"/>
<path d="M0 0 C0.66 0 1.32 0 2 0 C2.33 4.29 2.66 8.58 3 13 C3.99 11.68 4.98 10.36 6 9 C6.66 9 7.32 9 8 9 C6.84826645 11.46800047 5.95216435 13.04783565 4 15 C4.16666667 17.08333333 4.16666667 17.08333333 5 19 C5.66 19.33 6.32 19.66 7 20 C7 20.66 7 21.32 7 22 C5.68 21.34 4.36 20.68 3 20 C2.67 23.63 2.34 27.26 2 31 C1.67 31 1.34 31 1 31 C1.01160156 30.01902344 1.02320313 29.03804687 1.03515625 28.02734375 C1.1101593 18.63321132 0.75353775 9.36539772 0 0 Z " fill="#B1635E" transform="translate(249,66)"/>
<path d="M0 0 C4.455 0.99 4.455 0.99 9 2 C9 4.31 9 6.62 9 9 C7.02 9.33 5.04 9.66 3 10 C3.66 9.34 4.32 8.68 5 8 C4.01 7.67 3.02 7.34 2 7 C0.8125 3.4375 0.8125 3.4375 0 0 Z " fill="#C7B805" transform="translate(227,72)"/>
<path d="M0 0 C1.67542976 0.28604898 3.34385343 0.61781233 5 1 C5.33 1.99 5.66 2.98 6 4 C5.34 4 4.68 4 4 4 C4 3.34 4 2.68 4 2 C3.01 2.66 2.02 3.32 1 4 C1.99 4.33 2.98 4.66 4 5 C3.360625 5.61875 2.72125 6.2375 2.0625 6.875 C-0.03883584 8.82597612 -0.03883584 8.82597612 -1 11 C-3.64 8.69 -6.28 6.38 -9 4 C-8.67 3.34 -8.34 2.68 -8 2 C-5.525 3.98 -5.525 3.98 -3 6 C-2.690625 5.195625 -2.38125 4.39125 -2.0625 3.5625 C-1 1 -1 1 0 0 Z " fill="#4C4009" transform="translate(289,41)"/>
<path d="M0 0 C4.95 1.98 4.95 1.98 10 4 C9.67 4.99 9.34 5.98 9 7 C8.01 7 7.02 7 6 7 C5.67 7.66 5.34 8.32 5 9 C5 8.01 5 7.02 5 6 C4.34 6 3.68 6 3 6 C3 6.99 3 7.98 3 9 C2.34 9 1.68 9 1 9 C1 8.01 1 7.02 1 6 C0.34 6 -0.32 6 -1 6 C-0.67 4.02 -0.34 2.04 0 0 Z " fill="#E8C703" transform="translate(193,61)"/>
<path d="M0 0 C4.83256305 0.41421969 6.82679218 2.46413986 10 6 C9.34 7.32 8.68 8.64 8 10 C7.62875 9.54625 7.2575 9.0925 6.875 8.625 C4.45735315 6.52970606 2.04569398 5.87986715 -1 5 C-0.67 3.35 -0.34 1.7 0 0 Z " fill="#E9C903" transform="translate(202,43)"/>
<path d="M0 0 C0.33 0 0.66 0 1 0 C1 2.31 1 4.62 1 7 C3.97 6.34 6.94 5.68 10 5 C10 6.65 10 8.3 10 10 C9.04287109 10.07347656 9.04287109 10.07347656 8.06640625 10.1484375 C6.82697266 10.26058594 6.82697266 10.26058594 5.5625 10.375 C4.73878906 10.44460937 3.91507813 10.51421875 3.06640625 10.5859375 C2.04353516 10.79089844 2.04353516 10.79089844 1 11 C0.67 11.66 0.34 12.32 0 13 C0 8.71 0 4.42 0 0 Z " fill="#F5D202" transform="translate(190,75)"/>
<path d="M0 0 C2.475 0.99 2.475 0.99 5 2 C4.43454163 5.95820859 3.19097652 8.6659053 1 12 C0.01 11.67 -0.98 11.34 -2 11 C-1.34 7.37 -0.68 3.74 0 0 Z " fill="#F1CE02" transform="translate(277,28)"/>
<path d="M0 0 C2.31 0 4.62 0 7 0 C6.01 3.3 5.02 6.6 4 10 C2.68 9.67 1.36 9.34 0 9 C0 6.03 0 3.06 0 0 Z " fill="#F0CD01" transform="translate(257,23)"/>
<path d="M0 0 C0.763125 0.309375 1.52625 0.61875 2.3125 0.9375 C4.18789677 1.67893593 6.08684652 2.36228217 8 3 C8 3.66 8 4.32 8 5 C7.34 5 6.68 5 6 5 C6 5.66 6 6.32 6 7 C3.69 7 1.38 7 -1 7 C-1.625 4.625 -1.625 4.625 -2 2 C-1.34 1.34 -0.68 0.68 0 0 Z " fill="#A8AB07" transform="translate(268,88)"/>
<path d="M0 0 C1.32 0 2.64 0 4 0 C4 0.99 4 1.98 4 3 C4.66 3 5.32 3 6 3 C6.33 4.32 6.66 5.64 7 7 C8.32 7.33 9.64 7.66 11 8 C8.42332866 9.21676146 6.62217997 10.05184833 3.75 9.8125 C3.1725 9.544375 2.595 9.27625 2 9 C1.67 8.01 1.34 7.02 1 6 C1.99 6 2.98 6 4 6 C4 5.34 4 4.68 4 4 C2.35 3.67 0.7 3.34 -1 3 C-0.67 2.01 -0.34 1.02 0 0 Z " fill="#4F430A" transform="translate(228,27)"/>
<path d="M0 0 C7.81818182 2.54545455 7.81818182 2.54545455 11 4 C11.33 4.66 11.66 5.32 12 6 C11.34 6 10.68 6 10 6 C9.67 6.99 9.34 7.98 9 9 C7.51746733 8.38302681 6.03904826 7.75616104 4.5625 7.125 C3.73878906 6.77695313 2.91507813 6.42890625 2.06640625 6.0703125 C0 5 0 5 -1 3 C-0.01 3 0.98 3 2 3 C1.34 2.67 0.68 2.34 0 2 C0 1.34 0 0.68 0 0 Z " fill="#BFB206" transform="translate(228,65)"/>
<path d="M0 0 C0.33 1.98 0.66 3.96 1 6 C0.01 6 -0.98 6 -2 6 C-2.33 6.99 -2.66 7.98 -3 9 C-3.66 9 -4.32 9 -5 9 C-6.25664978 6.09399739 -7 4.20395416 -7 1 C-4.53721199 -0.231394 -2.7204945 -0.07159196 0 0 Z " fill="#4E4209" transform="translate(272,127)"/>
<path d="M0 0 C0 1.65 0 3.3 0 5 C0.66 5 1.32 5 2 5 C2 7.31 2 9.62 2 12 C-1.875 10.125 -1.875 10.125 -3 9 C-3.04063832 7.33382885 -3.042721 5.66611905 -3 4 C-3.66 3.67 -4.32 3.34 -5 3 C-1.125 0 -1.125 0 0 0 Z " fill="#F2CF02" transform="translate(218,31)"/>
<path d="M0 0 C1.98 0 3.96 0 6 0 C6.625 2.375 6.625 2.375 7 5 C6.34 5.66 5.68 6.32 5 7 C2.375 6.625 2.375 6.625 0 6 C0 4.02 0 2.04 0 0 Z " fill="#D6D6D6" transform="translate(60,157)"/>
<path d="M0 0 C1.66611905 -0.042721 3.33382885 -0.04063832 5 0 C6 1 6 1 6.0625 3.5625 C6.041875 4.366875 6.02125 5.17125 6 6 C3.625 6.625 3.625 6.625 1 7 C0.34 6.34 -0.32 5.68 -1 5 C-0.625 2.375 -0.625 2.375 0 0 Z " fill="#E2E2E2" transform="translate(152,157)"/>
<path d="M0 0 C0.66 0 1.32 0 2 0 C2.185625 0.78375 2.37125 1.5675 2.5625 2.375 C3.83961627 5.39376342 3.83961627 5.39376342 7.625 6.3125 C8.73875 6.539375 9.8525 6.76625 11 7 C11 7.99 11 8.98 11 10 C7.30787163 10.3434538 5.39209869 10.221621 2.125 8.375 C0 6 0 6 -0.3125 2.75 C-0.209375 1.8425 -0.10625 0.935 0 0 Z " fill="#DFC904" transform="translate(217,52)"/>
<path d="M0 0 C2.64 0 5.28 0 8 0 C8 1.65 8 3.3 8 5 C5.10765685 5.82638376 3.11257569 6 0 6 C0 5.34 0 4.68 0 4 C0.66 3.67 1.32 3.34 2 3 C1.34 2.67 0.68 2.34 0 2 C0 1.34 0 0.68 0 0 Z " fill="#493C09" transform="translate(301,74)"/>
<path d="M0 0 C3.86648272 1.04097612 7.49461443 2.03698408 11 4 C11.66 3.01 12.32 2.02 13 1 C14.32 1.33 15.64 1.66 17 2 C14.85447666 4.18001729 12.8575193 5.8590667 10 7 C6.59304887 6.36563992 3.78554409 5.05628148 1 3 C0.67 2.01 0.34 1.02 0 0 Z " fill="#DAC703" transform="translate(229,61)"/>
<path d="M0 0 C1.32 0 2.64 0 4 0 C4 0.66 4 1.32 4 2 C5.32 2 6.64 2 8 2 C8 2.66 8 3.32 8 4 C7.01 4.495 7.01 4.495 6 5 C6.33 5.66 6.66 6.32 7 7 C1.25 6.125 1.25 6.125 -1 5 C-0.67 3.35 -0.34 1.7 0 0 Z " fill="#574A09" transform="translate(196,57)"/>
<path d="M0 0 C2.97 0.495 2.97 0.495 6 1 C6.33 2.65 6.66 4.3 7 6 C5.68 6.33 4.36 6.66 3 7 C3 6.34 3 5.68 3 5 C1.68 4.67 0.36 4.34 -1 4 C-0.67 2.68 -0.34 1.36 0 0 Z " fill="#62550B" transform="translate(201,48)"/>
<path d="M0 0 C1 1 1 1 1.09765625 3.50390625 C1.08605469 4.51324219 1.07445312 5.52257813 1.0625 6.5625 C1.05347656 7.57441406 1.04445312 8.58632813 1.03515625 9.62890625 C1.02355469 10.41136719 1.01195312 11.19382812 1 12 C0.67 12 0.34 12 0 12 C-0.33 9.69 -0.66 7.38 -1 5 C-2.32 5 -3.64 5 -5 5 C-5.33 4.34 -5.66 3.68 -6 3 C-6.66 3.99 -7.32 4.98 -8 6 C-7.625 3.5625 -7.625 3.5625 -7 1 C-4.51588385 -0.24205807 -2.74800896 -0.14092354 0 0 Z " fill="#C4BD05" transform="translate(253,43)"/>
<path d="M0 0 C6.93 0.495 6.93 0.495 14 1 C14 1.66 14 2.32 14 3 C11.11788698 3.96070434 9.30149956 4.10581883 6.3125 4.0625 C5.10013672 4.04896484 5.10013672 4.04896484 3.86328125 4.03515625 C2.94095703 4.01775391 2.94095703 4.01775391 2 4 C1.34 2.68 0.68 1.36 0 0 Z " fill="#CFC003" transform="translate(212,70)"/>
<path d="M0 0 C0.66 0 1.32 0 2 0 C2.33 0.66 2.66 1.32 3 2 C3.66 2 4.32 2 5 2 C3.52307692 6.67692308 3.52307692 6.67692308 0.875 8.3125 C-0.053125 8.6528125 -0.053125 8.6528125 -1 9 C-1 8.01 -1 7.02 -1 6 C-1.66 6 -2.32 6 -3 6 C-1.125 1.125 -1.125 1.125 0 0 Z " fill="#52460A" transform="translate(282,33)"/>
<path d="M0 0 C-0.33 0.99 -0.66 1.98 -1 3 C-0.34 3.66 0.32 4.32 1 5 C-1.90600261 6.25664978 -3.79604584 7 -7 7 C-6.67 6.01 -6.34 5.02 -6 4 C-6.66 3.67 -7.32 3.34 -8 3 C-8 2.34 -8 1.68 -8 1 C-5.23735711 0.40267181 -2.83967231 0 0 0 Z " fill="#4D420A" transform="translate(201,91)"/>
<path d="M0 0 C0.33 0 0.66 0 1 0 C1.268125 0.94875 1.53625 1.8975 1.8125 2.875 C2.74986588 6.25267273 2.74986588 6.25267273 6 8 C7.9896995 8.39013716 9.99019869 8.73202649 12 9 C12.33 8.01 12.66 7.02 13 6 C13.66 6.66 14.32 7.32 15 8 C14.34 8 13.68 8 13 8 C13 8.99 13 9.98 13 11 C6.7950962 10.7242265 2.89839001 9.89359206 -2 6 C-1.34 5.67 -0.68 5.34 0 5 C0 3.35 0 1.7 0 0 Z " fill="#679508" transform="translate(216,53)"/>
<path d="M0 0 C0.125 2.875 0.125 2.875 0 6 C-2 8 -2 8 -4.625 8.125 C-5.40875 8.08375 -6.1925 8.0425 -7 8 C-6.44414399 4.1090079 -4.34122117 0 0 0 Z " fill="#E3CA02" transform="translate(240,112)"/>
<path d="M0 0 C1.0625 1.875 1.0625 1.875 2 4 C1.67 4.66 1.34 5.32 1 6 C1.66 6.33 2.32 6.66 3 7 C0.36 7.66 -2.28 8.32 -5 9 C-5 8.34 -5 7.68 -5 7 C-3.35 6.67 -1.7 6.34 0 6 C0 5.34 0 4.68 0 4 C-4.29 3.34 -8.58 2.68 -13 2 C-13 1.67 -13 1.34 -13 1 C-11.39592672 0.97291433 -9.7917215 0.95356517 -8.1875 0.9375 C-7.29417969 0.92589844 -6.40085938 0.91429688 -5.48046875 0.90234375 C-3 1 -3 1 0 2 C0 1.34 0 0.68 0 0 Z " fill="#848404" transform="translate(261,98)"/>
<path d="M0 0 C0.66 0 1.32 0 2 0 C1.67777813 3.0074041 0.99223238 4.00776762 -1.1875 6.1875 C-4.23053519 8.14856712 -6.42681564 8.66761076 -10 9 C-10 8.01 -10 7.02 -10 6 C-9.16855469 5.72736328 -9.16855469 5.72736328 -8.3203125 5.44921875 C-7.59585937 5.19785156 -6.87140625 4.94648437 -6.125 4.6875 C-5.40570313 4.44386719 -4.68640625 4.20023438 -3.9453125 3.94921875 C-1.66005095 3.03664453 -1.66005095 3.03664453 0 0 Z " fill="#D5C403" transform="translate(285,58)"/>
<path d="M0 0 C1.11375 0.1546875 1.11375 0.1546875 2.25 0.3125 C2.25 1.9625 2.25 3.6125 2.25 5.3125 C-0.72 5.3125 -3.69 5.3125 -6.75 5.3125 C-3.42692308 0.38942308 -3.42692308 0.38942308 0 0 Z " fill="#F5D201" transform="translate(302.75,53.6875)"/>
<path d="M0 0 C0.66 0.33 1.32 0.66 2 1 C-5.11389522 9.6309795 -5.11389522 9.6309795 -10 12 C-7.75066455 6.93899525 -4.58147862 3.10886049 0 0 Z " fill="#1E9702" transform="translate(220,42)"/>
<path d="M0 0 C1.65 0 3.3 0 5 0 C5.33 1.32 5.66 2.64 6 4 C4.68 4.33 3.36 4.66 2 5 C2 5.99 2 6.98 2 8 C1.34 8 0.68 8 0 8 C0 5.36 0 2.72 0 0 Z " fill="#514609" transform="translate(247,130)"/>
<path d="M0 0 C2 0 2 0 4.125 1.8125 C6 4 6 4 6 7 C0.25 7.125 0.25 7.125 -2 6 C-2 5.34 -2 4.68 -2 4 C-1.34 4 -0.68 4 0 4 C0 2.68 0 1.36 0 0 Z " fill="#584C0A" transform="translate(297,100)"/>
<path d="M0 0 C0.66 0.66 1.32 1.32 2 2 C1.625 4.125 1.625 4.125 1 6 C0.67 5.34 0.34 4.68 0 4 C-0.515625 4.474375 -1.03125 4.94875 -1.5625 5.4375 C-4.66782675 7.42809407 -7.36632504 7.65060818 -11 8 C-11 7.34 -11 6.68 -11 6 C-10.45730469 5.81824219 -9.91460937 5.63648437 -9.35546875 5.44921875 C-8.28232422 5.07216797 -8.28232422 5.07216797 -7.1875 4.6875 C-6.47980469 4.44386719 -5.77210938 4.20023437 -5.04296875 3.94921875 C-2.85527627 2.93275742 -1.59103282 1.79179406 0 0 Z " fill="#689908" transform="translate(286,61)"/>
<path d="M0 0 C0.33 0 0.66 0 1 0 C1.35882213 3.22939919 1.27258004 4.61209763 -0.625 7.3125 C-3.60457419 9.42956587 -5.42236811 9.32523926 -9 9 C-9 8.34 -9 7.68 -9 7 C-7.88625 6.6596875 -7.88625 6.6596875 -6.75 6.3125 C-3.48914416 4.75618244 -2.11850413 2.87511275 0 0 Z " fill="#DBC702" transform="translate(283,53)"/>
<path d="M0 0 C2.375 0.3125 2.375 0.3125 5 1 C7 4 7 4 7 7 C5.35 6.67 3.7 6.34 2 6 C1.34 4.02 0.68 2.04 0 0 Z " fill="#E8CC02" transform="translate(259,113)"/>
<path d="M0 0 C0.33 1.32 0.66 2.64 1 4 C-3.75 7 -3.75 7 -6 7 C-6 6.34 -6 5.68 -6 5 C-4.35 4.67 -2.7 4.34 -1 4 C-1 3.34 -1 2.68 -1 2 C-3.31 2.66 -5.62 3.32 -8 4 C-7.67 3.01 -7.34 2.02 -7 1 C-4.53721199 -0.231394 -2.7204945 -0.07159196 0 0 Z " fill="#5D4F0A" transform="translate(204,101)"/>
<path d="M0 0 C0.495 0.268125 0.99 0.53625 1.5 0.8125 C4.9236946 2.43875493 8.44132285 3.69515171 12 5 C12 5.33 12 5.66 12 6 C3.42857143 6.28571429 3.42857143 6.28571429 0 4 C0 2.68 0 1.36 0 0 Z " fill="#EACE02" transform="translate(214,59)"/>
<path d="M0 0 C0.99 0 1.98 0 3 0 C3.33 2.31 3.66 4.62 4 7 C1.69 7 -0.62 7 -3 7 C-1.125 2.25 -1.125 2.25 0 0 Z " fill="#4E440B" transform="translate(254,24)"/>
<path d="M0 0 C4.75 0.875 4.75 0.875 7 2 C6.67 2.99 6.34 3.98 6 5 C3.69 5.33 1.38 5.66 -1 6 C-1 5.34 -1 4.68 -1 4 C-0.34 4 0.32 4 1 4 C0.67 2.68 0.34 1.36 0 0 Z " fill="#4C420A" transform="translate(301,84)"/>
<path d="M0 0 C4.29 0 8.58 0 13 0 C10.13700494 2.86299506 8.34147716 2.99421225 4.3125 3.0625 C3.219375 3.041875 2.12625 3.02125 1 3 C0.67 2.01 0.34 1.02 0 0 Z " fill="#CEC003" transform="translate(212,75)"/>
<path d="M0 0 C1.65 0 3.3 0 5 0 C5 1.65 5 3.3 5 5 C4.01 5 3.02 5 2 5 C2 5.99 2 6.98 2 8 C1.34 8 0.68 8 0 8 C0 5.36 0 2.72 0 0 Z " fill="#5A4D0B" transform="translate(243,23)"/>
<path d="M0 0 C2.31 1.98 4.62 3.96 7 6 C5.95206337 10.19174654 5.08236365 11.21592961 2 14 C1.34 13.67 0.68 13.34 0 13 C1.32 11.68 2.64 10.36 4 9 C2.84826645 6.53199953 1.95216435 4.95216435 0 3 C0 2.01 0 1.02 0 0 Z " fill="#5E0705" transform="translate(244,75)"/>
<path d="M0 0 C-0.33 0.99 -0.66 1.98 -1 3 C-3.06640625 3.94921875 -3.06640625 3.94921875 -5.5625 4.6875 C-6.38878906 4.93886719 -7.21507812 5.19023438 -8.06640625 5.44921875 C-8.70449219 5.63097656 -9.34257812 5.81273438 -10 6 C-10 5.01 -10 4.02 -10 3 C-3.375 -1.125 -3.375 -1.125 0 0 Z " fill="#96A307" transform="translate(273,67)"/>
<path d="M0 0 C4.29 0.66 8.58 1.32 13 2 C13 2.66 13 3.32 13 4 C9.04 4 5.08 4 1 4 C0.67 2.68 0.34 1.36 0 0 Z " fill="#DDC704" transform="translate(213,65)"/>
<path d="M0 0 C2.64 0 5.28 0 8 0 C6.95125002 2.62187494 6.35068687 3.79371361 3.875 5.25 C3.25625 5.4975 2.6375 5.745 2 6 C2 4.68 2 3.36 2 2 C1.34 2 0.68 2 0 2 C0 1.34 0 0.68 0 0 Z " fill="#463C09" transform="translate(297,60)"/>
<path d="M0 0 C2 1 2 1 4 3 C4.33 3 4.66 3 5 3 C5 4.65 5 6.3 5 8 C4.34 8 3.68 8 3 8 C3 7.34 3 6.68 3 6 C2.01 6 1.02 6 0 6 C0 5.34 0 4.68 0 4 C-0.66 4 -1.32 4 -2 4 C-2 3.01 -2 2.02 -2 1 C-1.34 0.67 -0.68 0.34 0 0 Z " fill="#53920A" transform="translate(234,84)"/>
<path d="M0 0 C1.04449911 3.13349732 0.93423645 3.98968256 0 7 C0.66 7 1.32 7 2 7 C2.66 5.35 3.32 3.7 4 2 C4.33 2 4.66 2 5 2 C5.042721 3.66611905 5.04063832 5.33382885 5 7 C4 8 4 8 1.4375 8.0625 C0.633125 8.041875 -0.17125 8.02125 -1 8 C-1.93065133 5.39417629 -2.14917407 4.35801776 -1.0625 1.75 C-0.711875 1.1725 -0.36125 0.595 0 0 Z " fill="#473C09" transform="translate(229,126)"/>
<path d="M0 0 C0.33 1.98 0.66 3.96 1 6 C-1.31 5.67 -3.62 5.34 -6 5 C-3.74193548 0 -3.74193548 0 0 0 Z " fill="#2AA602" transform="translate(260,94)"/>
<path d="M0 0 C2.4375 0.8125 2.4375 0.8125 5 2 C5.33 2.99 5.66 3.98 6 5 C3.69 5.66 1.38 6.32 -1 7 C-0.67 4.69 -0.34 2.38 0 0 Z " fill="#27A602" transform="translate(240,94)"/>
<path d="M0 0 C2.475 0.495 2.475 0.495 5 1 C4.67 1.66 4.34 2.32 4 3 C3.34 3 2.68 3 2 3 C2 3.66 2 4.32 2 5 C2.66 5.33 3.32 5.66 4 6 C3.01 6 2.02 6 1 6 C1 6.66 1 7.32 1 8 C1.99 8.33 2.98 8.66 4 9 C2.02 9.99 2.02 9.99 0 11 C0 7.37 0 3.74 0 0 Z " fill="#BFA60B" transform="translate(299,75)"/>
<path d="M0 0 C1.98 0.66 3.96 1.32 6 2 C5.01 4.31 4.02 6.62 3 9 C2.34 9 1.68 9 1 9 C1.020625 8.071875 1.04125 7.14375 1.0625 6.1875 C1.15769604 2.97713989 1.15769604 2.97713989 0 0 Z " fill="#CEB306" transform="translate(228,124)"/>
<path d="M0 0 C0.66 0 1.32 0 2 0 C2 0.66 2 1.32 2 2 C2.99 1.34 3.98 0.68 5 0 C6.32 0 7.64 0 9 0 C9 0.66 9 1.32 9 2 C7.35 2.33 5.7 2.66 4 3 C4 3.66 4 4.32 4 5 C4.66 5.33 5.32 5.66 6 6 C5.01 6.33 4.02 6.66 3 7 C2.01 4.69 1.02 2.38 0 0 Z " fill="#D4B806" transform="translate(194,103)"/>
<path d="M0 0 C2.31 0.66 4.62 1.32 7 2 C7 2.99 7 3.98 7 5 C4.36 5.33 1.72 5.66 -1 6 C-1 5.34 -1 4.68 -1 4 C0.32 4 1.64 4 3 4 C3 3.34 3 2.68 3 2 C2.01 2 1.02 2 0 2 C0 1.34 0 0.68 0 0 Z " fill="#53460A" transform="translate(192,76)"/>
<path d="M0 0 C0.33 0.99 0.66 1.98 1 3 C-2.95523655 5.75668002 -6.22423661 6.5317879 -11 7 C-11 6.34 -11 5.68 -11 5 C-10.37351562 4.80664062 -9.74703125 4.61328125 -9.1015625 4.4140625 C-8.28429687 4.15367188 -7.46703125 3.89328125 -6.625 3.625 C-5.81289063 3.36976562 -5.00078125 3.11453125 -4.1640625 2.8515625 C-1.83540815 2.10145717 -1.83540815 2.10145717 0 0 Z " fill="#DBC705" transform="translate(286,64)"/>
<path d="M0 0 C4.455 2.97 4.455 2.97 9 6 C7.68 6.99 6.36 7.98 5 9 C4.34 8.67 3.68 8.34 3 8 C3.66 7.01 4.32 6.02 5 5 C4.34 5 3.68 5 3 5 C2.67 5.66 2.34 6.32 2 7 C2 5.68 2 4.36 2 3 C1.34 3 0.68 3 0 3 C0 2.01 0 1.02 0 0 Z " fill="#D4BA06" transform="translate(282,30)"/>
<path d="M0 0 C0.99 0.33 1.98 0.66 3 1 C2.67 1.66 2.34 2.32 2 3 C2.66 3.33 3.32 3.66 4 4 C3.01 4.33 2.02 4.66 1 5 C-0.66710346 6.49985609 -0.66710346 6.49985609 -2 8 C-1.67 6.68 -1.34 5.36 -1 4 C-1.99 3.67 -2.98 3.34 -4 3 C-2.1875 1.4375 -2.1875 1.4375 0 0 Z " fill="#453C0B" transform="translate(297,49)"/>
<path d="M0 0 C3.65316671 1.24976756 4.78065836 1.67098753 7 5 C5.68 5 4.36 5 3 5 C3 5.66 3 6.32 3 7 C2.34 7 1.68 7 1 7 C0.67 4.69 0.34 2.38 0 0 Z " fill="#40380B" transform="translate(219,32)"/>
<path d="M0 0 C0 2.64 0 5.28 0 8 C-0.66 8 -1.32 8 -2 8 C-2 7.01 -2 6.02 -2 5 C-3.32 4.67 -4.64 4.34 -6 4 C-2.25 0 -2.25 0 0 0 Z " fill="#443A0D" transform="translate(276,29)"/>
<path d="M0 0 C0 0.66 0 1.32 0 2 C-2.75078884 2.91692961 -4.35948913 3.10886083 -7.1875 3.0625 C-9.0746875 3.0315625 -9.0746875 3.0315625 -11 3 C-11.33 2.34 -11.66 1.68 -12 1 C-7.95858806 0.36605303 -4.0934693 -0.12404452 0 0 Z " fill="#CFC004" transform="translate(285,79)"/>
<path d="M0 0 C-1.34050949 4.02152847 -3.51929173 4.70273254 -7 7 C-8.83300909 9.10575643 -8.83300909 9.10575643 -10 11 C-9.58534283 6.16233301 -7.5801385 4.14353624 -4 1 C-2 0 -2 0 0 0 Z " fill="#C6BD05" transform="translate(272,62)"/>
<path d="M0 0 C2.64 0 5.28 0 8 0 C8 0.66 8 1.32 8 2 C7.34 2 6.68 2 6 2 C6.33 2.99 6.66 3.98 7 5 C2.25 3.125 2.25 3.125 0 2 C0 1.34 0 0.68 0 0 Z " fill="#5C4F09" transform="translate(299,94)"/>
<path d="M0 0 C-3.85756507 2.15305957 -6.55129785 3.39253254 -11 3 C-11.33 2.34 -11.66 1.68 -12 1 C-3.96428571 -1.27678571 -3.96428571 -1.27678571 0 0 Z " fill="#D2C103" transform="translate(226,79)"/>
<path d="M0 0 C2.31 0.33 4.62 0.66 7 1 C7 1.99 7 2.98 7 4 C5.02 4 3.04 4 1 4 C0.67 2.68 0.34 1.36 0 0 Z " fill="#9E9906" transform="translate(228,74)"/>
<path d="M0 0 C0.2475 0.61875 0.495 1.2375 0.75 1.875 C2.20628639 4.35068687 3.37812506 4.95125002 6 6 C2.25 7.125 2.25 7.125 0 6 C-0.33 6.99 -0.66 7.98 -1 9 C-1.09765625 2.84765625 -1.09765625 2.84765625 -1 1 C-0.67 0.67 -0.34 0.34 0 0 Z " fill="#4F9C07" transform="translate(213,59)"/>
<path d="M0 0 C0.33 0.99 0.66 1.98 1 3 C-4.75 7 -4.75 7 -7 7 C-7 6.01 -7 5.02 -7 4 C-6.34 4 -5.68 4 -5 4 C-5 3.34 -5 2.68 -5 2 C-2 0 -2 0 0 0 Z " fill="#C2AD07" transform="translate(227,35)"/>
<path d="M0 0 C-3.79692186 2.82561627 -6.18569279 4.56638908 -11 4 C-11 3.34 -11 2.68 -11 2 C-9.54494642 1.47007308 -8.08581873 0.9513211 -6.625 0.4375 C-5.81289062 0.14746094 -5.00078125 -0.14257812 -4.1640625 -0.44140625 C-2 -1 -2 -1 0 0 Z " fill="#D5C304" transform="translate(229,85)"/>
<path d="M0 0 C1.051875 0.680625 1.051875 0.680625 2.125 1.375 C5.02984591 3.01686943 7.8139348 4.03677099 11 5 C10.01 6.32 9.02 7.64 8 9 C6.66079162 7.88200014 5.32877444 6.75538103 4 5.625 C2.88625 4.68527344 2.88625 4.68527344 1.75 3.7265625 C1.1725 3.15679687 0.595 2.58703125 0 2 C0 1.34 0 0.68 0 0 Z " fill="#538506" transform="translate(280,43)"/>
<path d="M0 0 C0.66 0 1.32 0 2 0 C5 4.38461538 5 4.38461538 5 7 C4.401875 6.690625 3.80375 6.38125 3.1875 6.0625 C0.91043228 4.89790296 0.91043228 4.89790296 -2 4 C-1.34 2.68 -0.68 1.36 0 0 Z " fill="#584A09" transform="translate(212,36)"/>
<path d="M0 0 C0.66 0 1.32 0 2 0 C2.33 2.31 2.66 4.62 3 7 C2.01 7 1.02 7 0 7 C-1.125 2.25 -1.125 2.25 0 0 Z " fill="#F1D002" transform="translate(256,114)"/>
<path d="M0 0 C1.32 0.66 2.64 1.32 4 2 C3.01 3.485 3.01 3.485 2 5 C2.66 5.33 3.32 5.66 4 6 C3.34 6 2.68 6 2 6 C1.67 6.66 1.34 7.32 1 8 C-0.42944945 5.64561267 -1.08661261 4.51967567 -0.625 1.75 C-0.41875 1.1725 -0.2125 0.595 0 0 Z " fill="#D4B807" transform="translate(192,93)"/>
<path d="M0 0 C0 0.99 0 1.98 0 3 C-2.9063515 5.80255323 -3.78825048 6 -8 6 C-8 5.34 -8 4.68 -8 4 C-5.36 2.68 -2.72 1.36 0 0 Z " fill="#DAC503" transform="translate(230,86)"/>
<path d="M0 0 C2.97 0.495 2.97 0.495 6 1 C6 2.65 6 4.3 6 6 C5.01 6 4.02 6 3 6 C2.01 4.02 1.02 2.04 0 0 Z " fill="#BEA508" transform="translate(290,52)"/>
<path d="M0 0 C4.95 0.99 4.95 0.99 10 2 C8 4 8 4 6.0546875 4.1953125 C4.03645833 4.13020833 2.01822917 4.06510417 0 4 C0 2.68 0 1.36 0 0 Z " fill="#DDC803" transform="translate(238,39)"/>
<path d="M0 0 C2.19191368 2.19191368 2.27869352 3.11477408 3 6 C3.66 6.66 4.32 7.32 5 8 C4.34 8.66 3.68 9.32 3 10 C3 9.34 3 8.68 3 8 C2.01 8 1.02 8 0 8 C0 5.36 0 2.72 0 0 Z " fill="#859509" transform="translate(234,104)"/>
<path d="M0 0 C-0.33 0.99 -0.66 1.98 -1 3 C-3.75078884 3.91692961 -5.35948913 4.10886083 -8.1875 4.0625 C-10.0746875 4.0315625 -10.0746875 4.0315625 -12 4 C-12 3.67 -12 3.34 -12 3 C-10.37604003 2.49663233 -8.75079459 1.99741024 -7.125 1.5 C-6.22007812 1.2215625 -5.31515625 0.943125 -4.3828125 0.65625 C-2 0 -2 0 0 0 Z " fill="#D0C105" transform="translate(287,70)"/>
<path d="M0 0 C0.99 0.33 1.98 0.66 3 1 C2.67 1.99 2.34 2.98 2 4 C1.34 4 0.68 4 0 4 C-0.33 4.99 -0.66 5.98 -1 7 C-1.33 5.02 -1.66 3.04 -2 1 C-1.34 0.67 -0.68 0.34 0 0 Z " fill="#635409" transform="translate(267,127)"/>
<path d="M0 0 C0.99 0 1.98 0 3 0 C3 1.98 3 3.96 3 6 C2.01 6 1.02 6 0 6 C0 4.02 0 2.04 0 0 Z " fill="#D8C204" transform="translate(251,117)"/>
<path d="M0 0 C0.99 0 1.98 0 3 0 C3 1.98 3 3.96 3 6 C2.01 6 1.02 6 0 6 C0 4.02 0 2.04 0 0 Z " fill="#E4C903" transform="translate(246,117)"/>
<path d="M0 0 C0.66 0 1.32 0 2 0 C2 2.31 2 4.62 2 7 C1.01 7 0.02 7 -1 7 C-0.67 4.69 -0.34 2.38 0 0 Z " fill="#F5D301" transform="translate(242,114)"/>
<path d="M0 0 C0 3 0 3 -1.25 4.75 C-1.8275 5.1625 -2.405 5.575 -3 6 C-4.32 5.67 -5.64 5.34 -7 5 C-4.69 3.35 -2.38 1.7 0 0 Z " fill="#D5C305" transform="translate(232,89)"/>
<path d="M0 0 C2.64 0 5.28 0 8 0 C8 1.65 8 3.3 8 5 C7.01 4.67 6.02 4.34 5 4 C5 3.01 5 2.02 5 1 C3.35 1 1.7 1 0 1 C0 0.67 0 0.34 0 0 Z " fill="#73620B" transform="translate(301,74)"/>
<path d="M0 0 C3.3 0 6.6 0 10 0 C7.23776722 2.76223278 4.79293383 2.57856291 1 3 C0.67 2.01 0.34 1.02 0 0 Z " fill="#638808" transform="translate(229,34)"/>
<path d="M0 0 C1.65 0 3.3 0 5 0 C5.33 0.99 5.66 1.98 6 3 C4.02 3.33 2.04 3.66 0 4 C0 2.68 0 1.36 0 0 Z " fill="#C4AA06" transform="translate(269,132)"/>
<path d="M0 0 C0.66 0 1.32 0 2 0 C1.34 2.64 0.68 5.28 0 8 C-0.33 7.34 -0.66 6.68 -1 6 C-1.66 5.67 -2.32 5.34 -3 5 C-2.67 4.01 -2.34 3.02 -2 2 C-1.34 2 -0.68 2 0 2 C0 1.34 0 0.68 0 0 Z " fill="#C5AB09" transform="translate(307,94)"/>
<path d="M0 0 C-1.15173355 2.46800047 -2.04783565 4.04783565 -4 6 C-4.99 5.67 -5.98 5.34 -7 5 C-2.25 0 -2.25 0 0 0 Z " fill="#CFC006" transform="translate(236,91)"/>
<path d="M0 0 C1.65 0.33 3.3 0.66 5 1 C5 1.99 5 2.98 5 4 C4.01 4 3.02 4 2 4 C1.67 3.34 1.34 2.68 1 2 C0.01 3.485 0.01 3.485 -1 5 C-0.67 3.35 -0.34 1.7 0 0 Z " fill="#ACA00A" transform="translate(246,44)"/>
</svg>
