<?xml version="1.0" encoding="UTF-8"?>
<svg version="1.1" xmlns="http://www.w3.org/2000/svg" width="481" height="100">
<path d="M0 0 C0.74185547 0.35650635 1.48371094 0.7130127 2.24804688 1.08032227 C13.58384039 6.71306739 23.57737532 14.12752154 32 23.625 C32.72960937 24.33527344 33.45921875 25.04554687 34.2109375 25.77734375 C36.82031635 29.93070005 36.60065744 33.56253331 36.5 38.375 C36.47969727 39.77347168 36.47969727 39.77347168 36.45898438 41.20019531 C36.00815184 56.56519715 31.60971073 70.28653786 24 83.625 C23.43716309 84.65326904 22.87432617 85.68153809 22.29443359 86.7409668 C18.44274299 91.58242467 12.95238493 91.67443512 7.12316895 92.40783691 C1.58071203 92.97473342 -3.94928 93.06653723 -9.51660156 93.01611328 C-11.63150931 92.99995025 -13.74452235 93.01611672 -15.859375 93.03515625 C-24.26752143 93.05109233 -33.16920309 92.97520044 -41 89.625 C-44.09902369 86.25435541 -46.02755127 82.7383435 -48 78.625 C-48.45761719 77.80386719 -48.91523437 76.98273438 -49.38671875 76.13671875 C-54.85086444 66.1109139 -57.75054464 54.92821245 -59 43.625 C-59.19722656 41.99691406 -59.19722656 41.99691406 -59.3984375 40.3359375 C-59.81065881 34.26633406 -59.44260854 30.34448232 -55.6875 25.4375 C-54.16780947 23.7927211 -52.60246237 22.18924784 -51 20.625 C-50.17886719 19.79226562 -49.35773437 18.95953125 -48.51171875 18.1015625 C-35.92564522 5.98163984 -17.58766356 -8.54688171 0 0 Z " fill="#0B8E01" transform="translate(88,3.375)"/>
<path d="M0 0 C6.765 -0.0825 13.53 -0.165 20.5 -0.25 C22.61986328 -0.28641602 24.73972656 -0.32283203 26.92382812 -0.36035156 C28.62629182 -0.37204691 30.3287668 -0.38223673 32.03125 -0.390625 C32.89717773 -0.41108887 33.76310547 -0.43155273 34.65527344 -0.45263672 C40.58541687 -0.45600229 45.05627956 0.62599832 50 4 C54.68470785 9.04507 55.38492545 12.41582807 55.3671875 19.15625 C54.79818532 23.56299028 52.91365182 25.7221417 50 29 C50.39832031 29.54527344 50.79664063 30.09054688 51.20703125 30.65234375 C56.6125092 38.34627223 58.66996968 44.68978778 60 54 C51.42 54 42.84 54 34 54 C32.375 46.25 32.375 46.25 31.90771484 43.82910156 C31.76027832 43.1894043 31.6128418 42.54970703 31.4609375 41.890625 C31.32478027 41.24125977 31.18862305 40.59189453 31.04833984 39.92285156 C29.72840494 37.14725958 29.72840494 37.14725958 24 34 C24 40.6 24 47.2 24 54 C16.08 54 8.16 54 0 54 C0 36.18 0 18.36 0 0 Z M24 12 C24 15.3 24 18.6 24 22 C26.45224694 21.89386164 26.45224694 21.89386164 29 21 C30.37466625 18.52363988 30.37466625 18.52363988 31 16 C29.18777466 13.9375006 29.18777466 13.9375006 27 12 C26.01 12 25.02 12 24 12 Z " fill="#000000" transform="translate(308,24)"/>
<path d="M0 0 C8.25 0 16.5 0 25 0 C25.33 9.9 25.66 19.8 26 30 C26.66 30 27.32 30 28 30 C29.00158069 26.6210018 29.19578116 23.43723472 29.31640625 19.921875 C29.35830078 18.76171875 29.40019531 17.6015625 29.44335938 16.40625 C29.48267578 15.1996875 29.52199219 13.993125 29.5625 12.75 C29.60568359 11.52796875 29.64886719 10.3059375 29.69335938 9.046875 C29.79937283 6.03138119 29.9001844 3.01570532 30 0 C37.92 0 45.84 0 54 0 C54.09248149 4.66003933 54.17190971 9.31682043 54.21972656 13.97705078 C54.23968422 15.55789045 54.2668606 17.13865783 54.30175781 18.71923828 C54.53123393 29.38987784 53.93357668 37.44403887 48.3125 46.8125 C41.19134136 53.54873115 33.36509498 55.49750615 23.78515625 55.3984375 C16.79208917 54.66232518 10.85825943 52.0195231 5.9921875 46.87890625 C1.00166283 39.92351317 -0.26332439 32.65222498 -0.1953125 24.21875 C-0.1924826 23.51979614 -0.18965271 22.82084229 -0.18673706 22.10070801 C-0.1756727 19.90028684 -0.15059606 17.70029507 -0.125 15.5 C-0.11495235 13.99479761 -0.10582965 12.48958874 -0.09765625 10.984375 C-0.07749242 7.32262405 -0.038321 3.66178427 0 0 Z " fill="#000000" transform="translate(185,24)"/>
<path d="M0 0 C6.455625 -0.061875 12.91125 -0.12375 19.5625 -0.1875 C21.58705322 -0.21481201 23.61160645 -0.24212402 25.69750977 -0.27026367 C27.32046921 -0.27903386 28.94343531 -0.28667654 30.56640625 -0.29296875 C31.80819641 -0.3159906 31.80819641 -0.3159906 33.07507324 -0.33947754 C39.78758536 -0.34247732 44.4350187 0.90137894 49.75 5.25 C53.62069084 9.98084437 55.31350986 13.95463259 54.9375 20.0625 C54.1130718 25.90441599 51.80661964 29.36963594 47.4375 33.3125 C43.82810692 35.81131059 40.98076865 36.17874243 36.6875 36.25 C35.76324219 36.27578125 34.83898437 36.3015625 33.88671875 36.328125 C31 36 31 36 25 33 C25 39.93 25 46.86 25 54 C16.75 54 8.5 54 0 54 C0 36.18 0 18.36 0 0 Z M25 12 C25 15.63 25 19.26 25 23 C26.65 22.67 28.3 22.34 30 22 C32.28138945 19.24301816 32.28138945 19.24301816 31.8125 16.4375 C31.16627558 13.66744883 31.16627558 13.66744883 28 12 C27.01 12 26.02 12 25 12 Z " fill="#000000" transform="translate(249,24)"/>
<path d="M0 0 C0.74185547 0.35650635 1.48371094 0.7130127 2.24804688 1.08032227 C13.58384039 6.71306739 23.57737532 14.12752154 32 23.625 C32.72960937 24.33527344 33.45921875 25.04554687 34.2109375 25.77734375 C36.82031635 29.93070005 36.60065744 33.56253331 36.5 38.375 C36.47969727 39.77347168 36.47969727 39.77347168 36.45898438 41.20019531 C36.00815184 56.56519715 31.60971073 70.28653786 24 83.625 C23.43716309 84.65326904 22.87432617 85.68153809 22.29443359 86.7409668 C18.44274299 91.58242467 12.95238493 91.67443512 7.12316895 92.40783691 C1.58071203 92.97473342 -3.94928 93.06653723 -9.51660156 93.01611328 C-11.63150931 92.99995025 -13.74452235 93.01611672 -15.859375 93.03515625 C-24.26752143 93.05109233 -33.16920309 92.97520044 -41 89.625 C-44.09902369 86.25435541 -46.02755127 82.7383435 -48 78.625 C-48.45761719 77.80386719 -48.91523437 76.98273438 -49.38671875 76.13671875 C-54.85086444 66.1109139 -57.75054464 54.92821245 -59 43.625 C-59.19722656 41.99691406 -59.19722656 41.99691406 -59.3984375 40.3359375 C-59.81065881 34.26633406 -59.44260854 30.34448232 -55.6875 25.4375 C-54.16780947 23.7927211 -52.60246237 22.18924784 -51 20.625 C-50.17886719 19.79226562 -49.35773437 18.95953125 -48.51171875 18.1015625 C-35.92564522 5.98163984 -17.58766356 -8.54688171 0 0 Z M-41.953125 20.7109375 C-44.90436841 24.45013425 -46.83120454 27.94981817 -48 32.625 C-47.01 32.625 -46.02 32.625 -45 32.625 C-44.67 31.305 -44.34 29.985 -44 28.625 C-42.68 28.625 -41.36 28.625 -40 28.625 C-40 29.285 -40 29.945 -40 30.625 C-40.66 30.955 -41.32 31.285 -42 31.625 C-42.65555119 34.15233235 -42.65555119 34.15233235 -43 36.625 C-44.65 36.625 -46.3 36.625 -48 36.625 C-48.33 35.965 -48.66 35.305 -49 34.625 C-52.83349727 40.89660154 -51.69523265 49.32443675 -50.2421875 56.22265625 C-48.55972458 61.9920468 -46.76024551 66.92469311 -43 71.625 C-42.46375 72.429375 -41.9275 73.23375 -41.375 74.0625 C-35.49599228 80.40563991 -27.353653 86.18750277 -18.50390625 86.796875 C-16.32518883 86.81047074 -14.17400267 86.76087517 -12 86.625 C-11.34 84.975 -10.68 83.325 -10 81.625 C-9.34 81.625 -8.68 81.625 -8 81.625 C-8.495 82.07875 -8.99 82.5325 -9.5 83 C-11.22609337 84.50135519 -11.22609337 84.50135519 -11 86.625 C-1.35950874 88.02442615 6.94805855 84.05182484 14.64379883 78.42260742 C22.4564089 72.15633118 27.00948475 63.36804832 29 53.625 C30.02288422 40.46165395 27.3751702 29.93755896 19 19.625 C10.93598876 10.92696331 -0.16168095 6.71483319 -11.8125 6.25 C-23.68700627 6.51851899 -33.88378223 12.09287942 -41.953125 20.7109375 Z " fill="#078D01" transform="translate(88,3.375)"/>
<path d="M0 0 C9.28440851 6.1803259 14.33140212 13.33045843 18.41796875 23.546875 C20.59878861 34.81444427 19.72683671 45.75089703 13.79296875 55.671875 C12.93436179 56.93319141 12.06014737 58.18407764 11.16796875 59.421875 C10.44609375 60.453125 9.72421875 61.484375 8.98046875 62.546875 C5.49965 66.57671879 0.80578858 68.94203127 -3.83203125 71.421875 C-4.98703125 72.040625 -6.14203125 72.659375 -7.33203125 73.296875 C-11.91224634 74.76908699 -16.06486307 74.68085597 -20.83203125 74.421875 C-20.83203125 72.421875 -20.83203125 72.421875 -19.33203125 70.796875 C-18.83703125 70.343125 -18.34203125 69.889375 -17.83203125 69.421875 C-18.49203125 69.421875 -19.15203125 69.421875 -19.83203125 69.421875 C-20.49203125 71.071875 -21.15203125 72.721875 -21.83203125 74.421875 C-31.54377672 75.03849376 -38.00419689 72.11484545 -45.83203125 66.421875 C-46.65703125 65.865 -47.48203125 65.308125 -48.33203125 64.734375 C-56.32861436 57.33753563 -60.26088363 47.37559722 -61.14453125 36.6171875 C-61.31311762 26.48093229 -61.31311762 26.48093229 -58.83203125 22.421875 C-58.50203125 23.081875 -58.17203125 23.741875 -57.83203125 24.421875 C-56.18203125 24.421875 -54.53203125 24.421875 -52.83203125 24.421875 C-52.50203125 22.441875 -52.17203125 20.461875 -51.83203125 18.421875 C-51.17203125 18.421875 -50.51203125 18.421875 -49.83203125 18.421875 C-49.83203125 17.761875 -49.83203125 17.101875 -49.83203125 16.421875 C-51.15203125 16.421875 -52.47203125 16.421875 -53.83203125 16.421875 C-54.16203125 17.741875 -54.49203125 19.061875 -54.83203125 20.421875 C-55.82203125 20.421875 -56.81203125 20.421875 -57.83203125 20.421875 C-55.72959147 11.31130261 -49.10788022 4.87389926 -41.49609375 -0.0703125 C-27.9425974 -7.74135296 -13.69585576 -7.63189756 0 0 Z M-45.83203125 14.421875 C-51.9040896 22.25082333 -53.91444786 30.59894425 -52.83203125 40.421875 C-50.21800832 50.49180424 -44.69199119 57.65787268 -36.078125 63.29296875 C-33.66002358 64.50832755 -31.49742966 65.01433605 -28.83203125 65.421875 C-29.82203125 68.391875 -29.82203125 68.391875 -30.83203125 71.421875 C-29.51203125 72.081875 -28.19203125 72.741875 -26.83203125 73.421875 C-26.50203125 71.111875 -26.17203125 68.801875 -25.83203125 66.421875 C-25.16558594 66.46828125 -24.49914062 66.5146875 -23.8125 66.5625 C-14.63564389 66.92187339 -6.82868968 65.1400022 0.48046875 59.359375 C7.09685415 52.85212586 10.43059881 46.52084626 10.71875 37.20996094 C10.75138185 30.14244593 10.3713215 24.81149595 7.16796875 18.421875 C7.82796875 18.421875 8.48796875 18.421875 9.16796875 18.421875 C9.16796875 19.411875 9.16796875 20.401875 9.16796875 21.421875 C9.82796875 21.421875 10.48796875 21.421875 11.16796875 21.421875 C12.15796875 18.946875 12.15796875 18.946875 13.16796875 16.421875 C11.51796875 16.421875 9.86796875 16.421875 8.16796875 16.421875 C8.16796875 15.761875 8.16796875 15.101875 8.16796875 14.421875 C8.82796875 14.421875 9.48796875 14.421875 10.16796875 14.421875 C9.67296875 12.441875 9.67296875 12.441875 9.16796875 10.421875 C7.18796875 11.411875 7.18796875 11.411875 5.16796875 12.421875 C5.16796875 13.411875 5.16796875 14.401875 5.16796875 15.421875 C4.63429687 14.89078125 4.100625 14.3596875 3.55078125 13.8125 C-4.23330569 6.43243141 -10.58629835 3.26739293 -21.39453125 2.921875 C-31.81463518 3.24684806 -38.75259072 6.81688648 -45.83203125 14.421875 Z " fill="#E9E402" transform="translate(97.83203125,15.578125)"/>
<path d="M0 0 C0.66 0 1.32 0 2 0 C2 0.66 2 1.32 2 2 C3.65 1.67 5.3 1.34 7 1 C7 1.66 7 2.32 7 3 C8.32 3.66 9.64 4.32 11 5 C11 7.64 11 10.28 11 13 C11.99 13 12.98 13 14 13 C14 15.64 14 18.28 14 21 C14.680625 20.2575 15.36125 19.515 16.0625 18.75 C18.09717516 16.69213765 20.07390251 15.29700206 22.625 13.9375 C25.78787057 12.12177801 27.01627011 10.92339142 29 8 C29.66 8 30.32 8 31 8 C31.53293835 9.74635165 32.05090663 11.49727652 32.5625 13.25 C32.85253906 14.22453125 33.14257812 15.1990625 33.44140625 16.203125 C34.00673359 19.03371505 33.77768944 20.30400993 33 23 C33.495 24.485 33.495 24.485 34 26 C33.19767376 28.80814185 32.30604232 31.38791536 31 34 C28.69 34 26.38 34 24 34 C24.99 34.33 25.98 34.66 27 35 C27 35.66 27 36.32 27 37 C26.34 37 25.68 37 25 37 C24.67 37.99 24.34 38.98 24 40 C22.88625 39.0409375 22.88625 39.0409375 21.75 38.0625 C19.21204538 36.15903404 17.98214819 35.60535059 15 35 C15.3609375 35.6290625 15.721875 36.258125 16.09375 36.90625 C19.19790519 42.6316918 20.60262384 46.49166252 20 53 C18.68 52.67 17.36 52.34 16 52 C16 52.99 16 53.98 16 55 C15.34 55 14.68 55 14 55 C14 54.34 14 53.68 14 53 C13.34 53 12.68 53 12 53 C12 53.99 12 54.98 12 56 C10.515 55.505 10.515 55.505 9 55 C9 54.34 9 53.68 9 53 C8.34 53 7.68 53 7 53 C6.67 53.99 6.34 54.98 6 56 C5.34 56 4.68 56 4 56 C3.67 55.34 3.34 54.68 3 54 C1.515 54.495 1.515 54.495 0 55 C0 54.01 0 53.02 0 52 C-1.98 52.495 -1.98 52.495 -4 53 C-4.64317031 45.92512658 -2.82735898 41.90506815 1 36 C0.34 36 -0.32 36 -1 36 C-2.7143618 34.04072937 -4.38405168 32.04119788 -6 30 C-5.67 30.66 -5.34 31.32 -5 32 C-4.33333333 33.33333333 -3.66666667 34.66666667 -3 36 C-3.66 36.66 -4.32 37.32 -5 38 C-8.625 37.625 -8.625 37.625 -12 37 C-12 36.34 -12 35.68 -12 35 C-12.99 34.67 -13.98 34.34 -15 34 C-18.27372715 29.08940928 -18.42661736 23.17592922 -17.6484375 17.3828125 C-16.94368158 14.17459524 -16.0387402 11.1162206 -15 8 C-14.34 8 -13.68 8 -13 8 C-12.4225 8.763125 -11.845 9.52625 -11.25 10.3125 C-8.72067177 13.33364206 -6.51586386 14.31531523 -3 16 C-0.625 18.1875 -0.625 18.1875 1 20 C1.474375 18.865625 1.94875 17.73125 2.4375 16.5625 C4 13 4 13 5 12 C5 11.030625 5 10.06125 5 9.0625 C5 6 5 6 6 4 C5.34 4 4.68 4 4 4 C4 5.65 4 7.3 4 9 C1.03 9 -1.94 9 -5 9 C-4.67 8.01 -4.34 7.02 -4 6 C-2.35 5.67 -0.7 5.34 1 5 C0.67 3.35 0.34 1.7 0 0 Z " fill="#B3D308" transform="translate(69,24)"/>
<path d="M0 0 C0.74185547 0.35650635 1.48371094 0.7130127 2.24804688 1.08032227 C13.58384039 6.71306739 23.57737532 14.12752154 32 23.625 C32.72960937 24.33527344 33.45921875 25.04554687 34.2109375 25.77734375 C36.82031635 29.93070005 36.60065744 33.56253331 36.5 38.375 C36.47969727 39.77347168 36.47969727 39.77347168 36.45898438 41.20019531 C36.00815184 56.56519715 31.60971073 70.28653786 24 83.625 C23.43716309 84.65326904 22.87432617 85.68153809 22.29443359 86.7409668 C18.44274299 91.58242467 12.95238493 91.67443512 7.12316895 92.40783691 C1.58071203 92.97473342 -3.94928 93.06653723 -9.51660156 93.01611328 C-11.63150931 92.99995025 -13.74452235 93.01611672 -15.859375 93.03515625 C-24.26752143 93.05109233 -33.16920309 92.97520044 -41 89.625 C-44.09902369 86.25435541 -46.02755127 82.7383435 -48 78.625 C-48.45761719 77.80386719 -48.91523437 76.98273438 -49.38671875 76.13671875 C-54.85086444 66.1109139 -57.75054464 54.92821245 -59 43.625 C-59.19722656 41.99691406 -59.19722656 41.99691406 -59.3984375 40.3359375 C-59.81065881 34.26633406 -59.44260854 30.34448232 -55.6875 25.4375 C-54.16780947 23.7927211 -52.60246237 22.18924784 -51 20.625 C-50.17886719 19.79226562 -49.35773437 18.95953125 -48.51171875 18.1015625 C-35.92564522 5.98163984 -17.58766356 -8.54688171 0 0 Z M-43 21.9375 C-43.99 23.2678125 -43.99 23.2678125 -45 24.625 C-45.49137451 25.08318115 -45.98274902 25.5413623 -46.48901367 26.01342773 C-51.60774008 31.47290633 -52.43414295 39.02813458 -52.30273438 46.17773438 C-52.26470703 47.12970703 -52.22667969 48.08167969 -52.1875 49.0625 C-52.13524208 50.99859207 -52.08688482 52.9347945 -52.04296875 54.87109375 C-52.01227295 55.71341553 -51.98157715 56.5557373 -51.94995117 57.42358398 C-52 59.625 -52 59.625 -53 62.625 C-50.33411002 71.493384 -46.22730713 84.1186832 -37.80078125 88.86328125 C-35.50811516 89.68459287 -33.40173049 90.22341195 -31 90.625 C-29.99582031 90.80289063 -28.99164063 90.98078125 -27.95703125 91.1640625 C-12.99813887 92.90655934 4.89856202 93.66173599 19 87.625 C22.25462669 84.69640797 23.50319789 81.6846719 25 77.625 C25.75410156 76.07425781 25.75410156 76.07425781 26.5234375 74.4921875 C32.52566508 61.87287001 37.97889204 44.63561311 35 30.625 C32.54405465 26.60027899 29.513688 23.72959833 26 20.625 C24.74544983 19.25415031 23.49493038 17.87959173 22.25 16.5 C19.82578286 14.03316958 19.82578286 14.03316958 16.5 13.375 C15.2625 13.49875 15.2625 13.49875 14 13.625 C12.39180986 12.95492077 10.78597117 12.27796741 9.19921875 11.55859375 C-9.96163125 3.42459171 -28.9887015 5.1155518 -43 21.9375 Z " fill="#078B01" transform="translate(88,3.375)"/>
<path d="M0 0 C0.66 0 1.32 0 2 0 C2 0.66 2 1.32 2 2 C3.65 1.67 5.3 1.34 7 1 C7 1.66 7 2.32 7 3 C8.32 3.66 9.64 4.32 11 5 C11 7.64 11 10.28 11 13 C11.99 13 12.98 13 14 13 C14 15.64 14 18.28 14 21 C14.680625 20.2575 15.36125 19.515 16.0625 18.75 C18.09717516 16.69213765 20.07390251 15.29700206 22.625 13.9375 C25.78787057 12.12177801 27.01627011 10.92339142 29 8 C29.66 8 30.32 8 31 8 C31.53293835 9.74635165 32.05090663 11.49727652 32.5625 13.25 C32.85253906 14.22453125 33.14257812 15.1990625 33.44140625 16.203125 C34.00673359 19.03371505 33.77768944 20.30400993 33 23 C33.495 24.485 33.495 24.485 34 26 C33.19767376 28.80814185 32.30604232 31.38791536 31 34 C28.69 34 26.38 34 24 34 C25.485 34.495 25.485 34.495 27 35 C27 35.66 27 36.32 27 37 C26.34 37 25.68 37 25 37 C24.67 37.99 24.34 38.98 24 40 C22.88625 39.0409375 22.88625 39.0409375 21.75 38.0625 C19.21204538 36.15903404 17.98214819 35.60535059 15 35 C15.37253906 35.66386719 15.74507812 36.32773437 16.12890625 37.01171875 C16.60199219 37.89472656 17.07507813 38.77773438 17.5625 39.6875 C18.03816406 40.55761719 18.51382813 41.42773438 19.00390625 42.32421875 C20.14268368 45.38328753 19.92718689 46.91863039 19 50 C16.39417629 50.93065133 15.35801776 51.14917407 12.75 50.0625 C11.88375 49.5365625 11.88375 49.5365625 11 49 C14.465 48.505 14.465 48.505 18 48 C18 47.34 18 46.68 18 46 C17.01 46.495 17.01 46.495 16 47 C13.28239892 47.07181821 10.59140612 47.09299506 7.875 47.0625 C7.12089844 47.05798828 6.36679688 47.05347656 5.58984375 47.04882812 C3.72652873 47.03703499 1.86325445 47.01909942 0 47 C2 45 2 45 5.4765625 44.8046875 C6.85950968 44.81798507 8.24238654 44.84183768 9.625 44.875 C10.33140625 44.88402344 11.0378125 44.89304688 11.765625 44.90234375 C13.51056098 44.92592397 15.25532295 44.96179539 17 45 C17 44.34 17 43.68 17 43 C16.34 43 15.68 43 15 43 C15 41.68 15 40.36 15 39 C12.69 39.66 10.38 40.32 8 41 C8 38.03 8 35.06 8 32 C8.99 32.66 9.98 33.32 11 34 C9.91215032 30.75016865 9.91215032 30.75016865 8 28 C7.85884839 25.32941149 7.95752893 22.67567762 8 20 C6.02 20.33 4.04 20.66 2 21 C2.75 14.25 2.75 14.25 5 12 C5.04165763 10.00043389 5.04165763 7.99956611 5 6 C5.33 5.34 5.66 4.68 6 4 C5.34 4 4.68 4 4 4 C4 5.65 4 7.3 4 9 C1.03 9 -1.94 9 -5 9 C-4.67 8.01 -4.34 7.02 -4 6 C-2.35 5.67 -0.7 5.34 1 5 C0.67 3.35 0.34 1.7 0 0 Z " fill="#B2DA08" transform="translate(69,24)"/>
<path d="M0 0 C0.32871094 0.71285156 0.65742187 1.42570312 0.99609375 2.16015625 C5.78212231 11.79706471 11.89280252 17.34420517 22 21 C21.67 22.98 21.34 24.96 21 27 C21.99 27.66 22.98 28.32 24 29 C24.33 26.69 24.66 24.38 25 22 C26.485 21.85304688 26.485 21.85304688 28 21.703125 C38.5237822 20.55573023 46.22277327 18.60047158 54 11 C55.52771797 8.72265645 56.75031526 6.45130468 58 4 C58.99 4 59.98 4 61 4 C61.845625 3.79375 62.69125 3.5875 63.5625 3.375 C64.366875 3.25125 65.17125 3.1275 66 3 C66.99 3.99 66.99 3.99 68 5 C62.67103207 15.39856131 57.41579728 21.50045904 47 27 C45.845 27.61875 44.69 28.2375 43.5 28.875 C38.91978491 30.34721199 34.76716818 30.25898097 30 30 C30 28 30 28 31.5 26.375 C31.995 25.92125 32.49 25.4675 33 25 C32.34 25 31.68 25 31 25 C30.34 26.65 29.68 28.3 29 30 C19.28825453 30.61661876 12.82783436 27.69297045 5 22 C4.175 21.443125 3.35 20.88625 2.5 20.3125 C-2.2464698 15.92201544 -6.03856664 10.18605906 -8 4 C-7.67 3.01 -7.34 2.02 -7 1 C-7 1.66 -7 2.32 -7 3 C-6.21625 2.505 -5.4325 2.01 -4.625 1.5 C-2 0 -2 0 0 0 Z " fill="#F7F000" transform="translate(47,60)"/>
<path d="M0 0 C0.74185547 0.35650635 1.48371094 0.7130127 2.24804688 1.08032227 C13.58384039 6.71306739 23.57737532 14.12752154 32 23.625 C32.72960937 24.33527344 33.45921875 25.04554687 34.2109375 25.77734375 C36.82031635 29.93070005 36.60065744 33.56253331 36.5 38.375 C36.47969727 39.77347168 36.47969727 39.77347168 36.45898438 41.20019531 C36.00815184 56.56519715 31.60971073 70.28653786 24 83.625 C23.43716309 84.65326904 22.87432617 85.68153809 22.29443359 86.7409668 C18.44274299 91.58242467 12.95238493 91.67443512 7.12316895 92.40783691 C1.58071203 92.97473342 -3.94928 93.06653723 -9.51660156 93.01611328 C-11.63150931 92.99995025 -13.74452235 93.01611672 -15.859375 93.03515625 C-24.26752143 93.05109233 -33.16920309 92.97520044 -41 89.625 C-44.09902369 86.25435541 -46.02755127 82.7383435 -48 78.625 C-48.45761719 77.80386719 -48.91523437 76.98273438 -49.38671875 76.13671875 C-54.85086444 66.1109139 -57.75054464 54.92821245 -59 43.625 C-59.19722656 41.99691406 -59.19722656 41.99691406 -59.3984375 40.3359375 C-59.81065881 34.26633406 -59.44260854 30.34448232 -55.6875 25.4375 C-54.16780947 23.7927211 -52.60246237 22.18924784 -51 20.625 C-50.17886719 19.79226562 -49.35773437 18.95953125 -48.51171875 18.1015625 C-35.92564522 5.98163984 -17.58766356 -8.54688171 0 0 Z M-22.625 2.0625 C-23.3272168 2.42375977 -24.02943359 2.78501953 -24.75292969 3.15722656 C-36.8864349 9.58019723 -49.28528457 19.05292686 -57 30.625 C-58.93843802 48.85135227 -52.82633037 66.90843753 -44 82.625 C-43.38125 83.759375 -42.7625 84.89375 -42.125 86.0625 C-36.58945649 91.98385412 -25.62621036 91.60568115 -18.08984375 91.94140625 C2.70301582 93.14025852 2.70301582 93.14025852 21.22265625 85.625 C22.89419441 83.02577954 23.93147414 80.52308814 25 77.625 C25.75410156 76.07425781 25.75410156 76.07425781 26.5234375 74.4921875 C32.52566508 61.87287001 37.97889204 44.63561311 35 30.625 C32.54524862 26.60223562 29.51557292 23.72530298 26 20.625 C24.9336276 19.44097618 23.87078941 18.25375397 22.8125 17.0625 C14.25055935 8.69783909 0.11103435 -0.23308369 -11.9296875 -1.7421875 C-15.91829298 -1.2651787 -19.10841603 0.23020153 -22.625 2.0625 Z " fill="#030B03" transform="translate(88,3.375)"/>
<path d="M0 0 C0.66 0.33 1.32 0.66 2 1 C1.01 2.98 0.02 4.96 -1 7 C-0.01 7 0.98 7 2 7 C2.33 5.35 2.66 3.7 3 2 C4.32 2.33 5.64 2.66 7 3 C6.01 5.97 5.02 8.94 4 12 C-0.875 11.125 -0.875 11.125 -2 10 C-5.45402105 20.36206314 -2.77031629 32.42932506 1.98046875 41.96875 C6.74774915 49.59639864 14.57303213 55.90326059 23 59 C26.97791553 59.86879627 30.96167498 60.48847883 35 61 C35 59.35 35 57.7 35 56 C36.32 56 37.64 56 39 56 C38.67 56.99 38.34 57.98 38 59 C37.34 59 36.68 59 36 59 C36 59.66 36 60.32 36 61 C42.76215448 60.59060025 48.67162748 59.43046191 55 57 C55 57.66 55 58.32 55 59 C44.56159227 62.8268467 34.97199481 64.4808003 24 62 C24 62.66 24 63.32 24 64 C31.92 64.33 39.84 64.66 48 65 C48 65.33 48 65.66 48 66 C12.94799406 66.81129272 12.94799406 66.81129272 5.9765625 61.44140625 C4.28977389 59.38215417 3.17214159 57.39009978 2 55 C1.47019531 54.02804688 0.94039062 53.05609375 0.39453125 52.0546875 C-6.52989866 38.92952106 -6.52989866 38.92952106 -5.51953125 33.34375 C-5.000061 30.0003926 -5.0328983 27.04041168 -5.16601562 23.67919922 C-5.49810499 14.56798003 -4.45560499 8.11556624 0 0 Z " fill="#068602" transform="translate(41,29)"/>
<path d="M0 0 C0.66 0 1.32 0 2 0 C5.60054073 7.53101149 4.94204193 17.53760773 2.875 25.5 C0.47542428 32.18770641 -3.19453728 36.40206776 -9.625 39.4375 C-12.8231742 40.77848883 -14.38325518 41 -18 41 C-18 40.01 -18 39.02 -18 38 C-16.68 38.33 -15.36 38.66 -14 39 C-15.11156894 31.72826255 -15.11156894 31.72826255 -18.1875 25.125 C-20 22 -20 22 -19.75 19.5625 C-19.5025 19.046875 -19.255 18.53125 -19 18 C-18.34 18.99 -17.68 19.98 -17 21 C-15.06669397 22.09166275 -15.06669397 22.09166275 -13 23 C-12.01 23.66 -11.02 24.32 -10 25 C-9.67 24.34 -9.34 23.68 -9 23 C-8.34 23 -7.68 23 -7 23 C-7 22.34 -7 21.68 -7 21 C-8.32 20.67 -9.64 20.34 -11 20 C-8.13822943 18.56911472 -6.06624227 19.40008303 -3 20 C-2.01 16.7 -1.02 13.4 0 10 C-0.66 9.67 -1.32 9.34 -2 9 C-1.855625 8.443125 -1.71125 7.88625 -1.5625 7.3125 C-0.97230872 4.88615805 -0.476571 2.45093655 0 0 Z " fill="#0A9401" transform="translate(103,38)"/>
<path d="M0 0 C0.66 0 1.32 0 2 0 C2.5775 0.763125 3.155 1.52625 3.75 2.3125 C6.28671086 5.3424602 8.48639367 6.27904996 12 8 C14.875 10.0625 14.875 10.0625 17 13 C17.40904095 16.37588229 17.29551675 19.61797501 17 23 C16.67 23 16.34 23 16 23 C15.67 20.69 15.34 18.38 15 16 C14.87625 16.804375 14.7525 17.60875 14.625 18.4375 C14.41875 19.283125 14.2125 20.12875 14 21 C13.34 21.33 12.68 21.66 12 22 C11.67 22.66 11.34 23.32 11 24 C10.34 22.68 9.68 21.36 9 20 C8.66781808 23.00259517 8.66781808 23.00259517 10.5 24.6875 C10.995 25.120625 11.49 25.55375 12 26 C11.34 27.32 10.68 28.64 10 30 C7.69 29.67 5.38 29.34 3 29 C3 28.34 3 27.68 3 27 C2.01 26.67 1.02 26.34 0 26 C-3.27372715 21.08940928 -3.42661736 15.17592922 -2.6484375 9.3828125 C-1.94368158 6.17459524 -1.0387402 3.1162206 0 0 Z " fill="#BCDF05" transform="translate(54,32)"/>
<path d="M0 0 C0.66 0.33 1.32 0.66 2 1 C1.52747778 7.93032594 -1.09621902 13.74814369 -4 20 C-4.40992188 20.95390625 -4.81984375 21.9078125 -5.2421875 22.890625 C-7.06587068 26.58115547 -8.56339257 29.3590142 -12.42236328 31.08081055 C-20.78414125 33.08881802 -28.73584547 33.38620494 -37.3125 33.25 C-38.63056641 33.24484375 -39.94863281 33.2396875 -41.30664062 33.234375 C-47.31476856 33.18584898 -53.05642098 32.94236109 -59 32 C-59 31.67 -59 31.34 -59 31 C-58.236875 30.855625 -57.47375 30.71125 -56.6875 30.5625 C-53.91827092 30.0367406 -53.91827092 30.0367406 -51 29 C-49.66171159 29.31284664 -48.32905554 29.64999961 -47 30 C-39.58609041 30.52238929 -33.04093688 30.17415675 -26.0234375 27.65625 C-24 27 -24 27 -21 27 C-21 26.01 -21 25.02 -21 24 C-19.171875 22.4296875 -19.171875 22.4296875 -16.75 20.875 C-15.96109375 20.35679688 -15.1721875 19.83859375 -14.359375 19.3046875 C-12.17487421 18.09670196 -10.39464494 17.58592376 -8 17 C-6.64691687 15.68671343 -5.31129922 14.35500919 -4 13 C-3.34 13 -2.68 13 -2 13 C-2.36867187 12.43796875 -2.73734375 11.8759375 -3.1171875 11.296875 C-4 9 -4 9 -3.3203125 6.640625 C-2.92585938 5.85171875 -2.53140625 5.0628125 -2.125 4.25 C-1.73570313 3.45078125 -1.34640625 2.6515625 -0.9453125 1.828125 C-0.63335937 1.22484375 -0.32140625 0.6215625 0 0 Z " fill="#039301" transform="translate(117,61)"/>
<path d="M0 0 C0.32871094 0.71285156 0.65742187 1.42570312 0.99609375 2.16015625 C5.78212231 11.79706471 11.89280252 17.34420517 22 21 C20.125 26.875 20.125 26.875 19 28 C11.52682734 28.16246028 6.44513372 23.73061391 1 19 C-3.15603658 14.56689431 -6.08004679 9.75985963 -8 4 C-7.67 3.01 -7.34 2.02 -7 1 C-7 1.66 -7 2.32 -7 3 C-6.21625 2.505 -5.4325 2.01 -4.625 1.5 C-2 0 -2 0 0 0 Z " fill="#F8F100" transform="translate(47,60)"/>
<path d="M0 0 C1.65 1.32 3.3 2.64 5 4 C4.34 2.68 3.68 1.36 3 0 C5.97 0.495 5.97 0.495 9 1 C8.61328125 1.50789063 8.2265625 2.01578125 7.828125 2.5390625 C-0.23719067 13.19965301 -3.35813544 20.04864036 -2.6796875 33.671875 C-3 37 -3 37 -4.8828125 38.953125 C-7 40 -7 40 -9 40 C-9 39.34 -9 38.68 -9 38 C-9.66 38 -10.32 38 -11 38 C-11.96308613 33.93962888 -12.16520857 30.10599699 -12.1875 25.9375 C-12.20167969 24.72964844 -12.21585938 23.52179687 -12.23046875 22.27734375 C-12.01494866 19.21257502 -11.61519102 17.56004585 -10 15 C-9.67 15.66 -9.34 16.32 -9 17 C-7.35 17 -5.7 17 -4 17 C-3.67 15.02 -3.34 13.04 -3 11 C-2.34 11 -1.68 11 -1 11 C-1 10.34 -1 9.68 -1 9 C-2.32 9 -3.64 9 -5 9 C-5.33 10.32 -5.66 11.64 -6 13 C-6.99 13 -7.98 13 -9 13 C-7.54945055 7.43956044 -7.54945055 7.43956044 -5.125 5.5 C-3 5 -3 5 -0.75 5.875 C-0.1725 6.24625 0.405 6.6175 1 7 C1.33 6.01 1.66 5.02 2 4 C0.68 3.34 -0.64 2.68 -2 2 C-1.34 1.34 -0.68 0.68 0 0 Z " fill="#BCB806" transform="translate(49,23)"/>
<path d="M0 0 C0.144375 1.0725 0.28875 2.145 0.4375 3.25 C1.1299732 7.86648801 2.20509351 11.69222443 4 16 C3.01 15.01 2.02 14.02 1 13 C0.67 15.64 0.34 18.28 0 21 C0.598125 20.67 1.19625 20.34 1.8125 20 C4 19 4 19 7 19 C7 20.32 7 21.64 7 23 C7.66 23 8.32 23 9 23 C9 23.66 9 24.32 9 25 C5.75684218 25.96604701 2.81491334 26.13419024 -0.5625 26.125 C-1.51253906 26.12757812 -2.46257812 26.13015625 -3.44140625 26.1328125 C-6 26 -6 26 -9 25 C-9 24.34 -9 23.68 -9 23 C-8.34 23 -7.68 23 -7 23 C-7 21.68 -7 20.36 -7 19 C-6.34 19 -5.68 19 -5 19 C-5.03480469 17.79601562 -5.06960937 16.59203125 -5.10546875 15.3515625 C-5.1336028 13.77605558 -5.16090337 12.20053362 -5.1875 10.625 C-5.22520508 9.43390625 -5.22520508 9.43390625 -5.26367188 8.21875 C-5.29004405 6.14413852 -5.15486462 4.06899135 -5 2 C-2 0 -2 0 0 0 Z " fill="#8B0809" transform="translate(77,44)"/>
<path d="M0 0 C3.59615954 5.3942393 2.6914283 13.22098669 1.546875 19.4765625 C1 21.375 1 21.375 0 24 C-1.3921875 23.938125 -1.3921875 23.938125 -2.8125 23.875 C-6.15809719 23.72863661 -6.15809719 23.72863661 -9 26 C-8.01 15.605 -8.01 15.605 -7 5 C-6.67 5 -6.34 5 -6 5 C-5.67 5.99 -5.34 6.98 -5 8 C-5.33 5.69 -5.66 3.38 -6 1 C-4.02 0.67 -2.04 0.34 0 0 Z " fill="#F5EE01" transform="translate(115,40)"/>
<path d="M0 0 C0.33 0.66 0.66 1.32 1 2 C1.66 2 2.32 2 3 2 C1.9404101 5.26027661 0.83228323 8.37465088 -0.5703125 11.5078125 C-2.54932144 16.75856521 -2.25682877 21.83846339 -2.0625 27.375 C-2.00273481 29.34089326 -1.95151132 31.30707082 -1.91015625 33.2734375 C-1.88058838 34.13372559 -1.85102051 34.99401367 -1.82055664 35.88037109 C-2 38 -2 38 -4 40 C-7.95832609 30.80271291 -9.80313879 18.87042859 -8 9 C-5.78303125 5.42283863 -3.20780145 2.70658248 0 0 Z " fill="#019C01" transform="translate(39,25)"/>
<path d="M0 0 C1.98 0.66 3.96 1.32 6 2 C6.03867188 3.39412109 6.03867188 3.39412109 6.078125 4.81640625 C6.41184726 12.09003466 6.8326391 17.00941871 11 23 C12.13798487 26.15134271 12.10090418 26.69728747 11 30 C9.1875 30.8125 9.1875 30.8125 7 31 C4.75 30.0625 4.75 30.0625 3 29 C6.465 28.505 6.465 28.505 10 28 C10 27.34 10 26.68 10 26 C9.34 26.33 8.68 26.66 8 27 C5.28239892 27.07181821 2.59140612 27.09299506 -0.125 27.0625 C-0.87910156 27.05798828 -1.63320312 27.05347656 -2.41015625 27.04882812 C-4.27347127 27.03703499 -6.13674555 27.01909942 -8 27 C-6 25 -6 25 -2.5234375 24.8046875 C-1.14049032 24.81798507 0.24238654 24.84183768 1.625 24.875 C2.68460938 24.88853516 2.68460938 24.88853516 3.765625 24.90234375 C5.51056098 24.92592397 7.25532295 24.96179539 9 25 C9 24.34 9 23.68 9 23 C8.34 23 7.68 23 7 23 C7 21.68 7 20.36 7 19 C4.69 19.66 2.38 20.32 0 21 C0 18.03 0 15.06 0 12 C0.99 12.66 1.98 13.32 3 14 C1.91215032 10.75016865 1.91215032 10.75016865 0 8 C-0.14115161 5.32941149 -0.04247107 2.67567762 0 0 Z " fill="#92B122" transform="translate(77,44)"/>
<path d="M0 0 C1.19164995 2.523494 2.0358641 4.37237823 1.875 7.1875 C1 9 1 9 -0.75 10.3125 C-3.51320029 11.1568112 -5.24805136 10.76443018 -8 10 C-7.67 10.99 -7.34 11.98 -7 13 C-8.32 12.34 -9.64 11.68 -11 11 C-11.33 11.33 -11.66 11.66 -12 12 C-11.34 12.33 -10.68 12.66 -10 13 C-10.33 14.32 -10.66 15.64 -11 17 C-12.175625 16.4740625 -12.175625 16.4740625 -13.375 15.9375 C-14.24125 15.628125 -15.1075 15.31875 -16 15 C-16.99 15.495 -16.99 15.495 -18 16 C-15.30775639 9.6365151 -7.59003434 0 0 0 Z " fill="#C0BB06" transform="translate(61,14)"/>
<path d="M0 0 C5 2 5 2 10 4 C9.67 3.01 9.34 2.02 9 1 C9.66 1 10.32 1 11 1 C11 1.99 11 2.98 11 4 C12.32 3.34 13.64 2.68 15 2 C15 2.99 15 3.98 15 5 C15.45375 4.505 15.9075 4.01 16.375 3.5 C18 2 18 2 20 2 C21.625 3.5 21.625 3.5 23 5 C23 4.01 23 3.02 23 2 C23.66 2 24.32 2 25 2 C25 2.66 25 3.32 25 4 C26.2375 3.690625 27.475 3.38125 28.75 3.0625 C32.875 2.03125 32.875 2.03125 37 1 C33.00459007 5.4573792 27.83466586 6.82488551 21.96484375 7.1875 C19.30288627 7.1875 16.65832477 7.13415845 14 7 C13.67 9.31 13.34 11.62 13 14 C11.68 13.34 10.36 12.68 9 12 C9.66 10.02 10.32 8.04 11 6 C10.29875 5.9175 9.5975 5.835 8.875 5.75 C5.33014368 4.82525487 2.92295379 3.17522143 0 1 C0 0.67 0 0.34 0 0 Z " fill="#1E7002" transform="translate(58,75)"/>
<path d="M0 0 C1.65 1.32 3.3 2.64 5 4 C4.34 2.68 3.68 1.36 3 0 C5.97 0.495 5.97 0.495 9 1 C8.61328125 1.50789063 8.2265625 2.01578125 7.828125 2.5390625 C6.74164135 3.97515723 5.66262392 5.41692116 4.58984375 6.86328125 C3.35098382 8.52828464 2.08663168 10.17433069 0.8125 11.8125 C-1.73816782 16.2981572 -2.82600212 21.00161509 -4 26 C-4.99 25.34 -5.98 24.68 -7 24 C-6.34 23.01 -5.68 22.02 -5 21 C-6.32 21 -7.64 21 -9 21 C-9.66 20.34 -10.32 19.68 -11 19 C-10.625 16.875 -10.625 16.875 -10 15 C-9.67 15.66 -9.34 16.32 -9 17 C-7.35 17 -5.7 17 -4 17 C-3.67 15.02 -3.34 13.04 -3 11 C-2.34 11 -1.68 11 -1 11 C-1 10.34 -1 9.68 -1 9 C-2.32 9 -3.64 9 -5 9 C-5.33 10.32 -5.66 11.64 -6 13 C-6.99 13 -7.98 13 -9 13 C-7.54945055 7.43956044 -7.54945055 7.43956044 -5.125 5.5 C-3 5 -3 5 -0.75 5.875 C-0.1725 6.24625 0.405 6.6175 1 7 C1.33 6.01 1.66 5.02 2 4 C0.68 3.34 -0.64 2.68 -2 2 C-1.34 1.34 -0.68 0.68 0 0 Z " fill="#EFEA02" transform="translate(49,23)"/>
<path d="M0 0 C0.66 0.33 1.32 0.66 2 1 C1.01 2.98 0.02 4.96 -1 7 C-0.01 7 0.98 7 2 7 C2.33 5.35 2.66 3.7 3 2 C4.32 2.33 5.64 2.66 7 3 C6.01 5.97 5.02 8.94 4 12 C-0.875 11.125 -0.875 11.125 -2 10 C-5.3644438 20.09333139 -2.41689205 30.36683446 1 40 C1.35289546 41.32828976 1.69541093 42.65980808 2 44 C0.29119498 42.37256665 -1.16079849 40.78131406 -2.5625 38.875 C-3.87454862 36.88034058 -3.87454862 36.88034058 -6 36 C-5.82984375 35.18789062 -5.6596875 34.37578125 -5.484375 33.5390625 C-5.01865614 30.1363102 -5.03088256 27.09130902 -5.16601562 23.67919922 C-5.49810499 14.56798003 -4.45560499 8.11556624 0 0 Z " fill="#255300" transform="translate(41,29)"/>
<path d="M0 0 C0.66 0 1.32 0 2 0 C2.53293835 1.74635165 3.05090663 3.49727652 3.5625 5.25 C3.85253906 6.22453125 4.14257812 7.1990625 4.44140625 8.203125 C4.99249836 10.96243932 4.93789609 12.3912824 4 15 C-1.625 16.125 -1.625 16.125 -5 15 C-5.144375 14.195625 -5.28875 13.39125 -5.4375 12.5625 C-5.74135249 10.07896294 -5.74135249 10.07896294 -7 9 C-5.76448756 5.29346269 -4.03334922 4.35084565 -1 2 C-0.67 1.34 -0.34 0.68 0 0 Z " fill="#BEE005" transform="translate(98,32)"/>
<path d="M0 0 C0.66 0 1.32 0 2 0 C2 0.66 2 1.32 2 2 C3.65 1.67 5.3 1.34 7 1 C7 1.66 7 2.32 7 3 C7.64066406 3.23847656 8.28132813 3.47695313 8.94140625 3.72265625 C11 5 11 5 11.71484375 7.05859375 C11.78832031 7.84363281 11.86179687 8.62867188 11.9375 9.4375 C12.02902344 10.21996094 12.12054688 11.00242187 12.21484375 11.80859375 C12 14 12 14 10.62890625 15.78515625 C9 17 9 17 7 17 C7 16.01 7 15.02 7 14 C6.01 13.67 5.02 13.34 4 13 C4.33 12.67 4.66 12.34 5 12 C5 11.030625 5 10.06125 5 9.0625 C5 6 5 6 6 4 C5.34 4 4.68 4 4 4 C4 5.65 4 7.3 4 9 C1.03 9 -1.94 9 -5 9 C-4.67 8.01 -4.34 7.02 -4 6 C-2.35 5.67 -0.7 5.34 1 5 C0.67 3.35 0.34 1.7 0 0 Z " fill="#F2F301" transform="translate(69,24)"/>
<path d="M0 0 C3.04541702 0.95982215 4.92342838 2.27283634 7.40234375 4.2734375 C8.1809375 4.89089844 8.95953125 5.50835938 9.76171875 6.14453125 C11.65234375 7.8359375 11.65234375 7.8359375 12.65234375 9.8359375 C10.40234375 11.4609375 10.40234375 11.4609375 7.65234375 12.8359375 C5.33984375 12.0234375 5.33984375 12.0234375 3.65234375 10.8359375 C3.65234375 10.1759375 3.65234375 9.5159375 3.65234375 8.8359375 C2.86859375 8.6915625 2.08484375 8.5471875 1.27734375 8.3984375 C-1.34765625 7.8359375 -1.34765625 7.8359375 -3.34765625 6.8359375 C-3.34765625 6.1759375 -3.34765625 5.5159375 -3.34765625 4.8359375 C-4.33765625 4.5059375 -5.32765625 4.1759375 -6.34765625 3.8359375 C-3.03559444 -0.21213805 -3.03559444 -0.21213805 0 0 Z " fill="#CFCB04" transform="translate(94.34765625,14.1640625)"/>
<path d="M0 0 C0.66 0 1.32 0 2 0 C2.5775 0.763125 3.155 1.52625 3.75 2.3125 C6.28671086 5.3424602 8.48639367 6.27904996 12 8 C14.875 10.0625 14.875 10.0625 17 13 C17.40904095 16.37588229 17.29551675 19.61797501 17 23 C16.67 23 16.34 23 16 23 C15.67 20.69 15.34 18.38 15 16 C14.87625 16.804375 14.7525 17.60875 14.625 18.4375 C14.41875 19.283125 14.2125 20.12875 14 21 C13.34 21.33 12.68 21.66 12 22 C11.67 22.66 11.34 23.32 11 24 C10.71125 23.360625 10.4225 22.72125 10.125 22.0625 C9.17176549 19.84793921 9.17176549 19.84793921 7 19 C7.99 15.7 8.98 12.4 10 9 C8.9171875 8.62875 8.9171875 8.62875 7.8125 8.25 C4.70432462 6.86858872 2.47276852 5.33146746 0 3 C0 2.01 0 1.02 0 0 Z " fill="#B5DD08" transform="translate(54,32)"/>
<path d="M0 0 C0.66 0.33 1.32 0.66 2 1 C1.67 1.66 1.34 2.32 1 3 C1.598125 2.649375 2.19625 2.29875 2.8125 1.9375 C5 1 5 1 8 2 C7.34773438 2.37511719 6.69546875 2.75023437 6.0234375 3.13671875 C-1.22749827 7.38247317 -7.15035013 11.97830161 -13 18 C-13 17.34 -13 16.68 -13 16 C-13.66 16 -14.32 16 -15 16 C-14.51262244 11.8047304 -12.28936359 10.12154302 -9.1875 7.4375 C-7.87845703 6.29087891 -7.87845703 6.29087891 -6.54296875 5.12109375 C-4.40638141 3.3389633 -2.24688114 1.63933286 0 0 Z " fill="#0B7E01" transform="translate(55,11)"/>
<path d="M0 0 C7.04440079 -0.21133202 13.24112575 -0.07965362 20 2 C19.34 2.5775 18.68 3.155 18 3.75 C15.55709077 5.99653977 15.55709077 5.99653977 16 10 C12.04 9.67 8.08 9.34 4 9 C5.32 8.34 6.64 7.68 8 7 C7.67 6.34 7.34 5.68 7 5 C5.02 5.99 5.02 5.99 3 7 C3 5.35 3 3.7 3 2 C4.32 2 5.64 2 7 2 C4.69 1.67 2.38 1.34 0 1 C0 0.67 0 0.34 0 0 Z " fill="#C6C004" transform="translate(70,10)"/>
<path d="M0 0 C-0.75 6.625 -0.75 6.625 -3 10 C-6.625 10.1875 -6.625 10.1875 -10 10 C-9.01 10.33 -8.02 10.66 -7 11 C-7 11.66 -7 12.32 -7 13 C-9.475 12.01 -9.475 12.01 -12 11 C-12 6.19705285 -11.06359394 4.62794019 -8 1 C-5.17758157 0.20972284 -2.90411566 0 0 0 Z " fill="#B1DA06" transform="translate(103,48)"/>
<path d="M0 0 C0.59167969 0.08378906 1.18335937 0.16757812 1.79296875 0.25390625 C6.09939457 0.80889424 9.75552644 1.23226652 14 0 C14 1.32 14 2.64 14 4 C14.66 4 15.32 4 16 4 C16 4.66 16 5.32 16 6 C12.75684218 6.96604701 9.81491334 7.13419024 6.4375 7.125 C5.48746094 7.12757812 4.53742188 7.13015625 3.55859375 7.1328125 C1 7 1 7 -2 6 C-2 5.34 -2 4.68 -2 4 C-1.34 4 -0.68 4 0 4 C0 2.68 0 1.36 0 0 Z " fill="#060401" transform="translate(70,63)"/>
<path d="M0 0 C2.1519437 3.22791555 2.20086443 4.28400809 2 8 C1.34 8 0.68 8 0 8 C0 8.66 0 9.32 0 10 C-0.99 10.66 -1.98 11.32 -3 12 C-2.01 12.66 -1.02 13.32 0 14 C-0.33 14.99 -0.66 15.98 -1 17 C-1.928125 16.4740625 -1.928125 16.4740625 -2.875 15.9375 C-3.57625 15.628125 -4.2775 15.31875 -5 15 C-5.99 15.495 -5.99 15.495 -7 16 C-7 12.37 -7 8.74 -7 5 C-6.67 5 -6.34 5 -6 5 C-5.67 5.99 -5.34 6.98 -5 8 C-5.33 5.69 -5.66 3.38 -6 1 C-4.02 0.67 -2.04 0.34 0 0 Z " fill="#B7B306" transform="translate(115,40)"/>
<path d="M0 0 C2.97 1.98 5.94 3.96 9 6 C8.67 7.65 8.34 9.3 8 11 C5.03 11 2.06 11 -1 11 C-2.13757948 6.44968209 -1.4283779 4.36915594 0 0 Z " fill="#BBDE05" transform="translate(53,36)"/>
<path d="M0 0 C1.32 0.33 2.64 0.66 4 1 C3.67 1.99 3.34 2.98 3 4 C3 4.99 3 5.98 3 7 C3.763125 6.814375 4.52625 6.62875 5.3125 6.4375 C8 6 8 6 11 7 C11 7.66 11 8.32 11 9 C9.906875 9.226875 8.81375 9.45375 7.6875 9.6875 C3.91872338 10.67189647 3.91872338 10.67189647 2 13.4375 C0.66342113 16.05605906 0.66342113 16.05605906 2 19 C2.66 19.33 3.32 19.66 4 20 C3.67 21.32 3.34 22.64 3 24 C1.02 22.35 -0.96 20.7 -3 19 C-1.79618552 16.50638429 -0.54571278 14.31856917 1 12 C1.02415584 9.0175423 1.02415584 9.0175423 0.625 5.8125 C0.51414062 4.72582031 0.40328125 3.63914063 0.2890625 2.51953125 C0.14597656 1.27236328 0.14597656 1.27236328 0 0 Z " fill="#6BBD08" transform="translate(90,40)"/>
<path d="M0 0 C1.32 0 2.64 0 4 0 C3.67 0.99 3.34 1.98 3 3 C2.34 3 1.68 3 1 3 C1 3.66 1 4.32 1 5 C7.76215448 4.59060025 13.67162748 3.43046191 20 1 C20 1.66 20 2.32 20 3 C7.79591453 7.47416554 -2.76459991 8.9771119 -15 4 C-11.42619658 2.80873219 -9.49116698 3.2650555 -5.8125 3.9375 C-4.72582031 4.13214844 -3.63914062 4.32679687 -2.51953125 4.52734375 C-1.68808594 4.68332031 -0.85664062 4.83929688 0 5 C0 3.35 0 1.7 0 0 Z " fill="#3C5C02" transform="translate(76,85)"/>
<path d="M0 0 C8.58 0.99 17.16 1.98 26 3 C26 3.33 26 3.66 26 4 C22.14584948 4.02923559 18.29172785 4.04687777 14.4375 4.0625 C13.35146484 4.07087891 12.26542969 4.07925781 11.14648438 4.08789062 C5.65167389 4.10459218 0.41038065 3.98582259 -5 3 C-5 2.67 -5 2.34 -5 2 C-3.35 1.67 -1.7 1.34 0 1 C0 0.67 0 0.34 0 0 Z " fill="#00A900" transform="translate(63,90)"/>
<path d="M0 0 C0.33 0 0.66 0 1 0 C1.27615058 1.59987236 1.52007625 3.205333 1.75 4.8125 C1.88921875 5.70582031 2.0284375 6.59914063 2.171875 7.51953125 C2 10 2 10 0.140625 11.82421875 C-2 13 -2 13 -4 13 C-4 12.34 -4 11.68 -4 11 C-4.66 11 -5.32 11 -6 11 C-6 8.69 -6 6.38 -6 4 C-5.67 4.66 -5.34 5.32 -5 6 C-1.9890638 3.9927092 -1.36983503 3.16115776 0 0 Z " fill="#CBC905" transform="translate(44,50)"/>
<path d="M0 0 C0.66 0.33 1.32 0.66 2 1 C1.67 6.61 1.34 12.22 1 18 C0.67 16.68 0.34 15.36 0 14 C-0.99 14.33 -1.98 14.66 -3 15 C-3.99 12.69 -4.98 10.38 -6 8 C-5.01 8 -4.02 8 -3 8 C-3.061875 7.236875 -3.12375 6.47375 -3.1875 5.6875 C-3 3 -3 3 -1.5 1.1875 C-1.005 0.795625 -0.51 0.40375 0 0 Z " fill="#7DB307" transform="translate(71,45)"/>
<path d="M0 0 C0.66 0 1.32 0 2 0 C2 0.66 2 1.32 2 2 C3.65 1.67 5.3 1.34 7 1 C7 1.66 7 2.32 7 3 C7.66 3 8.32 3 9 3 C9 3.99 9 4.98 9 6 C6.525 5.01 6.525 5.01 4 4 C4 5.65 4 7.3 4 9 C1.03 9 -1.94 9 -5 9 C-4.67 8.01 -4.34 7.02 -4 6 C-2.35 5.67 -0.7 5.34 1 5 C0.67 3.35 0.34 1.7 0 0 Z " fill="#C8E006" transform="translate(69,24)"/>
<path d="M0 0 C2.64 0 5.28 0 8 0 C6.87548273 2.9719385 5.77706209 5.33440687 4 8 C1.94140625 8.36328125 1.94140625 8.36328125 -0.4375 8.3125 C-1.21996094 8.30863281 -2.00242187 8.30476563 -2.80859375 8.30078125 C-5 8 -5 8 -8 6 C-6.1875 5.375 -6.1875 5.375 -4 5 C-3.01 5.66 -2.02 6.32 -1 7 C-0.67 4.69 -0.34 2.38 0 0 Z " fill="#E5DE03" transform="translate(72,82)"/>
<path d="M0 0 C2.475 0.99 2.475 0.99 5 2 C5 6.29 5 10.58 5 15 C0.10040161 10.10040161 0.10040161 10.10040161 -0.09765625 5.95703125 C-0.06510417 3.97135417 -0.03255208 1.98567708 0 0 Z " fill="#D1CED1" transform="translate(77,44)"/>
<path d="M0 0 C0.66 0 1.32 0 2 0 C3.19164995 2.523494 4.0358641 4.37237823 3.875 7.1875 C3 9 3 9 1.25 10.4375 C-1 11 -1 11 -3.75 9.75 C-4.86375 8.88375 -4.86375 8.88375 -6 8 C-6 7.34 -6 6.68 -6 6 C-5.38125 5.938125 -4.7625 5.87625 -4.125 5.8125 C-1.72238859 5.171081 -1.72238859 5.171081 -0.75 2.4375 C-0.5025 1.633125 -0.255 0.82875 0 0 Z " fill="#BCB906" transform="translate(59,14)"/>
<path d="M0 0 C6.6 0 13.2 0 20 0 C20 0.66 20 1.32 20 2 C18.75336669 2.50833591 17.50250613 3.00631145 16.25 3.5 C15.55390625 3.7784375 14.8578125 4.056875 14.140625 4.34375 C10.27377581 5.52920742 7.37188484 4.94875394 3.75 3.5 C3.04359375 3.2215625 2.3371875 2.943125 1.609375 2.65625 C1.07828125 2.4396875 0.5471875 2.223125 0 2 C0 1.34 0 0.68 0 0 Z " fill="#141002" transform="translate(67,70)"/>
<path d="M0 0 C3.77727089 1.81309003 7.37269822 3.9073259 11 6 C10.34 9.3 9.68 12.6 9 16 C5.37 15.01 1.74 14.02 -2 13 C-2 12.67 -2 12.34 -2 12 C1.3 12 4.6 12 8 12 C8.58663094 7.17754425 8.58663094 7.17754425 6.25 5.234375 C5.5075 4.74453125 4.765 4.2546875 4 3.75 C2.65802546 2.84603104 1.32221431 1.93263331 0 1 C0 0.67 0 0.34 0 0 Z " fill="#5EB809" transform="translate(53,35)"/>
<path d="M0 0 C-0.33 0.99 -0.66 1.98 -1 3 C-1.99 3 -2.98 3 -4 3 C-4 4.32 -4 5.64 -4 7 C-6.64 7.33 -9.28 7.66 -12 8 C-11.67 5.69 -11.34 3.38 -11 1 C-9.68 1 -8.36 1 -7 1 C-7 1.99 -7 2.98 -7 4 C-6.34 4 -5.68 4 -5 4 C-4.67 3.01 -4.34 2.02 -4 1 C-2 0 -2 0 0 0 Z " fill="#7CC00F" transform="translate(83,37)"/>
<path d="M0 0 C0.33 0 0.66 0 1 0 C0.58045837 5.0676213 -0.05337752 9.27248826 -2 14 C-1.67 14.99 -1.34 15.98 -1 17 C-3.64 18.98 -6.28 20.96 -9 23 C-8.66829641 19.46182835 -7.57251958 17.19576472 -5.625 14.3125 C-2.6676468 9.82932399 -1.30384116 5.1729633 0 0 Z " fill="#1A6900" transform="translate(116,57)"/>
<path d="M0 0 C1.32 0.33 2.64 0.66 4 1 C3.01 3.97 2.02 6.94 1 10 C-0.65 9.67 -2.3 9.34 -4 9 C-4.33 7.68 -4.66 6.36 -5 5 C-3.68 5 -2.36 5 -1 5 C-0.67 3.35 -0.34 1.7 0 0 Z " fill="#AAA708" transform="translate(44,31)"/>
<path d="M0 0 C0 2.31 0 4.62 0 7 C-0.66 6.67 -1.32 6.34 -2 6 C-2 5.34 -2 4.68 -2 4 C-2.66 4 -3.32 4 -4 4 C-3.484375 4.5775 -2.96875 5.155 -2.4375 5.75 C-1 8 -1 8 -1.125 10.125 C-2 12 -2 12 -5 14 C-5.08082094 12.04233719 -5.13910778 10.08373272 -5.1875 8.125 C-5.22230469 7.03445312 -5.25710937 5.94390625 -5.29296875 4.8203125 C-5.19628906 3.88960937 -5.09960938 2.95890625 -5 2 C-2 0 -2 0 0 0 Z " fill="#F00001" transform="translate(77,44)"/>
<path d="M0 0 C0.886875 0.309375 1.77375 0.61875 2.6875 0.9375 C5.84916747 2.09678638 5.84916747 2.09678638 8.6875 2.1875 C11 3 11 3 12.875 6.375 C14 10 14 10 13 13 C12.34644531 12.20335937 12.34644531 12.20335937 11.6796875 11.390625 C8.07207116 7.11146102 4.77040209 3.90878176 0 1 C0 0.67 0 0.34 0 0 Z " fill="#0D6B01" transform="translate(97,15)"/>
<path d="M0 0 C0.33 1.32 0.66 2.64 1 4 C-0.32 3.67 -1.64 3.34 -3 3 C-3 3.99 -3 4.98 -3 6 C-3.66 6 -4.32 6 -5 6 C-5 5.34 -5 4.68 -5 4 C-5.66 4 -6.32 4 -7 4 C-7 4.99 -7 5.98 -7 7 C-7.99 6.67 -8.98 6.34 -10 6 C-10 5.34 -10 4.68 -10 4 C-10.66 3.67 -11.32 3.34 -12 3 C-8.96474514 0.97649676 -7.80573798 0.67875982 -4.3125 0.375 C-3.50425781 0.30023438 -2.69601563 0.22546875 -1.86328125 0.1484375 C-0.94095703 0.07496094 -0.94095703 0.07496094 0 0 Z " fill="#C5E607" transform="translate(88,73)"/>
<path d="M0 0 C0.59167969 0.08378906 1.18335937 0.16757812 1.79296875 0.25390625 C6.09939457 0.80889424 9.75552644 1.23226652 14 0 C14 1.32 14 2.64 14 4 C9.38 4 4.76 4 0 4 C0 2.68 0 1.36 0 0 Z " fill="#4E520E" transform="translate(70,63)"/>
<path d="M0 0 C0.66 0 1.32 0 2 0 C3.95031692 4.07723734 4.21581971 7.31692422 4.125 11.8125 C4.10695313 12.97394531 4.08890625 14.13539062 4.0703125 15.33203125 C4.04710938 16.21246094 4.02390625 17.09289062 4 18 C3.67 18 3.34 18 3 18 C2.67 16.02 2.34 14.04 2 12 C1.67 12 1.34 12 1 12 C0.63597631 10.56496445 0.28413409 9.12683494 -0.0625 7.6875 C-0.25972656 6.88699219 -0.45695312 6.08648437 -0.66015625 5.26171875 C-1 3 -1 3 0 0 Z " fill="#009C00" transform="translate(103,38)"/>
<path d="M0 0 C0.66 0.33 1.32 0.66 2 1 C1.49228528 6.96564796 -0.38592128 11.63809899 -3 17 C-4.26041675 14.4791665 -3.66225891 13.64903564 -3 11 C-3.33 10.34 -3.66 9.68 -4 9 C-3.22265625 6.8359375 -3.22265625 6.8359375 -2.0625 4.375 C-1.68222656 3.55773437 -1.30195312 2.74046875 -0.91015625 1.8984375 C-0.60980469 1.27195313 -0.30945313 0.64546875 0 0 Z " fill="#02A302" transform="translate(117,61)"/>
<path d="M0 0 C0.33 0 0.66 0 1 0 C1.33 0.99 1.66 1.98 2 3 C2.99 2.67 3.98 2.34 5 2 C5.66 2.33 6.32 2.66 7 3 C7 3.66 7 4.32 7 5 C6.01 5.66 5.02 6.32 4 7 C4.99 7.66 5.98 8.32 7 9 C6.67 9.99 6.34 10.98 6 12 C5.38125 11.649375 4.7625 11.29875 4.125 10.9375 C3.42375 10.628125 2.7225 10.31875 2 10 C1.01 10.495 1.01 10.495 0 11 C0 7.37 0 3.74 0 0 Z " fill="#797708" transform="translate(108,45)"/>
<path d="M0 0 C0.66 0 1.32 0 2 0 C2.33 1.32 2.66 2.64 3 4 C2.34 4 1.68 4 1 4 C1 4.66 1 5.32 1 6 C2.65 6 4.3 6 6 6 C5.34 7.65 4.68 9.3 4 11 C3.34 11 2.68 11 2 11 C2 10.01 2 9.02 2 8 C1.01 8.33 0.02 8.66 -1 9 C-1.625 5.625 -1.625 5.625 -2 2 C-1.34 1.34 -0.68 0.68 0 0 Z " fill="#7D7B0B" transform="translate(105,26)"/>
<path d="M0 0 C0.99 0.33 1.98 0.66 3 1 C3 1.66 3 2.32 3 3 C3.66 3 4.32 3 5 3 C5 2.34 5 1.68 5 1 C5.66 1 6.32 1 7 1 C7.33 2.65 7.66 4.3 8 6 C4.79984144 7.06671952 3.11455706 6.94845472 -0.1875 6.5625 C-1.08855469 6.46066406 -1.98960938 6.35882812 -2.91796875 6.25390625 C-3.60503906 6.17011719 -4.29210937 6.08632813 -5 6 C-4.35546875 5.71382812 -3.7109375 5.42765625 -3.046875 5.1328125 C-0.80115872 4.18581338 -0.80115872 4.18581338 -0.25 1.875 C-0.1675 1.25625 -0.085 0.6375 0 0 Z " fill="#958E08" transform="translate(79,13)"/>
<path d="M0 0 C4.75 0.875 4.75 0.875 7 2 C6.67 3.98 6.34 5.96 6 8 C4.68 8 3.36 8 2 8 C2 7.34 2 6.68 2 6 C1.34 6 0.68 6 0 6 C0 4.02 0 2.04 0 0 Z " fill="#A49F07" transform="translate(37,42)"/>
<path d="M0 0 C2.23960447 2.87949147 4.29864224 5.76742026 6 9 C5 11 5 11 3 14 C-1.07877462 5.96498906 -1.07877462 5.96498906 -0.75 1.9375 C-0.5025 1.298125 -0.255 0.65875 0 0 Z " fill="#01A301" transform="translate(37,64)"/>
<path d="M0 0 C0.33 0.66 0.66 1.32 1 2 C3.02463255 2.65213292 3.02463255 2.65213292 5 3 C5 4.65 5 6.3 5 8 C3.35 8.33 1.7 8.66 0 9 C-1.125 3.375 -1.125 3.375 0 0 Z " fill="#B9B706" transform="translate(109,53)"/>
<path d="M0 0 C0.66 0 1.32 0 2 0 C2.5775 0.763125 3.155 1.52625 3.75 2.3125 C6.27932823 5.33364206 8.48413614 6.31531523 12 8 C14.375 10.1875 14.375 10.1875 16 12 C15.67 12.66 15.34 13.32 15 14 C14.01 13.34 13.02 12.68 12 12 C11.01 12.495 11.01 12.495 10 13 C10 11.68 10 10.36 10 9 C8.9171875 8.62875 8.9171875 8.62875 7.8125 8.25 C4.70432462 6.86858872 2.47276852 5.33146746 0 3 C0 2.01 0 1.02 0 0 Z " fill="#E8F204" transform="translate(54,32)"/>
<path d="M0 0 C0 1.65 0 3.3 0 5 C0.66 5 1.32 5 2 5 C2 4.34 2 3.68 2 3 C3.32 3.33 4.64 3.66 6 4 C5.34 5.32 4.68 6.64 4 8 C2.02 7.34 0.04 6.68 -2 6 C-2 5.34 -2 4.68 -2 4 C-2.99 3.67 -3.98 3.34 -5 3 C-2.25 0 -2.25 0 0 0 Z " fill="#6E6D0B" transform="translate(93,15)"/>
<path d="M0 0 C0.556875 0.226875 1.11375 0.45375 1.6875 0.6875 C1.3575 1.6775 1.0275 2.6675 0.6875 3.6875 C-1.37890625 4.63671875 -1.37890625 4.63671875 -3.875 5.375 C-4.70128906 5.62636719 -5.52757812 5.87773437 -6.37890625 6.13671875 C-7.01699219 6.31847656 -7.65507813 6.50023437 -8.3125 6.6875 C-7.73292843 3.61131245 -7.57717074 2.89494463 -5 0.875 C-2.3125 -0.3125 -2.3125 -0.3125 0 0 Z " fill="#029D02" transform="translate(64.3125,7.3125)"/>
<path d="M0 0 C0.66 0.33 1.32 0.66 2 1 C2 2.65 2 4.3 2 6 C0.1875 7.0625 0.1875 7.0625 -2 8 C-2.99 7.67 -3.98 7.34 -5 7 C-5.33 6.34 -5.66 5.68 -6 5 C-4.68 4.34 -3.36 3.68 -2 3 C-2.33 2.34 -2.66 1.68 -3 1 C-2.01 0.67 -1.02 0.34 0 0 Z " fill="#C8E405" transform="translate(101,40)"/>
<path d="M0 0 C5.26159459 -0.64165788 7.68592849 0.79422999 11.6796875 3.90625 C12.11539063 4.2671875 12.55109375 4.628125 13 5 C12.01 5.66 11.02 6.32 10 7 C8.33073546 6.02526874 6.66464358 5.04510211 5 4.0625 C4.071875 3.51722656 3.14375 2.97195312 2.1875 2.41015625 C1.465625 1.94480469 0.74375 1.47945312 0 1 C0 0.67 0 0.34 0 0 Z " fill="#02A302" transform="translate(92,11)"/>
<path d="M0 0 C0.6875 3 0.6875 3 1 6 C0 7 0 7 -2.5625 7.0625 C-3.366875 7.041875 -4.17125 7.02125 -5 7 C-5 6.34 -5 5.68 -5 5 C-4.34 4.67 -3.68 4.34 -3 4 C-3 3.34 -3 2.68 -3 2 C-4.32 1.34 -5.64 0.68 -7 0 C-2.25 -1.125 -2.25 -1.125 0 0 Z " fill="#FEFC00" transform="translate(82,83)"/>
<path d="M0 0 C5 2 5 2 10 4 C9.67 3.01 9.34 2.02 9 1 C9.66 1 10.32 1 11 1 C11 1.99 11 2.98 11 4 C12.32 3.34 13.64 2.68 15 2 C15 2.99 15 3.98 15 5 C11.37795519 5.98097047 9.23570564 6.5566048 5.75390625 4.98828125 C3.74731212 3.73997225 1.8315776 2.49380615 0 1 C0 0.67 0 0.34 0 0 Z " fill="#2D7002" transform="translate(58,75)"/>
<path d="M0 0 C1.65 1.32 3.3 2.64 5 4 C4.67 5.32 4.34 6.64 4 8 C2.68 8.33 1.36 8.66 0 9 C0 6.03 0 3.06 0 0 Z " fill="#E9E4E6" transform="translate(77,56)"/>
<path d="M0 0 C0.33 0.66 0.66 1.32 1 2 C1.66 2 2.32 2 3 2 C3.33 3.98 3.66 5.96 4 8 C2.68 7.67 1.36 7.34 0 7 C0 6.67 0 6.34 0 6 C-0.99 5.67 -1.98 5.34 -3 5 C-1.125 1.125 -1.125 1.125 0 0 Z " fill="#A0D308" transform="translate(88,43)"/>
<path d="M0 0 C1.65 1.32 3.3 2.64 5 4 C4.34 2.68 3.68 1.36 3 0 C5.97 0.495 5.97 0.495 9 1 C7.35 2.98 5.7 4.96 4 7 C2.02 5.68 0.04 4.36 -2 3 C-1.34 2.01 -0.68 1.02 0 0 Z " fill="#FEFB01" transform="translate(49,23)"/>
<path d="M0 0 C0.33 0 0.66 0 1 0 C1.99 0 2.98 0 4 0 C3.34 1.32 2.68 2.64 2 4 C-0.31 3.67 -2.62 3.34 -5 3 C-5 2.34 -5 1.68 -5 1 C-5.66 0.67 -6.32 0.34 -7 0 C-2.25 -1.125 -2.25 -1.125 0 0 Z " fill="#90CD07" transform="translate(62,58)"/>
<path d="M0 0 C0.99 0.33 1.98 0.66 3 1 C2.67 3.31 2.34 5.62 2 8 C0.68 7.34 -0.64 6.68 -2 6 C-1.34 4.02 -0.68 2.04 0 0 Z " fill="#868308" transform="translate(69,81)"/>
<path d="M0 0 C0.598125 0.45375 1.19625 0.9075 1.8125 1.375 C3.50590652 2.63295913 5.24477086 3.82984724 7 5 C5.02 5 3.04 5 1 5 C1.99 5.33 2.98 5.66 4 6 C4 6.66 4 7.32 4 8 C1.525 7.01 1.525 7.01 -1 6 C-1 2 -1 2 0 0 Z " fill="#D7EB04" transform="translate(92,53)"/>
<path d="M0 0 C1.65 0 3.3 0 5 0 C4.67 0.66 4.34 1.32 4 2 C4.66 2.66 5.32 3.32 6 4 C4.68 5.32 3.36 6.64 2 8 C2 7.34 2 6.68 2 6 C1.34 5.67 0.68 5.34 0 5 C0 3.35 0 1.7 0 0 Z " fill="#C4E108" transform="translate(86,48)"/>
<path d="M0 0 C1.32 0.66 2.64 1.32 4 2 C4 2.66 4 3.32 4 4 C2.35 4 0.7 4 -1 4 C-1.33 5.32 -1.66 6.64 -2 8 C-2.99 8 -3.98 8 -5 8 C-3.375 2.25 -3.375 2.25 0 0 Z " fill="#FAF602" transform="translate(45,28)"/>
<path d="M0 0 C2.625 -0.1875 2.625 -0.1875 5 0 C3.79618552 2.49361571 2.54571278 4.68143083 1 7 C0.34 6.67 -0.32 6.34 -1 6 C-0.67 5.34 -0.34 4.68 0 4 C-0.66 3.67 -1.32 3.34 -2 3 C-1.34 2.01 -0.68 1.02 0 0 Z " fill="#FDFA01" transform="translate(87,13)"/>
<path d="M0 0 C3.2542015 2.83430453 4.5206753 4.68607774 5 9 C4.34 9 3.68 9 3 9 C2.67 9.66 2.34 10.32 2 11 C-0.11096433 7.52311757 -0.11096433 7.52311757 0.4375 4.9375 C0.623125 4.298125 0.80875 3.65875 1 3 C0.67 2.01 0.34 1.02 0 0 Z " fill="#237E02" transform="translate(100,29)"/>
<path d="M0 0 C0.66 0 1.32 0 2 0 C2 2.25 2 2.25 1 5 C-1.52667787 6.67198768 -4.19936568 7.85805571 -7 9 C-5.76448756 5.29346269 -4.03334922 4.35084565 -1 2 C-0.67 1.34 -0.34 0.68 0 0 Z " fill="#E1F004" transform="translate(98,32)"/>
<path d="M0 0 C0.33 1.32 0.66 2.64 1 4 C2.98 3.01 4.96 2.02 7 1 C7 1.99 7 2.98 7 4 C7.99 4.33 8.98 4.66 10 5 C6.37 5.33 2.74 5.66 -1 6 C-0.67 4.02 -0.34 2.04 0 0 Z " fill="#FCFA02" transform="translate(71,13)"/>
<path d="M0 0 C2.625 0.9375 2.625 0.9375 5 2 C4.67 2.66 4.34 3.32 4 4 C4.66 4.66 5.32 5.32 6 6 C2.97580475 5.41196203 -0.01758453 4.77321882 -3 4 C-2.67 3.01 -2.34 2.02 -2 1 C-1.34 0.67 -0.68 0.34 0 0 Z " fill="#8ECC08" transform="translate(54,39)"/>
<path d="M0 0 C4.75 0.875 4.75 0.875 7 2 C6.67 2.99 6.34 3.98 6 5 C5.34 5 4.68 5 4 5 C3.67 4.34 3.34 3.68 3 3 C2.01 3.33 1.02 3.66 0 4 C0 2.68 0 1.36 0 0 Z " fill="#F0F603" transform="translate(69,75)"/>
<path d="M0 0 C0.66 0.33 1.32 0.66 2 1 C1.67 1.66 1.34 2.32 1 3 C1.598125 2.649375 2.19625 2.29875 2.8125 1.9375 C5 1 5 1 8 2 C1.25 6 1.25 6 -1 6 C-1.042721 4.33388095 -1.04063832 2.66617115 -1 1 C-0.67 0.67 -0.34 0.34 0 0 Z " fill="#136702" transform="translate(55,11)"/>
<path d="M0 0 C0.33 1.32 0.66 2.64 1 4 C-0.32 3.67 -1.64 3.34 -3 3 C-3 3.99 -3 4.98 -3 6 C-3.66 6 -4.32 6 -5 6 C-5.33 4.68 -5.66 3.36 -6 2 C-4.02 1.34 -2.04 0.68 0 0 Z " fill="#F4F803" transform="translate(88,73)"/>
<path d="M0 0 C2.475 0.495 2.475 0.495 5 1 C5 1.33 5 1.66 5 2 C6.65 2.33 8.3 2.66 10 3 C10 3.33 10 3.66 10 4 C6.7 4 3.4 4 0 4 C0 2.68 0 1.36 0 0 Z " fill="#343C06" transform="translate(70,63)"/>
<path d="M0 0 C0.66 0 1.32 0 2 0 C2.66 1.98 3.32 3.96 4 6 C3.01 6 2.02 6 1 6 C0.67 6.66 0.34 7.32 0 8 C-1.125 2.25 -1.125 2.25 0 0 Z " fill="#918E09" transform="translate(59,14)"/>
<path d="M0 0 C0.99 0 1.98 0 3 0 C3.33 0.99 3.66 1.98 4 3 C3.67 3.66 3.34 4.32 3 5 C1.68 5 0.36 5 -1 5 C-0.67 3.35 -0.34 1.7 0 0 Z " fill="#D6E803" transform="translate(72,40)"/>
<path d="M0 0 C0.33 1.32 0.66 2.64 1 4 C-0.98 4.99 -2.96 5.98 -5 7 C-4.75 4.625 -4.75 4.625 -4 2 C-1.9375 0.6875 -1.9375 0.6875 0 0 Z " fill="#86C908" transform="translate(99,39)"/>
<path d="M0 0 C2 3 2 3 2 6 C1.01 5.67 0.02 5.34 -1 5 C-1.33 5.99 -1.66 6.98 -2 8 C-2.66 8 -3.32 8 -4 8 C-2.87548273 5.0280615 -1.77706209 2.66559313 0 0 Z " fill="#226801" transform="translate(51,32)"/>
<path d="M0 0 C1.32 0.33 2.64 0.66 4 1 C3.67 1.99 3.34 2.98 3 4 C3.38932856 6.14255793 3.38932856 6.14255793 4 8 C3.34 8 2.68 8 2 8 C-0.1519437 4.77208445 -0.20086443 3.71599191 0 0 Z " fill="#FAF602" transform="translate(61,13)"/>
<path d="M0 0 C0.99 0.33 1.98 0.66 3 1 C3.6875 3.0625 3.6875 3.0625 4 5 C2.68 5.33 1.36 5.66 0 6 C-0.38218767 4.34385343 -0.71395102 2.67542976 -1 1 C-0.67 0.67 -0.34 0.34 0 0 Z " fill="#47470C" transform="translate(84,83)"/>
<path d="M0 0 C3.3 0 6.6 0 10 0 C9.67 0.99 9.34 1.98 9 3 C4.545 2.01 4.545 2.01 0 1 C0 0.67 0 0.34 0 0 Z " fill="#8DCA07" transform="translate(51,47)"/>
<path d="M0 0 C2.64 1.65 5.28 3.3 8 5 C7.01 5.495 7.01 5.495 6 6 C4.65812182 5.3507041 3.32520503 4.68268138 2 4 C1.01 4 0.02 4 -1 4 C-0.67 2.68 -0.34 1.36 0 0 Z " fill="#EBF303" transform="translate(53,36)"/>
<path d="M0 0 C0 1.65 0 3.3 0 5 C-2.49064888 5.68707555 -4.37886292 6 -7 6 C-6.02388578 4.99702025 -5.04402202 3.99768827 -4.0625 3 C-3.51722656 2.443125 -2.97195312 1.88625 -2.41015625 1.3125 C-1 0 -1 0 0 0 Z " fill="#03A403" transform="translate(47,18)"/>
<path d="M0 0 C3.465 1.485 3.465 1.485 7 3 C7 3.66 7 4.32 7 5 C4.03 4.01 1.06 3.02 -2 2 C-1.34 1.34 -0.68 0.68 0 0 Z " fill="#051E05" transform="translate(81,1)"/>
<path d="M0 0 C0.33 0 0.66 0 1 0 C1 2.64 1 5.28 1 8 C-0.5625 6.75 -0.5625 6.75 -2 5 C-1.74853421 2.86254078 -1.54074221 1.54074221 0 0 Z " fill="#FEFDFE" transform="translate(81,51)"/>
<path d="M0 0 C0.66 0 1.32 0 2 0 C2 1.65 2 3.3 2 5 C0.02 5 -1.96 5 -4 5 C-3.34 4.01 -2.68 3.02 -2 2 C-1.34 2 -0.68 2 0 2 C0 1.34 0 0.68 0 0 Z " fill="#FFFE00" transform="translate(115,48)"/>
<path d="M0 0 C1.98 0 3.96 0 6 0 C5.67 1.65 5.34 3.3 5 5 C3.68 4.34 2.36 3.68 1 3 C1.33 2.67 1.66 2.34 2 2 C1.34 1.34 0.68 0.68 0 0 Z " fill="#CBE505" transform="translate(56,42)"/>
<path d="M0 0 C1.98 0.495 1.98 0.495 4 1 C3.67 2.32 3.34 3.64 3 5 C1.68 4.67 0.36 4.34 -1 4 C-0.67 2.68 -0.34 1.36 0 0 Z " fill="#57570D" transform="translate(44,31)"/>
</svg>
